<svg width="36" height="117" viewBox="0 0 36 117" fill="none" xmlns="http://www.w3.org/2000/svg">
<path d="M34.0198 17.5586C33.9729 5.95703 28.1136 0.15625 16.4417 0.15625H5.85965V10.7031H16.4417C21.0823 10.7031 23.1448 11.9688 22.6292 14.5C22.1136 17.0078 19.0432 18.5781 13.4182 19.2109C7.79325 19.8203 4.35965 22.9258 3.11747 28.5273L2.37918 45.9297L20.0628 45.8945H31.0667L31.137 35.3828H12.9612C12.469 31.75 15.5979 29.3125 22.3479 28.0703C29.0979 26.8047 32.9886 23.3008 34.0198 17.5586Z" fill="#E62736"/>
<path d="M11.1331 87.8398C11.1565 83.1992 13.5354 80.8789 18.2698 80.8789C22.887 80.8789 25.2073 83.1992 25.2307 87.8398L25.1956 98.4219C25.1487 103.133 22.8167 105.488 18.1995 105.488C13.4651 105.488 11.1097 103.133 11.1331 98.4219V87.8398ZM35.7425 87.875C35.7425 76.1797 29.93 70.332 18.305 70.332C6.5159 70.3555 0.621372 76.2148 0.621372 87.9102V98.5273C0.574497 110.176 6.44559 116.012 18.2347 116.035C29.8597 116.012 35.6722 110.164 35.6722 98.4922L35.7425 87.875Z" fill="#E62736"/>
</svg>
