<svg width="32" height="117" viewBox="0 0 32 117" fill="none" xmlns="http://www.w3.org/2000/svg">
<path d="M31.9004 17.707C31.8535 6.10547 25.9941 0.304688 14.3223 0.304688H3.74023V10.8516H14.3223C18.9629 10.8516 21.0254 12.1172 20.5098 14.6484C19.9941 17.1562 16.9238 18.7266 11.2988 19.3594C5.67383 19.9688 2.24023 23.0742 0.998047 28.6758L0.259766 46.0781L17.9434 46.043H28.9473L29.0176 35.5312H10.8418C10.3496 31.8984 13.4785 29.4609 20.2285 28.2188C26.9785 26.9531 30.8691 23.4492 31.9004 17.707Z" fill="#FBE5D3"/>
<path d="M10.7012 70.4805L7.15039 81.0625C9.63477 80.5703 10.877 82.1289 10.877 85.7383V105.637H7.2207V116.184H24.8691V105.637H21.4238V85.668C21.4238 76.4102 17.8496 71.3477 10.7012 70.4805Z" fill="#FBE5D3"/>
</svg>
