<svg width="100" height="929" viewBox="0 0 100 929" fill="none" xmlns="http://www.w3.org/2000/svg">
<path d="M68.2298 540.231C68.1708 525.64 60.8018 518.345 46.1228 518.345H32.8145V531.609H46.1228C51.9591 531.609 54.5529 533.201 53.9045 536.384C53.256 539.538 49.3947 541.513 42.3204 542.309C35.2462 543.075 30.928 546.981 29.3658 554.026L28.4373 575.912L50.6769 575.867H64.5158L64.6042 562.647H41.7457C41.1267 558.079 45.0617 555.013 53.5508 553.451C62.0398 551.859 66.9328 547.453 68.2298 540.231ZM41.5688 588.566L37.1032 601.875C40.2276 601.256 41.7899 603.216 41.7899 607.755V632.78H37.1916V646.044H59.387V632.78H55.054V607.667C55.054 596.024 50.559 589.657 41.5688 588.566Z" fill="#FBE5D3"/>
<path d="M68.2298 398.231C68.1708 383.64 60.8018 376.345 46.1228 376.345H32.8145V389.609H46.1228C51.9591 389.609 54.5529 391.201 53.9045 394.384C53.256 397.538 49.3947 399.513 42.3204 400.309C35.2462 401.075 30.928 404.981 29.3658 412.026L28.4373 433.912L50.6769 433.867H64.5158L64.6042 420.647H41.7457C41.1267 416.079 45.0617 413.013 53.5508 411.451C62.0398 409.859 66.9328 405.453 68.2298 398.231ZM39.4465 468.585C39.476 462.748 42.4678 459.83 48.4219 459.83C54.2287 459.83 57.1468 462.748 57.1763 468.585L57.1321 481.893C57.0731 487.818 54.1403 490.78 48.3335 490.78C42.3794 490.78 39.4171 487.818 39.4465 481.893V468.585ZM70.3962 468.629C70.3962 453.92 63.0862 446.566 48.4662 446.566C33.6398 446.596 26.2266 453.965 26.2266 468.673V482.026C26.1676 496.675 33.5514 504.015 48.3777 504.044C62.9978 504.015 70.3078 496.66 70.3078 481.981L70.3962 468.629Z" fill="#E62736"/>
<path d="M50 680V924.32" stroke="#E62736" stroke-width="8" stroke-miterlimit="10" stroke-linecap="round"/>
<path d="M50 132V347" stroke="#FBE5D3" stroke-width="8" stroke-miterlimit="10" stroke-linecap="round"/>
<path d="M50.49 63.9697H50.48C36.9601 63.9697 26 74.9298 26 88.4497V88.4597C26 101.98 36.9601 112.94 50.48 112.94H50.49C64.0099 112.94 74.97 101.98 74.97 88.4597V88.4497C74.97 74.9298 64.0099 63.9697 50.49 63.9697Z" fill="#FBE5D3"/>
<path d="M50.49 0H50.48C36.9601 0 26 10.9601 26 24.48V24.49C26 38.0099 36.9601 48.97 50.48 48.97H50.49C64.0099 48.97 74.97 38.0099 74.97 24.49V24.48C74.97 10.9601 64.0099 0 50.49 0Z" fill="#E62736"/>
</svg>
