<svg width="642" height="133" viewBox="0 0 642 133" fill="none" xmlns="http://www.w3.org/2000/svg">
<path d="M189.88 0.241211H189.87C157.666 0.241211 131.56 26.3475 131.56 58.5512V58.5612C131.56 90.7649 157.666 116.871 189.87 116.871H189.88C222.083 116.871 248.19 90.7649 248.19 58.5612V58.5512C248.19 26.3475 222.083 0.241211 189.88 0.241211Z" fill="#FBE5D3"/>
<path d="M320.9 0.241211H320.89C288.686 0.241211 262.58 26.3475 262.58 58.5512V58.5612C262.58 90.7649 288.686 116.871 320.89 116.871H320.9C353.104 116.871 379.21 90.7649 379.21 58.5612V58.5512C379.21 26.3475 353.104 0.241211 320.9 0.241211Z" fill="#FBE5D3"/>
<path d="M451.92 0.241211H451.91C419.706 0.241211 393.6 26.3475 393.6 58.5512V58.5612C393.6 90.7649 419.706 116.871 451.91 116.871H451.92C484.123 116.871 510.23 90.7649 510.23 58.5612V58.5512C510.23 26.3475 484.123 0.241211 451.92 0.241211Z" fill="#FBE5D3"/>
<path d="M582.94 0.241211H582.93C550.726 0.241211 524.62 26.3475 524.62 58.5512V58.5612C524.62 90.7649 550.726 116.871 582.93 116.871H582.94C615.144 116.871 641.25 90.7649 641.25 58.5612V58.5512C641.25 26.3475 615.144 0.241211 582.94 0.241211Z" fill="#FBE5D3"/>
<path d="M185.811 52.8395C185.77 42.6204 180.609 37.5109 170.328 37.5109H161.007V46.8009H170.328C174.415 46.8009 176.232 47.9157 175.778 50.1454C175.324 52.3543 172.619 53.7375 167.665 54.2949C162.71 54.8317 159.686 57.5671 158.591 62.5011L157.941 77.8297L173.517 77.7987H183.21L183.272 68.5396H167.262C166.829 65.3397 169.585 63.1927 175.53 62.0985C181.476 60.9837 184.903 57.8974 185.811 52.8395ZM194.792 62.2534L207.457 62.2843V65.5978C207.478 67.559 206.425 68.5396 204.298 68.5396H189.001L189.032 77.9226H204.329C212.608 77.9019 216.747 73.7524 216.747 65.4739V52.9943L213.712 53.0562L216.747 50.0834V37.6348H188.939V46.9248L207.457 46.8938V52.9633H194.885L194.792 62.2534Z" fill="#20254B"/>
<path d="M299.946 37.6657L296.818 46.9867C299.006 46.5532 300.1 47.9261 300.1 51.1053V68.6325H296.88V77.9226H312.425V68.6325H309.39V51.0434C309.39 42.8888 306.242 38.4296 299.946 37.6657ZM328.063 62.4701L331.129 62.4392C333.111 62.5011 334.102 63.523 334.102 65.5049C334.102 67.528 333.07 68.5396 331.005 68.5396H327.909C325.844 68.5396 324.812 67.528 324.812 65.5049C324.812 63.4404 325.896 62.4288 328.063 62.4701ZM328.063 47.0796L331.129 47.0487C333.111 47.1106 334.102 48.1325 334.102 50.1144C334.102 52.1375 333.07 53.1491 331.005 53.1491H327.909C325.844 53.1491 324.812 52.1375 324.812 50.1144C324.812 48.0499 325.896 47.0384 328.063 47.0796ZM341.565 57.7632C342.783 55.8226 343.392 53.2627 343.392 50.0834C343.392 41.8463 339.325 37.738 331.191 37.7586L328.032 37.7277C319.692 37.7483 315.522 41.8875 315.522 50.1454C315.522 53.3246 316.141 55.8845 317.38 57.8251C316.141 59.7863 315.522 62.3566 315.522 65.5358C315.522 73.7317 319.651 77.8297 327.909 77.8297H331.129C339.304 77.8297 343.392 73.7111 343.392 65.4739C343.392 62.2947 342.783 59.7244 341.565 57.7632Z" fill="#20254B"/>
<path d="M451.641 62.5011C451.683 56.4729 450.692 52.6537 448.669 51.0434C446.645 49.4125 442.372 49.5467 435.848 51.446L433.061 52.2821L433.092 46.8009H449.102L449.04 37.5419H439.347L423.771 37.5109L423.802 55.0381L422.471 55.4407L423.833 61.7579V62.4701H423.988L424.422 64.483L438.388 60.3954C439.667 60.0238 440.772 59.8586 441.701 59.8999C442.651 59.9412 442.981 61.3966 442.692 64.2662C442.424 67.1152 440.246 68.5396 436.158 68.5396H423.74V77.8297H436.158C446.439 77.8297 451.6 72.7201 451.641 62.5011ZM482.608 62.5011C482.649 56.4729 481.658 52.6537 479.635 51.0434C477.612 49.4125 473.339 49.5467 466.815 51.446L464.028 52.2821L464.059 46.8009H480.069L480.007 37.5419H470.314L454.738 37.5109L454.769 55.0381L453.437 55.4407L454.8 61.7579V62.4701H454.955L455.388 64.483L469.354 60.3954C470.634 60.0238 471.739 59.8586 472.668 59.8999C473.617 59.9412 473.948 61.3966 473.659 64.2662C473.39 67.1152 471.212 68.5396 467.125 68.5396H454.707V77.8297H467.125C477.406 77.8297 482.567 72.7201 482.608 62.5011Z" fill="#20254B"/>
<path d="M560.34 53.0872C560.36 48.9996 562.456 46.9558 566.626 46.9558C570.693 46.9558 572.737 48.9996 572.758 53.0872L572.727 62.4082C572.685 66.5578 570.631 68.6325 566.564 68.6325C562.394 68.6325 560.319 66.5578 560.34 62.4082V53.0872ZM582.017 53.1182C582.017 42.8165 576.897 37.6657 566.657 37.6657C556.273 37.6864 551.081 42.8475 551.081 53.1491V62.5011C551.039 72.7614 556.211 77.9019 566.595 77.9226C576.835 77.9019 581.955 72.7511 581.955 62.4701L582.017 53.1182ZM591.028 62.2534L603.693 62.2843V65.5978C603.714 67.559 602.661 68.5396 600.535 68.5396H585.237L585.268 77.9226H600.566C608.844 77.9019 612.983 73.7524 612.983 65.4739V52.9943L609.949 53.0562L612.983 50.0834V37.6348H585.175V46.9248L603.693 46.8938V52.9633H591.121L591.028 62.2534Z" fill="#20254B"/>
<path d="M48.19 118.061C48.13 117.861 47.96 117.941 47.84 117.951C45.0774 118.038 42.3342 117.462 39.84 116.271C37 114.991 34.4 113.391 31.66 111.991C30.1326 111.162 28.5242 110.492 26.86 109.991C25.8809 109.675 24.8233 109.699 23.86 110.061C23.3539 110.174 22.8636 110.349 22.4 110.581C22.23 110.701 22.1 110.641 22.11 110.411C22.12 110.181 22.11 110.131 22.11 109.991C22.2202 109.102 22.1466 108.199 21.8937 107.339C21.6408 106.479 21.2141 105.68 20.64 104.991C19.8864 104.058 19.0677 103.179 18.19 102.361C16.12 100.151 13.7 98.3013 11.65 96.0613C9.90851 94.2731 8.54775 92.1503 7.65 89.8213C6.84689 87.5919 6.82222 85.1564 7.58 82.9113C7.86 82.0713 7.86 82.0313 6.99 81.9113C5.00282 81.4679 3.0734 80.7968 1.24 79.9113C0.9 79.7713 1.09 79.5813 1.15 79.4113C1.65478 78.3123 2.32974 77.2999 3.15 76.4113C3.78 75.6613 4.4 74.8813 5.03 74.1213C5.11494 74.088 5.18745 74.0292 5.23751 73.9529C5.28756 73.8767 5.31267 73.7868 5.30938 73.6956C5.30608 73.6045 5.27454 73.5166 5.21911 73.4441C5.16369 73.3717 5.08712 73.3183 5 73.2913C4.49 72.9013 4 72.4813 3.52 72.0513C1.88229 70.494 0.75891 68.474 0.3 66.2613C0.22 65.9413 0.1 65.6313 0 65.2613V61.2613C0.12 61.2013 0.09 61.0813 0.1 60.9813C0.25 59.9813 0.39 59.0613 0.53 58.1013C0.85 55.9613 1.41 53.8713 1.76 51.7313C2.12689 49.8752 2.24125 47.978 2.1 46.0913C2.08149 45.3079 1.88235 44.5393 1.5181 43.8455C1.15385 43.1517 0.634321 42.5514 0 42.0913L0 41.9913C1.09018 41.9164 2.14488 41.5729 3.07 40.9913C3.94596 40.2671 4.69902 39.4059 5.3 38.4413C6.63463 36.3668 7.77608 34.1743 8.71 31.8913C9.85669 29.0872 11.3917 26.4582 13.27 24.0813C14.9296 21.9653 17.2674 20.4857 19.89 19.8913C20.8594 19.6878 21.8501 19.6038 22.84 19.6413C23.18 19.6413 23.3 19.5813 23.22 19.2013C22.9617 17.2358 22.888 15.2505 23 13.2713C23.22 12.0613 23.21 12.0313 24.37 12.2113C25.896 12.4544 27.3847 12.8912 28.8 13.5113C29.2 13.6813 29.52 13.9913 29.93 14.1413C30.34 14.2913 30.54 14.2013 30.64 13.8013C31.2679 11.6245 32.5966 9.71579 34.42 8.37126C35.8824 7.25973 37.5515 6.45066 39.33 5.99126C41.065 5.50759 42.8381 5.17304 44.63 4.99126C46.01 4.84126 47.38 4.58126 48.75 4.44126C50.1819 4.29219 51.6019 4.04494 53 3.70126C54.5776 3.40346 56.0558 2.71595 57.3 1.70126C57.7067 1.30675 58.0447 0.847093 58.3 0.34126C58.56 -0.11874 58.8 -0.10874 59.09 0.34126C59.3472 0.814446 59.7142 1.21908 60.16 1.52126C60.2051 2.69187 59.9971 3.85844 59.55 4.94126C59.3486 4.69796 59.1648 4.44064 59 4.17126C58.84 3.87126 58.72 3.87126 58.54 4.17126C57.4381 5.57174 55.9001 6.56421 54.17 6.99126C51.51 7.84126 48.74 8.21126 46.03 8.79126C43.5237 9.22133 41.0921 10.0094 38.81 11.1313C37.7031 11.6746 36.7318 12.4585 35.967 13.4257C35.2022 14.393 34.6634 15.5189 34.39 16.7213C33.8761 19.239 34.0033 21.8455 34.76 24.3013C35.4344 26.2273 36.4061 28.0359 37.64 29.6613C39.09 31.8913 40.5 34.1413 41.89 36.4213C41.99 36.5913 42.19 36.7813 42.07 36.9813C41.95 37.1813 41.69 37.0913 41.5 37.0413C41.4468 37.0243 41.3908 37.0181 41.3352 37.0231C41.2796 37.028 41.2256 37.044 41.1763 37.0701C41.1269 37.0961 41.0833 37.1318 41.0478 37.1749C41.0124 37.218 40.986 37.2678 40.97 37.3213C40.69 37.9013 40.68 37.8913 40.24 37.4313C40.1781 37.3693 40.1212 37.3024 40.07 37.2313C38.07 34.8179 36.07 32.4013 34.07 29.9813C33.414 29.1104 32.6664 28.3125 31.84 27.6013C30.283 26.3907 28.5313 25.454 26.66 24.8313C23.66 23.8313 20.78 23.8813 18.14 25.8313C16.4604 27.178 15.055 28.8346 14 30.7113C13 32.3413 12 33.9913 11.14 35.7113C10.4577 37.0994 9.67565 38.4362 8.8 39.7113C7.7552 41.3673 6.18459 42.6245 4.34 43.2813C3.95 43.4013 4.07 43.5813 4.25 43.7813C5.14663 44.9209 5.62967 46.3312 5.62 47.7813C5.70656 49.4975 5.60259 51.218 5.31 52.9113C5.14 53.9113 5.03 54.9813 4.95 56.0213C4.68884 58.2177 4.58191 60.4298 4.63 62.6413C4.64722 63.8418 4.8496 65.0325 5.23 66.1713C5.67596 67.4041 6.39661 68.5193 7.33739 69.4323C8.27817 70.3454 9.41439 71.0324 10.66 71.4413C13.1065 72.3849 15.7536 72.6878 18.35 72.3213C20.7 71.9213 22.98 71.2013 25.29 70.6313C25.6 70.5613 25.61 70.3713 25.53 70.1213C25.327 69.3822 25.2327 68.6175 25.25 67.8513C25.3098 66.1334 25.4701 64.4204 25.73 62.7213C25.8966 61.6018 25.9134 60.4652 25.78 59.3413C25.6185 58.6981 25.3443 58.0887 24.97 57.5413C25.8607 57.2947 26.6425 56.7558 27.19 56.0113C28.1165 54.6715 28.9646 53.2792 29.73 51.8413C30.4355 50.392 31.3824 49.0732 32.53 47.9413C33.3616 47.1894 34.4139 46.7264 35.53 46.6213C35.0168 46.8381 34.5303 47.1133 34.08 47.4413C32.7476 48.6221 31.6545 50.048 30.86 51.6413C30.1307 53.0634 29.2985 54.4304 28.37 55.7313C27.911 56.4176 27.2508 56.9451 26.48 57.2413C26.09 57.3513 26.12 57.5013 26.31 57.7813C26.7271 58.386 26.963 59.0971 26.99 59.8313C26.9984 61.086 26.9114 62.3396 26.73 63.5813C26.4168 65.3631 26.3228 67.1766 26.45 68.9813C26.515 69.925 26.8465 70.831 27.4058 71.5939C27.9652 72.3568 28.7295 72.9454 29.61 73.2913C30.6544 73.7379 31.7667 74.005 32.9 74.0813C30.9062 74.3574 28.8816 73.8717 27.23 72.7213C27.07 72.6113 26.97 72.4913 26.73 72.5813C24.21 73.5813 21.64 74.4513 19.14 75.5813C18.5826 75.8099 18.0659 76.1274 17.61 76.5213C16.3998 77.5648 15.2699 78.698 14.23 79.9113C11.9 82.7313 11.23 85.8313 12.64 89.2913C13.6499 91.5537 15.0438 93.6243 16.76 95.4113C18.64 97.4113 20.59 99.4113 22.35 101.611C23.658 103.034 24.4381 104.862 24.56 106.791C24.56 107.471 24.56 107.491 25.27 107.311C26.9215 106.867 28.6711 106.954 30.27 107.561C32.11 108.241 33.89 109.071 35.67 109.901C38.0061 111.1 40.4461 112.084 42.96 112.841C44.7982 113.409 46.7533 113.485 48.63 113.061C48.5827 114.735 48.4358 116.405 48.19 118.061Z" fill="#FBE5D3"/>
<path d="M48.1897 118.061C48.4144 116.357 48.5346 114.64 48.5497 112.921C48.6697 112.841 48.6597 112.711 48.6697 112.591C48.8097 110.441 48.9797 108.301 49.0897 106.151C49.2697 102.691 49.3297 99.2312 49.3797 95.7612C49.3797 92.0912 49.3797 88.4112 49.1997 84.7612C49.1997 83.7612 49.1997 82.6712 49.0797 81.6312C48.8697 79.1712 48.7397 76.7012 48.5097 74.2412C48.3497 72.5312 48.2297 70.8112 48.0297 69.1112C47.6097 65.5912 47.1697 62.1112 46.6097 58.5712C46.0197 54.9012 45.3097 51.2612 44.6097 47.5712C44.5097 47.0712 44.2297 47.1812 43.9097 47.1912C43.5897 47.2012 43.4997 47.4612 43.5197 47.7212C43.5496 48.0839 43.5496 48.4485 43.5197 48.8112C43.5197 49.0712 43.3997 49.1812 43.1297 49.1712C42.6697 49.1712 42.2197 49.1712 41.7697 49.1712C41.3197 49.1712 41.1797 49.0512 41.1797 48.6112C41.1797 46.6712 41.1797 44.7412 41.1797 42.8112C41.1797 42.4012 41.3497 42.2612 41.7497 42.2712C42.5497 42.2712 43.3497 42.2712 44.1497 42.2712C44.3046 42.2659 44.4587 42.2967 44.5997 42.3612C45.1897 42.6612 45.4497 42.5012 45.4397 41.8512C45.4397 41.4712 45.4397 41.0812 45.4397 40.7012C45.4762 39.8993 45.736 39.1235 46.1897 38.4612C47.0859 37.2997 48.3714 36.5007 49.8097 36.2112C50.4597 36.0212 51.1697 36.0312 51.8097 35.8312C52.8097 35.5212 53.8097 35.4312 54.8097 35.1412C55.8739 34.965 56.8526 34.4494 57.5997 33.6712C57.7997 33.4212 57.9497 33.4712 58.1297 33.6712C58.3135 33.9232 58.5444 34.1372 58.8097 34.3012C60.0907 34.9222 61.4603 35.3406 62.8697 35.5412C64.2622 35.7743 65.6358 36.1085 66.9797 36.5412C67.9812 36.8236 68.8528 37.4466 69.4443 38.3028C70.0357 39.1589 70.31 40.1946 70.2197 41.2312C70.2299 41.3877 70.2299 41.5447 70.2197 41.7012C70.2197 42.0812 70.2997 42.2212 70.6997 42.2212C71.4955 42.1158 72.3048 42.1875 73.0697 42.4312C73.1666 42.4664 73.2728 42.4664 73.3697 42.4312C74.0819 42.1527 74.8581 42.0799 75.6097 42.2212C75.9598 42.2343 76.2909 42.3839 76.5321 42.6381C76.7732 42.8923 76.9052 43.2309 76.8997 43.5812C76.8997 44.3112 76.8997 45.0412 76.8997 45.7712C76.9188 45.9578 76.8925 46.1463 76.8228 46.3205C76.7531 46.4946 76.6422 46.6493 76.4997 46.7712C76.3132 46.9309 76.0935 47.047 75.8565 47.111C75.6195 47.175 75.3712 47.1854 75.1297 47.1412C73.9686 47.0512 72.8032 47.0311 71.6397 47.0812C70.1297 47.0812 70.4497 46.9412 70.3497 48.3412C70.1897 50.5112 70.1697 52.6812 70.0397 54.8612C69.8397 58.2212 69.5997 61.5812 69.2497 64.9312C69.0164 67.1112 68.7597 69.2846 68.4797 71.4512C68.0597 74.6212 67.4797 77.7712 66.9597 80.9212C66.4497 83.8312 65.8097 86.7112 65.1497 89.5912C64.5897 92.0012 63.9097 94.3812 63.2597 96.7612C62.8897 98.1012 62.4497 99.4212 62.0197 100.761C61.5397 102.241 61.0197 103.761 60.5297 105.181C60.36 105.577 60.2196 105.985 60.1097 106.401C59.6097 107.731 59.0397 109.041 58.5297 110.401C57.7497 112.401 56.9497 114.401 56.0097 116.331C55.8197 116.711 55.5097 117.051 55.5597 117.521C55.0097 117.811 54.8497 118.401 54.5597 118.891C53.6297 120.791 52.6797 122.681 51.6297 124.511C50.9197 125.741 50.1897 126.961 49.4597 128.171C48.6197 129.551 47.6697 130.851 46.7797 132.171C46.6897 132.311 46.6197 132.561 46.4197 132.471C46.2197 132.381 46.3597 132.161 46.4197 132.001C46.6897 130.331 46.8697 128.661 47.1197 127.001C47.3897 125.131 47.5597 123.251 47.7997 121.381C47.9997 120.311 48.0697 119.181 48.1897 118.061ZM58.2597 82.6512C59.5823 82.7447 60.9095 82.5502 62.1497 82.0812C62.3076 82.0249 62.4488 81.9298 62.5603 81.8047C62.6718 81.6795 62.7501 81.5284 62.7879 81.3651C62.8257 81.2018 62.8219 81.0316 62.7768 80.8702C62.7317 80.7087 62.6467 80.5612 62.5297 80.4412C62.4138 80.3155 62.2828 80.2047 62.1397 80.1112C61.17 79.52 60.3678 78.6903 59.8097 77.7012C59.1776 76.2171 58.9632 74.5884 59.1897 72.9912C59.2289 72.3987 59.4148 71.8253 59.7308 71.3225C60.0468 70.8198 60.4828 70.4035 60.9997 70.1112C61.2663 69.9544 61.5204 69.7772 61.7597 69.5812C63.1684 68.4798 64.3878 67.1557 65.3697 65.6612C66.3245 64.3751 66.9711 62.8868 67.2597 61.3112C67.3957 60.7609 67.3821 60.1843 67.2203 59.641C67.0586 59.0977 66.7545 58.6075 66.3397 58.2212C66.1161 58.049 65.8493 57.942 65.5687 57.912C65.2881 57.882 65.0046 57.9302 64.7497 58.0512C64.2697 58.2412 64.1997 58.7812 64.3197 59.2712C64.4397 59.7612 64.2297 59.7012 63.9197 59.6112C63.1835 59.4218 62.4293 59.3111 61.6697 59.2812C59.6755 59.0951 57.6717 59.0317 55.6697 59.0912C54.8214 59.1267 53.9763 59.2169 53.1397 59.3612C52.2997 59.5112 52.2297 59.5112 51.9397 58.7012C51.6497 57.8912 51.3597 57.7012 50.5797 58.1312C48.9597 58.9212 48.6897 59.8412 48.9597 61.4712C49.1972 62.5336 49.6131 63.5479 50.1897 64.4712C51.1518 66.1521 52.3889 67.6596 53.8497 68.9312C54.4897 69.5012 55.1697 70.0112 55.8497 70.5612C56.217 70.8394 56.5123 71.2016 56.7107 71.6174C56.909 72.0333 57.0047 72.4907 56.9897 72.9512C56.9217 73.629 56.9016 74.3107 56.9297 74.9912C57.0497 75.7157 56.9843 76.4588 56.7397 77.1512C56.2597 78.2345 55.4563 79.1427 54.4397 79.7512C53.8497 80.1212 53.2597 80.4912 53.4397 81.3512C53.4477 81.5044 53.5043 81.651 53.6015 81.7698C53.6986 81.8885 53.8311 81.9731 53.9797 82.0112C55.3503 82.5043 56.8048 82.7218 58.2597 82.6512ZM65.6597 45.6512C65.6597 44.9612 65.6597 44.2612 65.6597 43.5612C65.6597 43.3712 65.6597 43.1212 65.3497 43.1312C64.8097 43.1312 64.2697 43.1312 63.7297 43.1312C63.6334 43.1227 63.5364 43.136 63.4461 43.1703C63.3557 43.2045 63.2742 43.2588 63.2079 43.3291C63.1415 43.3993 63.0918 43.4837 63.0627 43.5759C63.0336 43.668 63.0257 43.7656 63.0397 43.8612C63.0397 44.2612 63.0397 44.6612 63.0397 45.0612C63.0397 46.3712 63.0397 46.4012 64.3597 46.3912C64.8997 46.3912 65.0597 46.5412 64.9997 47.0612C64.9997 47.3812 65.0997 47.7512 64.5497 47.7212C64.3397 47.7212 64.3597 47.9312 64.3597 48.0812C64.3541 48.1196 64.3565 48.1587 64.3668 48.196C64.3771 48.2334 64.395 48.2682 64.4194 48.2983C64.4439 48.3284 64.4743 48.3531 64.5088 48.3708C64.5432 48.3885 64.581 48.3989 64.6197 48.4012C64.7434 48.4336 64.8732 48.4359 64.998 48.4078C65.1228 48.3798 65.239 48.3222 65.337 48.2399C65.4349 48.1576 65.5117 48.0531 65.5609 47.935C65.6101 47.8169 65.6303 47.6887 65.6197 47.5612C65.6697 46.9012 65.6597 46.2612 65.6597 45.6112V45.6512ZM41.9997 45.7212C41.9997 46.4912 41.9997 47.2512 41.9997 48.0212C41.9997 48.2912 42.0997 48.3812 42.3697 48.3812C42.6397 48.3812 42.6997 48.2612 42.6897 48.0312C42.6797 47.8012 42.6897 47.7112 42.6897 47.5612C42.6897 46.4412 42.6897 46.4212 43.7997 46.3812C43.9025 46.3924 44.0066 46.3819 44.1051 46.3504C44.2037 46.3189 44.2945 46.2671 44.3718 46.1983C44.449 46.1295 44.511 46.0453 44.5537 45.951C44.5964 45.8568 44.6189 45.7547 44.6197 45.6512C44.6797 45.0093 44.6797 44.3632 44.6197 43.7212C44.6185 43.6424 44.6013 43.5647 44.5691 43.4927C44.5369 43.4208 44.4903 43.3562 44.4323 43.3029C44.3743 43.2495 44.306 43.2086 44.2316 43.1825C44.1572 43.1564 44.0783 43.1458 43.9997 43.1512C43.5197 43.1512 42.9997 43.1512 42.5497 43.0812C42.0997 43.0112 41.9497 43.2012 41.9697 43.6412C42.0497 44.3312 41.9997 44.9912 41.9997 45.7212ZM69.5497 44.7212C69.5497 45.1912 69.5497 45.5912 69.5497 45.9912C69.5497 46.2312 69.5497 46.3812 69.8797 46.3912C70.2097 46.4012 70.1897 46.2112 70.1897 45.9812V44.1912C70.1897 43.9812 70.1897 43.7812 70.4997 43.7812C70.8097 43.7812 70.8397 43.9712 70.8397 44.2112C70.8397 44.8012 70.8397 45.3912 70.8397 45.9912C70.8397 46.2412 70.9097 46.3812 71.1897 46.3812C71.4697 46.3812 71.5297 46.2312 71.5297 45.9812C71.5297 45.3712 71.5297 44.7612 71.5297 44.1512C71.5297 43.9512 71.5297 43.7812 71.8197 43.7712C72.1097 43.7612 72.1697 43.9012 72.1697 44.1512C72.1697 44.7612 72.1697 45.3712 72.1697 45.9812C72.1697 46.2312 72.1697 46.3712 72.5097 46.3712C72.8497 46.3712 72.8697 46.2312 72.8597 45.9812C72.8597 45.2612 72.8597 44.5512 72.8597 43.8412C72.8653 43.7443 72.8506 43.6472 72.8167 43.5563C72.7828 43.4653 72.7303 43.3823 72.6626 43.3128C72.5948 43.2432 72.5134 43.1884 72.4234 43.152C72.3334 43.1156 72.2367 43.0983 72.1397 43.1012C71.8297 43.1012 71.5097 43.1012 71.1997 43.1012C70.6697 43.1012 69.9797 42.8412 69.6497 43.2012C69.3197 43.5612 69.6197 44.2312 69.5797 44.7012L69.5497 44.7212ZM76.1197 44.7212V43.7812C76.1197 43.4812 75.9897 43.1812 75.6997 43.1312C75.0713 42.9863 74.4181 42.9863 73.7897 43.1312C73.7042 43.1567 73.6308 43.2123 73.583 43.2876C73.5353 43.363 73.5163 43.453 73.5297 43.5412C73.5297 43.8012 73.7497 43.7212 73.8797 43.7212H75.0797C75.2897 43.7212 75.4197 43.7712 75.4297 44.0112C75.4363 44.0587 75.4319 44.1072 75.4166 44.1527C75.4014 44.1981 75.3758 44.2395 75.3419 44.2734C75.308 44.3073 75.2666 44.3329 75.2211 44.3482C75.1756 44.3634 75.1272 44.3679 75.0797 44.3612H74.1897C74.0673 44.3485 73.9437 44.3698 73.8326 44.4227C73.7214 44.4757 73.627 44.5582 73.5597 44.6612C73.4517 44.8244 73.3906 45.0141 73.3829 45.2097C73.3752 45.4052 73.4214 45.5991 73.5162 45.7703C73.6111 45.9414 73.7511 46.0833 73.9209 46.1804C74.0908 46.2776 74.2841 46.3263 74.4797 46.3212C76.1497 46.4012 76.1497 46.4012 76.1497 44.7512L76.1197 44.7212ZM53.2297 43.1212H52.6597C52.0197 43.1212 51.8697 43.2812 51.8397 43.9212C51.8297 44.0577 51.8297 44.1947 51.8397 44.3312C51.8397 44.7912 52.0697 45.0412 52.5497 45.0412H53.3797C53.6097 45.0412 53.7997 45.1012 53.7897 45.3812C53.7797 45.6612 53.5797 45.6512 53.3797 45.6512H52.1597C51.8797 45.6512 51.8597 45.8012 51.8597 46.0112C51.8597 46.2212 51.9397 46.3812 52.1497 46.3412C52.5625 46.3111 52.9769 46.3111 53.3897 46.3412C54.3897 46.3412 54.5197 46.1512 54.4997 45.0812C54.4997 44.5712 54.1997 44.3512 53.7097 44.3512H52.8297C52.5897 44.3512 52.5197 44.2212 52.5397 44.0112C52.5597 43.8012 52.6497 43.6312 52.8597 43.7212C53.2997 43.8912 53.6997 43.5912 54.1297 43.7212C54.3197 43.7212 54.4797 43.7212 54.4797 43.4512C54.49 43.4036 54.4886 43.3541 54.4755 43.3071C54.4625 43.2601 54.4381 43.217 54.4046 43.1816C54.3711 43.1461 54.3295 43.1193 54.2833 43.1036C54.2372 43.0879 54.1879 43.0836 54.1397 43.0912L53.2297 43.1212ZM68.9097 44.7112C68.9097 44.4112 68.9097 44.1212 68.9097 43.8212C68.9322 43.6907 68.9086 43.5565 68.8429 43.4415C68.7772 43.3266 68.6735 43.2381 68.5497 43.1912C67.8991 42.9843 67.2003 42.9843 66.5497 43.1912C66.4751 43.222 66.4134 43.2777 66.3751 43.3488C66.3369 43.4199 66.3243 43.502 66.3397 43.5812C66.3397 43.8012 66.5797 43.7412 66.7197 43.7412H67.8697C68.1097 43.7412 68.1997 43.8512 68.1997 44.0912C68.1997 44.3312 68.0697 44.3812 67.8697 44.3812C67.6697 44.3812 67.2397 44.3812 66.9297 44.3812C66.4097 44.4312 66.2597 44.6312 66.2497 45.2912C66.2397 45.9512 66.3397 46.2912 66.8897 46.2912C67.4397 46.2912 67.7597 46.2912 68.1897 46.2912C68.6197 46.2912 68.9097 46.0312 68.8997 45.5412C68.9297 45.3312 68.9397 44.9912 68.9397 44.7412L68.9097 44.7112ZM55.1397 44.7112C55.1397 46.3912 55.1997 46.4412 56.6897 46.3312H56.7897C56.8337 46.3355 56.8781 46.3292 56.9193 46.3129C56.9604 46.2967 56.9972 46.2709 57.0264 46.2378C57.0557 46.2046 57.0767 46.1649 57.0877 46.1221C57.0987 46.0792 57.0994 46.0344 57.0897 45.9912C57.0897 45.7912 56.9897 45.6712 56.7697 45.6812H56.1397C55.9397 45.6812 55.8097 45.6112 55.8097 45.3812C55.8097 45.1512 55.9397 45.0812 56.1497 45.0712H56.6197C57.8197 45.0712 57.8197 45.0712 57.7397 43.8512C57.7397 43.3212 57.4897 43.1112 56.9497 43.0912H55.9497C55.3897 43.0912 55.1997 43.2812 55.1797 43.8412C55.1597 44.1512 55.1697 44.4512 55.1697 44.7412L55.1397 44.7112ZM47.9097 44.7112V43.9912C47.9097 43.3812 47.7197 43.1512 47.1297 43.1112C46.7136 43.0812 46.2958 43.0812 45.8797 43.1112C45.8053 43.1097 45.7315 43.1236 45.6628 43.152C45.594 43.1804 45.5319 43.2226 45.4803 43.2762C45.4286 43.3297 45.3886 43.3933 45.3627 43.463C45.3368 43.5327 45.3255 43.607 45.3297 43.6812C45.3297 44.0812 45.3297 44.4812 45.3297 44.8812C45.3297 46.3012 45.3797 46.4212 46.7897 46.3612C47.9697 46.3612 47.9097 46.2212 47.9397 45.2312L47.9097 44.7112ZM68.8097 47.1312C68.6784 47.0888 68.5398 47.0741 68.4026 47.0879C68.2653 47.1016 68.1324 47.1437 68.0122 47.2113C67.892 47.2789 67.7871 47.3707 67.704 47.4808C67.621 47.5909 67.5616 47.717 67.5297 47.8512C67.4087 48.0828 67.2682 48.3036 67.1097 48.5112C66.8397 48.9512 66.5797 49.4012 66.3197 49.8512C66.0597 50.3012 66.4897 50.3912 66.6397 50.5712C66.7897 50.7512 66.9497 50.4712 67.0597 50.3512C67.7597 49.5412 68.4597 48.7212 69.1397 47.8912C69.3097 47.6912 69.6597 47.4912 69.5297 47.2312C69.3997 46.9712 69.0797 47.1812 68.8397 47.1512L68.8097 47.1312ZM47.0897 47.1312C46.8497 47.1312 46.6897 47.1312 46.5397 47.1312C46.3897 47.1312 46.1997 47.1312 46.1197 47.2712C46.0397 47.4112 46.2197 47.5112 46.2997 47.6212C46.3797 47.7312 46.6497 48.0512 46.8197 48.2612C47.3497 48.9012 47.8997 49.5312 48.3897 50.2012C48.8797 50.8712 49.0197 50.1312 49.2797 50.0612C49.5397 49.9912 49.2797 49.7212 49.1897 49.5812C48.8297 48.9612 48.4097 48.3612 48.0597 47.7212C47.8497 47.3112 47.5897 46.9912 47.1197 47.1612L47.0897 47.1312ZM61.0897 44.8612C61.0897 44.7012 61.0897 44.5512 61.0897 44.3912C61.0897 44.2312 61.0897 44.0412 61.0897 43.8712C61.0897 43.3512 60.8497 43.1212 60.3297 43.1112C59.8097 43.1012 59.4297 43.1112 58.9797 43.1112C58.6897 43.1112 58.5297 43.1912 58.5297 43.5212C58.5297 44.3312 58.5297 45.1512 58.5297 45.9712C58.5297 46.1912 58.5897 46.3312 58.8497 46.3212C59.1097 46.3112 59.1497 46.1512 59.1497 45.9412V44.6412C59.1497 43.7712 59.1497 43.7912 59.9897 43.7712C60.3597 43.7712 60.4797 43.9012 60.4697 44.2512C60.4697 44.8212 60.4697 45.4012 60.4697 45.9712C60.4697 46.2112 60.4697 46.3712 60.7997 46.3712C61.1297 46.3712 61.1597 46.2412 61.1497 45.9812C61.1397 45.7212 61.0697 45.2512 61.0697 44.8912L61.0897 44.8612ZM49.2897 45.0712C49.2897 44.7812 49.2897 44.4812 49.2897 44.1912C49.2897 43.9012 49.3797 43.7112 49.7397 43.7312C50.0997 43.7512 50.4597 43.7312 50.8297 43.7312C51.1997 43.7312 51.2297 43.7312 51.2197 43.3912C51.2097 43.0512 51.0397 43.1012 50.8397 43.1012H49.2797C49.1927 43.0911 49.1046 43.1011 49.0222 43.1304C48.9397 43.1598 48.8651 43.2078 48.8042 43.2707C48.7433 43.3335 48.6976 43.4096 48.6708 43.4929C48.644 43.5762 48.6368 43.6646 48.6497 43.7512C48.6497 44.5012 48.6497 45.2512 48.6497 45.9912C48.6497 46.1812 48.6497 46.3312 48.9197 46.3312C49.1897 46.3312 49.3197 46.2512 49.3097 45.9812L49.2897 45.0712ZM61.7597 44.7012V45.9912C61.7597 46.2112 61.8597 46.2912 62.0797 46.2912C62.2997 46.2912 62.3997 46.2112 62.3997 45.9912C62.3997 45.1412 62.3997 44.2912 62.3997 43.4312C62.3997 43.2512 62.3997 43.0912 62.1197 43.0912C61.8397 43.0912 61.7697 43.2012 61.7797 43.4412L61.7597 44.7012ZM62.3597 42.2112C62.3597 41.9112 62.2397 41.7912 62.0597 41.7812C61.8797 41.7712 61.7897 41.9512 61.7897 42.1312C61.7897 42.3112 61.8497 42.4512 62.0497 42.4512C62.1146 42.4537 62.1784 42.4344 62.231 42.3963C62.2835 42.3582 62.3218 42.3036 62.3397 42.2412L62.3597 42.2112Z" fill="#FBE5D3"/>
<path d="M55.5703 117.552C55.5703 117.082 55.8303 116.742 56.0203 116.362C56.9603 114.432 57.7603 112.442 58.5403 110.432C59.0503 109.102 59.6203 107.792 60.1203 106.432C60.2302 106.015 60.3706 105.607 60.5403 105.212C60.4803 105.352 60.5403 105.452 60.6203 105.552C61.3151 107.246 62.2442 108.835 63.3803 110.272C64.1398 111.23 65.1003 112.009 66.1941 112.555C67.2879 113.101 68.4882 113.4 69.7103 113.432C71.9782 113.427 74.221 112.957 76.3003 112.052C79.0303 111.052 81.6203 109.622 84.3003 108.482C86.6503 107.482 89.0203 106.622 91.6103 107.542C91.9103 107.642 91.9203 107.472 91.9203 107.252C91.9237 106.68 91.9874 106.11 92.1103 105.552C92.5925 103.831 93.5045 102.262 94.7603 100.992C96.6303 98.7816 98.7603 96.8016 100.61 94.5616C101.883 93.1059 102.946 91.4803 103.77 89.7316C104.373 88.5272 104.674 87.1945 104.648 85.8481C104.622 84.5017 104.269 83.1817 103.62 82.0016C102.666 80.3991 101.473 78.9523 100.08 77.7116C99.0473 76.6694 97.793 75.8731 96.4103 75.3816C95.1803 74.9916 94.0003 74.4816 92.7803 73.9916C91.5603 73.5016 90.2703 72.9916 89.0003 72.4316C88.8998 72.3798 88.7884 72.3528 88.6753 72.3528C88.5623 72.3528 88.4508 72.3798 88.3503 72.4316C87.1646 72.9756 85.8749 73.2554 84.5703 73.2516C84.7236 73.1646 84.8945 73.1133 85.0703 73.1016C86.3529 72.9101 87.5537 72.3548 88.5303 71.5016C89.0578 70.9554 89.4718 70.3101 89.7481 69.6029C90.0245 68.8957 90.1578 68.1407 90.1403 67.3816C90.142 65.4698 90.0284 63.5597 89.8003 61.6616C89.6903 60.0216 89.4203 58.3416 90.5703 56.8916C90.6703 56.7616 90.7203 56.6316 90.4703 56.5516C89.4075 56.1355 88.5329 55.3462 88.0103 54.3316C87.1203 52.9616 86.4603 51.4516 85.6303 50.0416C84.4703 48.0416 83.3403 46.0416 80.7803 45.4416C81.6333 45.3773 82.4884 45.533 83.264 45.8937C84.0397 46.2543 84.7098 46.8079 85.2103 47.5016C86.1831 48.7639 87.021 50.1247 87.7103 51.5616C88.3526 52.9522 89.1583 54.2615 90.1103 55.4616C90.2803 55.6416 90.4003 55.9416 90.7503 55.8516C90.6003 56.0316 90.7503 56.0916 90.8903 56.1616C91.1365 56.3528 91.4188 56.4923 91.7203 56.5716C91.9403 56.5716 91.9803 56.6916 91.8403 56.8816C91.1396 57.8713 90.8395 59.0896 91.0003 60.2916C91.1203 62.0416 91.3103 63.7816 91.4303 65.5416C91.6471 67.1524 91.3936 68.7915 90.7003 70.2616C90.5103 70.6316 90.7003 70.7016 90.9703 70.7816L97.3803 72.4216C99.086 72.8705 100.864 72.9725 102.61 72.7216C104.479 72.483 106.287 71.8962 107.94 70.9916C109.16 70.2913 110.188 69.3005 110.933 68.1073C111.678 66.914 112.117 65.5552 112.21 64.1516C112.41 61.9137 112.37 59.6608 112.09 57.4316C111.86 55.0616 111.44 52.7116 111.32 50.3316C111.22 48.4516 111.18 46.5716 112.21 44.8716C112.43 44.5016 112.66 44.1316 112.89 43.7316C111.175 43.2797 109.687 42.2116 108.71 40.7316C107.294 38.7074 106.011 36.5929 104.87 34.4016C103.596 31.9206 102.006 29.6148 100.14 27.5416C99.0784 26.3525 97.7089 25.4796 96.1827 25.0191C94.6564 24.5586 93.0327 24.5283 91.4903 24.9316C89.8125 25.375 88.204 26.048 86.7103 26.9316C85.7364 27.4231 84.8697 28.1029 84.1603 28.9316L78.7603 35.4316C78.0703 36.2716 77.3703 37.1216 76.6503 37.9416C76.2203 38.4316 76.2003 38.4016 76.0103 37.8016C75.9603 37.6316 76.0103 37.4016 75.7203 37.3516C75.1103 37.2416 75.2803 36.9216 75.5003 36.5516C76.8903 34.2016 78.3703 31.9116 79.8603 29.6216C80.7069 28.4321 81.4592 27.1783 82.1103 25.8716C83.1599 23.3862 83.5492 20.6717 83.2403 17.9916C83.1673 16.7693 82.8146 15.5801 82.2095 14.5156C81.6045 13.4511 80.7631 12.5397 79.7503 11.8516C78.6118 11.0797 77.3694 10.4736 76.0603 10.0516C73.667 9.26611 71.2163 8.66765 68.7303 8.26156C68.2095 8.06729 67.656 7.9756 67.1003 7.99156C66.2203 7.09156 65.5303 6.04156 64.7003 5.10156C64.1535 4.57921 63.6732 3.99145 63.2703 3.35156C64.9029 3.8372 66.5766 4.17194 68.2703 4.35156C69.5303 4.47156 70.7703 4.75156 72.0203 4.89156C73.2703 5.03156 74.3603 5.14156 75.5203 5.37156C77.8205 5.73824 80.0319 6.53189 82.0403 7.71156C84.0773 8.95232 85.6404 10.8392 86.4803 13.0716C86.6172 13.3325 86.7149 13.6122 86.7703 13.9016C86.7703 14.4116 87.0203 14.3816 87.3803 14.2016C88.7195 13.4659 90.1259 12.8598 91.5803 12.3916C92.2586 12.1694 92.9666 12.0514 93.6803 12.0416C94.1003 12.0416 94.3503 12.1816 94.4303 12.5916C94.5745 13.1449 94.6649 13.7109 94.7003 14.2816C94.7003 15.0016 94.7003 15.7116 94.7003 16.4316C94.6722 17.4394 94.5585 18.443 94.3603 19.4316C94.2603 20.1116 94.3003 20.2116 94.9803 20.1916C96.63 20.1787 98.2599 20.5508 99.7407 21.2781C101.221 22.0055 102.512 23.0681 103.51 24.3816C105.161 26.4622 106.53 28.752 107.58 31.1916C108.704 33.7881 109.994 36.3099 111.44 38.7416C112.343 40.3532 113.8 41.5826 115.54 42.2016C115.767 42.2914 116.007 42.3422 116.25 42.3516C116.38 42.3516 116.56 42.3516 116.61 42.4816C116.62 42.552 116.61 42.6236 116.582 42.6888C116.554 42.754 116.508 42.8103 116.45 42.8516C115.409 43.8467 114.766 45.1868 114.64 46.6216C114.486 47.6156 114.486 48.6275 114.64 49.6216C114.79 50.6816 114.99 51.7416 115.11 52.8016C115.21 53.6416 115.48 54.4216 115.62 55.2416C115.88 56.8716 116.25 58.4716 116.46 60.1116C116.643 61.8051 116.687 63.5109 116.59 65.2116C116.503 66.5311 116.192 67.8262 115.67 69.0416C114.962 70.676 113.851 72.104 112.44 73.1916C112.06 73.5116 112.08 73.7316 112.44 74.0616C113.759 75.2986 114.879 76.7322 115.76 78.3116C116.39 79.4616 116.44 79.6816 115.12 80.3116C113.425 81.0927 111.637 81.6572 109.8 81.9916C109.541 82.0217 109.279 82.0217 109.02 81.9916C108.58 81.9916 108.46 82.1616 108.58 82.5616C108.7 82.9616 108.79 83.2616 108.9 83.6116C109.335 85.2659 109.399 86.9958 109.088 88.6777C108.777 90.3597 108.098 91.9522 107.1 93.3416C105.416 95.7092 103.448 97.8618 101.24 99.7516C99.4913 101.264 97.8412 102.887 96.3003 104.612C95.4586 105.522 94.836 106.613 94.4803 107.802C94.327 108.588 94.2732 109.391 94.3203 110.192C94.3203 110.462 94.3203 110.732 94.3203 111.062C93.8303 110.872 93.4003 110.692 92.9603 110.532C91.2902 109.984 89.4743 110.091 87.8803 110.832C85.5351 111.845 83.2571 113.007 81.0603 114.312C78.5717 115.854 75.8787 117.039 73.0603 117.832C69.6703 118.632 66.3903 118.452 63.4403 116.322C63.0403 116.032 62.8703 116.132 62.6503 116.532C61.8251 118.123 60.7668 119.583 59.5103 120.862C58.9403 121.422 58.6803 121.412 58.1103 120.862C57.163 119.839 56.3126 118.731 55.5703 117.552Z" fill="#FBE5D3"/>
<path d="M63.2695 3.37082C63.6725 4.01071 64.1528 4.59847 64.6995 5.12082C65.5295 6.06082 66.2195 7.12082 67.0995 8.01082C68.3202 9.65684 69.4325 11.3805 70.4295 13.1708C72.9617 17.6695 73.8691 22.9023 72.9995 27.9908C72.595 30.229 72.0641 32.4426 71.4095 34.6208C71.2795 35.1225 71.2795 35.6491 71.4095 36.1508C71.8046 37.865 71.8046 39.6466 71.4095 41.3608C71.35 41.0739 71.3099 40.7832 71.2895 40.4908C71.2423 39.758 71.0395 39.0436 70.6947 38.3953C70.3498 37.747 69.8708 37.1796 69.2895 36.7308C68.3034 36.0193 67.1847 35.5127 65.9995 35.2408C64.4295 34.7808 62.7995 34.5808 61.2195 34.1808C59.9795 33.8808 58.7695 33.5208 58.4495 32.0208C58.4495 31.8308 58.2895 31.7608 58.1095 31.9108C57.6544 32.2198 57.2381 32.5824 56.8695 32.9908C56.6512 33.2806 56.3666 33.5137 56.0395 33.6708C55.1068 34.088 54.1208 34.3741 53.1095 34.5208C51.4461 34.7842 49.8096 35.1958 48.2195 35.7508C47.3402 36.0466 46.5472 36.5544 45.9106 37.2294C45.274 37.9043 44.8134 38.7257 44.5695 39.6208C44.428 40.4733 44.3644 41.3368 44.3795 42.2008C44.0973 41.1527 43.9066 40.082 43.8095 39.0008C43.3297 36.2741 43.0987 33.5094 43.1195 30.7408C43.1195 30.2608 43.0395 29.7408 43.1195 29.3008C43.2395 28.3008 43.2795 27.3008 43.4595 26.3508C43.7716 24.2016 44.5057 22.1353 45.6195 20.2708C46.1562 19.3839 46.7974 18.5647 47.5295 17.8308C49.0816 16.3933 50.7545 15.0918 52.5295 13.9408C54.3832 12.7709 56.0235 11.293 57.3795 9.57082C58.4041 8.18217 59.1542 6.61072 59.5895 4.94082C60.0366 3.858 60.2447 2.69143 60.1995 1.52082C60.4695 1.24082 60.0195 0.87082 60.3295 0.59082C60.5195 0.74082 60.7195 0.87082 60.8995 1.03082C61.4695 1.51082 61.8995 2.14082 62.4995 2.60082L62.6795 2.77082L62.8495 2.91082L63.0595 3.17082L63.1995 3.30082L63.2695 3.37082Z" fill="#FBE5D3"/>
<path d="M62.46 2.59086C61.86 2.13086 61.46 1.50086 60.86 1.02086C60.68 0.860861 60.48 0.730861 60.29 0.580861C60.44 0.420861 60.5 0.580861 60.57 0.670861C61.21 1.30086 61.83 1.99086 62.46 2.59086Z" fill="#FBE5D3"/>
<path d="M62.82 2.92113L62.79 2.94113L62.81 2.91113L62.82 2.92113Z" fill="#FBE5D3"/>
<path d="M63.02 3.1709L63 3.1809H63.03L63.02 3.1709Z" fill="#FBE5D3"/>
<path d="M90.7904 55.8017C90.1904 55.1017 90.4704 54.3817 90.7904 53.6817C91.5304 52.0217 92.2804 50.3517 93.0504 48.6817C93.1896 48.3803 93.3879 48.11 93.6336 47.8867C93.8792 47.6633 94.1672 47.4916 94.4804 47.3817C94.5804 47.3817 94.6804 47.3217 94.7404 47.2217C94.9867 46.8157 95.1024 46.3438 95.072 45.8699C95.0416 45.3961 94.8665 44.9429 94.5704 44.5717C94.0805 43.8834 93.7056 43.1202 93.4604 42.3117C93.2046 41.6131 92.81 40.9736 92.3004 40.4317C92.0904 40.2117 91.7704 40.2817 91.5004 40.3117C90.7994 40.448 90.1244 40.6944 89.5004 41.0417C89.0116 41.2352 88.4832 41.3073 87.9604 41.2517C87.5604 41.2517 87.4704 40.9917 87.6004 40.6417C87.6779 40.4088 87.8087 40.1971 87.9823 40.0235C88.1559 39.85 88.3675 39.7192 88.6004 39.6417C89.4541 39.3732 90.263 38.9788 91.0004 38.4717C91.3946 38.2432 91.8236 38.081 92.2704 37.9917C92.4651 37.9445 92.6449 37.8493 92.7933 37.7148C92.9418 37.5803 93.0543 37.4108 93.1204 37.2217C93.1204 37.1117 93.1804 36.8917 93.3804 37.0117C93.5804 37.1317 93.7404 37.1117 93.8504 36.8917C93.9604 36.6717 94.1704 36.4217 93.9304 36.1717C93.6391 35.8053 93.4433 35.3723 93.3604 34.9117C93.3297 34.7384 93.2538 34.5763 93.1404 34.4417C92.8845 34.2069 92.7148 33.893 92.6586 33.5503C92.6023 33.2076 92.6629 32.8559 92.8304 32.5517C93.0562 32.1162 93.4105 31.7608 93.8452 31.5336C94.2799 31.3064 94.774 31.2184 95.2604 31.2817C95.6619 31.3353 96.0395 31.5034 96.348 31.7659C96.6566 32.0283 96.883 32.374 97.0004 32.7617C97.0553 32.9255 97.0757 33.099 97.0602 33.2711C97.0447 33.4432 96.9937 33.6103 96.9104 33.7617C96.6579 34.1969 96.5011 34.681 96.4504 35.1817C96.3918 35.5568 96.221 35.9055 95.9604 36.1817C95.5904 36.5717 95.6904 36.8617 96.2404 36.9617C96.57 37.0241 96.9049 37.0543 97.2404 37.0517C97.6091 37.0293 97.9757 37.1222 98.2893 37.3175C98.6028 37.5128 98.8479 37.8009 98.9904 38.1417C99.6043 39.2727 100.346 40.3296 101.2 41.2917C101.499 41.6325 101.867 41.9053 102.28 42.0917C103.28 42.6117 104.37 43.0917 105.39 43.6517C105.99 43.8767 106.511 44.2719 106.89 44.7888C107.268 45.3058 107.487 45.9219 107.52 46.5617C107.52 46.7417 107.62 47.0017 107.4 47.0717C107.18 47.1417 107.08 46.9017 107.01 46.7317C106.608 46.002 106.111 45.3294 105.53 44.7317C105.193 44.3971 104.759 44.1768 104.29 44.1017C102.638 43.6043 101.095 42.8003 99.7404 41.7317C99.3504 41.4117 99.0104 41.0417 98.6404 40.7317C98.5704 40.6617 98.4904 40.5617 98.3804 40.6117C98.2704 40.6617 98.2904 40.7817 98.2804 40.8817C98.2401 41.2513 98.3385 41.6227 98.5565 41.9239C98.7746 42.2251 99.0967 42.4345 99.4604 42.5117C99.7604 42.5717 99.8804 42.6717 99.8504 42.9717C99.8403 43.0675 99.865 43.1637 99.9201 43.2427C99.9752 43.3217 100.057 43.3781 100.15 43.4017C100.38 43.4817 100.6 43.5817 100.83 43.6817C101.297 43.8824 101.698 44.2118 101.984 44.6315C102.271 45.0511 102.433 45.5437 102.45 46.0517C102.445 46.5225 102.526 46.9904 102.69 47.4317C102.85 47.8775 102.881 48.3591 102.78 48.8217C102.652 49.4387 102.679 50.078 102.86 50.6817C103.014 51.1763 103.067 51.6968 103.015 52.2122C102.964 52.7276 102.809 53.2273 102.56 53.6817C102.33 54.1312 102.129 54.5956 101.96 55.0717C101.604 56.136 101.055 57.1258 100.34 57.9917C99.9204 58.4517 99.9804 58.5917 100.44 58.6917C101.27 58.8517 101.33 58.9117 101.1 59.7517C100.934 60.3534 100.887 60.9818 100.96 61.6017C101.04 62.3017 100.84 62.4917 100.14 62.4317L99.6204 62.3617C99.6204 62.3617 99.6204 62.2717 99.6204 62.2617C100.26 61.7317 100.2 61.7517 99.9204 60.9717C99.6274 60.2851 99.089 59.7325 98.4104 59.4217C98.3104 59.3617 98.1804 59.2917 98.0804 59.4217C97.9804 59.5517 98.0804 59.6117 98.1404 59.7017C98.2142 59.7742 98.268 59.8647 98.2965 59.9642C98.325 60.0637 98.3273 60.1689 98.3032 60.2695C98.279 60.3702 98.2292 60.4629 98.1587 60.5386C98.0881 60.6143 97.9991 60.6705 97.9004 60.7017C97.3704 61.0217 97.3404 61.4317 97.7904 61.8917C97.9704 62.0917 98.3704 62.2217 98.2604 62.5117C98.1504 62.8017 97.7404 62.6517 97.4704 62.6717C97.2974 62.6827 97.1242 62.6538 96.9642 62.5873C96.8042 62.5207 96.6616 62.4181 96.5475 62.2876C96.4335 62.1571 96.3509 62.0021 96.3063 61.8346C96.2618 61.6671 96.2563 61.4916 96.2904 61.3217C96.3182 60.9889 96.3182 60.6544 96.2904 60.3217C96.2243 59.8011 96.3603 59.275 96.6704 58.8517C96.9704 58.4817 96.8304 58.1117 96.4004 57.8517C95.9704 57.5917 95.3404 57.2717 94.8204 56.9517C94.3831 56.6937 94.0183 56.329 93.7604 55.8917C93.4804 55.4217 93.3704 55.4417 93.0204 55.8917C92.9383 56.0016 92.8481 56.1053 92.7504 56.2017C92.3204 56.5917 92.1704 56.5917 91.8604 56.1217C91.8175 56.0362 91.746 55.9684 91.6583 55.93C91.5707 55.8917 91.4723 55.8852 91.3804 55.9117C91.163 55.9748 90.9294 55.9497 90.7304 55.8417L90.7904 55.8017Z" fill="#FBE5D3"/>
<path d="M80.8601 80.4214L78.1701 82.5414C75.3805 84.7303 72.71 87.067 70.1701 89.5414C69.7701 89.9314 69.3402 89.6914 68.8302 89.7214C69.2092 89.228 69.6456 88.7816 70.1301 88.3914C72.7747 85.9209 75.5415 83.5846 78.4201 81.3914C80.1201 80.0614 81.8401 78.7614 83.5601 77.4614C83.8401 77.2514 83.8801 77.0914 83.6401 76.8014C82.6783 75.6348 81.4213 74.7474 80.0001 74.2314C78.2501 73.5614 76.5601 72.7514 74.8101 71.9814C74.9401 71.7214 75.3401 71.6614 75.2001 71.2914C75.2001 71.2014 75.3102 71.1914 75.4002 71.2014C75.5523 71.2286 75.7026 71.2653 75.8501 71.3114C76.0401 71.3714 76.3302 71.3114 76.4002 71.5314C76.4702 71.7514 76.1101 71.7414 76.0601 71.9914L78.8601 73.2214L81.6902 74.4314C81.8902 74.5214 82.0802 74.6714 82.3302 74.5214C82.4202 74.5214 82.5401 74.5214 82.6101 74.6214C83.3601 75.3614 84.2301 75.9714 84.9201 76.7814C85.1601 77.0714 85.1101 77.2114 84.8401 77.4014C84.3601 77.7414 83.9101 78.1214 83.4201 78.4014C83.3629 78.4308 83.3122 78.4714 83.271 78.5208C83.2298 78.5702 83.199 78.6274 83.1803 78.689C83.1617 78.7506 83.1556 78.8153 83.1624 78.8792C83.1693 78.9432 83.1889 79.0051 83.2201 79.0614C83.7812 80.4854 84.4847 81.849 85.3201 83.1314C86.3485 84.6617 87.21 86.2977 87.8901 88.0114C88.5258 89.8599 88.4145 91.8836 87.5802 93.6514C86.7958 95.5133 85.6659 97.2099 84.2501 98.6514C84.1916 98.7132 84.1281 98.7701 84.0601 98.8214C83.9901 98.8814 83.9301 98.9614 83.8401 98.8814C83.7501 98.8014 83.8401 98.7114 83.8401 98.6414C83.9901 98.4214 84.1301 98.2014 84.2901 98.0014C85.3086 96.7523 85.9261 95.2248 86.0617 93.6189C86.1974 92.0129 85.8448 90.4035 85.0502 89.0014C84.749 88.3983 84.3042 87.8786 83.7549 87.488C83.2056 87.0973 82.5686 86.8478 81.9002 86.7614C81.3902 86.7614 81.1701 86.8814 81.0601 87.4014C80.7101 89.1814 80.6101 90.9914 80.3501 92.7814C79.8901 95.8514 79.6501 98.9614 78.9301 102.001C78.6258 103.385 77.8561 104.622 76.7496 105.507C75.6431 106.391 74.2667 106.869 72.8501 106.861C72.1763 106.911 71.499 106.84 70.8501 106.651C70.3794 106.52 69.9441 106.285 69.5764 105.963C69.2087 105.641 68.9182 105.241 68.7261 104.792C68.5341 104.342 68.4455 103.856 68.467 103.367C68.4885 102.879 68.6194 102.402 68.8501 101.971C69.6344 100.526 70.9566 99.4484 72.5301 98.9714C73.9447 98.4489 75.4933 98.4137 76.9301 98.8714C78.3801 99.2614 78.1402 99.4614 78.4102 97.9714C79.1802 93.7714 79.7702 89.5314 80.3302 85.2914C80.5202 83.8614 80.7301 82.4414 80.9201 81.0114C80.9201 80.8414 80.9201 80.6714 80.9201 80.5014L80.8601 80.4214Z" fill="#FBE5D3"/>
<path d="M22.0496 31.8311C22.1281 31.9226 22.1953 32.0234 22.2496 32.1311C22.7696 33.3511 22.8896 33.1311 23.9696 32.8411C24.7212 32.5736 25.4939 32.3696 26.2796 32.2311C26.652 32.2075 27.0243 32.2786 27.3617 32.4377C27.6992 32.5968 27.9909 32.8388 28.2096 33.1411C28.4745 33.4898 28.7024 33.8651 28.8896 34.2611C29.0958 34.6243 29.3744 34.9413 29.7081 35.1924C30.0418 35.4436 30.4235 35.6235 30.8296 35.7211C30.9572 35.7773 31.1003 35.7882 31.235 35.7518C31.3696 35.7154 31.4877 35.634 31.5696 35.5211C31.8296 35.1911 32.0996 34.8711 32.3696 34.5211C32.5013 34.345 32.691 34.2214 32.9052 34.1719C33.1194 34.1225 33.3442 34.1505 33.5396 34.2511C33.9975 34.4253 34.4133 34.6946 34.7596 35.0411C34.9226 35.2574 35.0243 35.5136 35.0542 35.7828C35.0842 36.0519 35.0411 36.3242 34.9296 36.5711C34.8169 37.0745 34.6016 37.5492 34.297 37.9656C33.9924 38.382 33.6052 38.7311 33.1596 38.9911C32.7685 39.2549 32.4721 39.637 32.3137 40.0814C32.1554 40.5259 32.1434 41.0093 32.2796 41.4611C32.3696 41.7211 32.5696 41.6711 32.7496 41.6711C33.5486 41.6404 34.3441 41.5502 35.1296 41.4011C35.5241 41.3417 35.9252 41.3417 36.3196 41.4011C36.5196 41.4011 36.5996 41.5311 36.5896 41.7011C36.5548 42.0228 36.4013 42.3199 36.159 42.5344C35.9167 42.749 35.6032 42.8654 35.2796 42.8611C34.219 42.8456 33.1589 42.9159 32.1096 43.0711C30.5896 43.2611 30.4696 43.1311 30.4996 41.6511C30.4996 41.2511 30.4996 40.8511 30.4996 40.4511C30.4996 40.0511 30.3596 40.0311 30.0596 40.0911C29.0596 40.2911 27.9796 40.5011 26.9396 40.6911C26.8648 40.7044 26.7948 40.7373 26.7368 40.7865C26.6789 40.8357 26.635 40.8994 26.6096 40.9711C26.3 41.4742 26.1197 42.0462 26.0848 42.6359C26.0499 43.2257 26.1615 43.8149 26.4096 44.3511C26.8588 45.4278 27.155 46.5622 27.2896 47.7211C27.4296 48.5411 27.3696 48.6211 26.6096 48.9111C25.7925 49.2113 24.9301 49.3702 24.0596 49.3811C23.4496 49.3811 22.8396 49.3811 22.2396 49.4811C21.7019 49.5035 21.1877 49.7076 20.7809 50.0599C20.374 50.4122 20.0987 50.8921 19.9996 51.4211C19.8896 51.8011 19.8196 52.2011 19.7196 52.5911C19.6196 52.9811 19.4596 53.0911 19.0896 52.8111C18.8869 52.6693 18.7304 52.4711 18.6396 52.2411C18.5596 52.0111 18.5096 51.7811 18.4196 51.5511C18.3296 51.3211 18.3096 50.8511 17.9996 50.8511C17.6896 50.8511 17.6996 51.2711 17.5996 51.5211C17.48 51.8711 17.48 52.251 17.5996 52.6011C17.8396 53.5111 17.6596 53.7811 16.6996 53.9611C15.9713 54.031 15.238 54.031 14.5096 53.9611C13.2796 53.9611 12.0396 53.9011 10.8096 53.8911C10.6311 53.9152 10.4496 53.8792 10.2938 53.7886C10.1381 53.6981 10.017 53.5582 9.94963 53.3911C9.57467 52.7071 9.2794 51.9823 9.06963 51.2311C9.01963 50.9511 9.06963 50.8211 9.36963 50.8411H9.41963C10.4196 50.6911 11.1796 50.8411 11.4196 52.0011C11.5596 52.6011 11.9696 52.8211 12.6096 52.7811C13.357 52.7594 14.105 52.7828 14.8496 52.8511C15.1796 52.8511 15.2696 52.7611 15.1196 52.4611C15.0496 52.3411 14.9996 52.2111 14.9296 52.0911C14.6496 51.6311 14.4896 51.2011 15.1796 50.9511C15.3796 50.8711 15.3396 50.6611 15.3596 50.5011C15.3556 50.3566 15.3801 50.2127 15.4318 50.0778C15.4834 49.9428 15.5611 49.8193 15.6605 49.7143C15.7598 49.6094 15.8789 49.5251 16.0109 49.4662C16.1429 49.4073 16.2852 49.3749 16.4296 49.3711C17.1477 49.2573 17.8312 48.984 18.4296 48.5711C19.0956 48.0991 19.8222 47.719 20.5896 47.4411C21.5896 47.0711 21.5896 47.0611 21.5896 46.0211C21.6946 44.8067 21.6946 43.5855 21.5896 42.3711C21.5718 42.182 21.5383 41.9946 21.4896 41.8111C21.3489 41.3744 21.3494 40.9045 21.4913 40.4682C21.6331 40.0319 21.909 39.6514 22.2796 39.3811C23.7388 38.0872 25.3548 36.9819 27.0896 36.0911C27.3796 35.9411 27.4196 35.8011 27.2496 35.5411C27.1436 35.3689 27.0597 35.1841 26.9996 34.9911C26.7296 34.0611 25.9996 33.9311 25.2096 33.9911C24.3213 34.1507 23.4219 34.241 22.5196 34.2611C21.5896 34.2111 21.1696 33.6011 21.5196 32.7411C21.6796 32.4811 21.8496 32.2011 22.0496 31.8311Z" fill="#FBE5D3"/>
<path d="M33.9997 98.6009C34.6004 98.9567 35.256 99.2102 35.9397 99.3509C36.0797 99.3509 36.2897 99.3509 36.2697 99.5809C36.2497 99.8109 36.0397 99.8109 35.8797 99.8009C34.8297 99.8009 33.7897 99.8009 32.7397 99.7409C32.3897 99.7409 32.2997 99.5709 32.3097 99.2009C32.2849 98.0774 31.9899 96.9764 31.4497 95.9909C31.4089 95.9227 31.3538 95.8642 31.2882 95.8193C31.2226 95.7744 31.1481 95.7442 31.0697 95.7309C29.9104 95.307 28.7202 94.9727 27.5097 94.7309C27.1497 94.6609 26.9097 94.7309 26.8997 95.1709C26.8997 95.4009 26.8197 95.6209 26.7997 95.8409C26.7797 96.0609 26.6897 96.3709 26.2497 96.3009C25.8097 96.2309 25.9997 95.9909 25.9997 95.7009C26.0096 95.6146 26.0096 95.5273 25.9997 95.4409C25.9997 95.2209 26.2197 94.9309 25.9997 94.8109C25.7797 94.6909 25.5097 94.9109 25.3097 95.0609C24.3097 95.8009 23.4297 96.6109 22.4097 97.2709C22.1797 97.4209 22.0397 97.4709 21.8497 97.2709C21.3297 96.6809 20.8497 96.1009 20.2797 95.5309C20.1297 95.3709 20.1697 95.2709 20.2797 95.1309C20.9697 94.2409 21.5397 93.2609 22.1697 92.3309C22.3508 91.9364 22.5012 91.5285 22.6197 91.1109C22.7144 90.8527 22.8897 90.6318 23.1197 90.4809C23.3797 90.3309 23.6297 90.0709 23.2497 89.7509C23.172 89.6677 23.1152 89.5671 23.0839 89.4576C23.0526 89.3481 23.0477 89.2327 23.0697 89.1209C23.0697 88.6609 22.8997 88.3909 22.3897 88.4309C22.1697 88.4309 21.9397 88.4309 21.7197 88.4309C21.5279 88.4957 21.3209 88.5006 21.1262 88.4452C20.9315 88.3897 20.7582 88.2765 20.6292 88.1204C20.5002 87.9644 20.4217 87.7728 20.4039 87.5712C20.3861 87.3695 20.43 87.1672 20.5297 86.9909C20.7175 86.2811 21.1232 85.6481 21.6897 85.1809C22.1097 84.9209 22.0897 84.4009 22.3897 84.0609C22.6101 83.7952 22.8738 83.5687 23.1697 83.3909C23.6197 83.1309 23.6597 82.6609 23.9197 82.3109C24.0197 82.1809 23.9197 82.0409 23.9197 81.9209C23.7788 81.4684 23.7412 80.99 23.8097 80.5209C23.8375 80.2393 23.9607 79.9757 24.159 79.7737C24.3573 79.5718 24.6186 79.4438 24.8997 79.4109C25.2283 79.3662 25.5628 79.4192 25.8616 79.5632C26.1603 79.7072 26.41 79.936 26.5797 80.2209C26.9448 81.1151 26.9448 82.1168 26.5797 83.0109C26.565 83.0715 26.5339 83.1269 26.4898 83.171C26.4457 83.2151 26.3903 83.2462 26.3297 83.2609C26.1897 83.2609 26.0597 83.3609 26.0897 83.5409C26.1197 83.7209 26.2797 83.6409 26.3797 83.6909C27.3692 84.1048 28.4625 84.2027 29.5097 83.9709C31.2997 83.5909 33.0697 84.0709 34.8397 83.8909C35.1354 83.8561 35.4341 83.8561 35.7297 83.8909C36.4397 83.9809 36.5697 84.1609 36.4997 84.8909C36.5015 84.9763 36.4784 85.0603 36.4333 85.1327C36.3882 85.2052 36.3229 85.2629 36.2456 85.299C36.1682 85.335 36.082 85.3478 35.9975 85.3357C35.913 85.3236 35.8339 85.2872 35.7697 85.2309C35.4871 84.9587 35.1204 84.7907 34.7297 84.7543C34.3391 84.718 33.9476 84.8155 33.6197 85.0309C32.9981 85.4269 32.2644 85.6094 31.5297 85.5509C31.2597 85.5509 31.0897 85.5509 31.0197 85.9109C30.9497 86.2709 30.4997 86.3309 30.2097 86.2409C29.2697 85.9509 28.5497 86.6609 27.6997 86.7409C27.5397 86.7409 27.5097 86.9409 27.5197 87.1209C27.5197 88.1209 27.6097 89.1209 27.5897 90.0509C27.5897 90.4709 27.7097 90.5809 28.1097 90.6809C29.5097 91.0009 30.9197 91.2709 32.2897 91.6809C32.5181 91.7425 32.7283 91.8583 32.9024 92.0185C33.0765 92.1786 33.2094 92.3785 33.2897 92.6009C33.8597 94.2209 34.4197 95.8509 34.9897 97.4709C35.0997 97.761 34.9897 97.9209 34.7297 98.0609C34.4442 98.1756 34.1929 98.3615 33.9997 98.6009Z" fill="#FBE5D3"/>
<path d="M41.5303 72.8908C40.4403 73.3508 39.4303 73.7708 38.4103 74.1808C37.3903 74.5908 36.0503 75.1108 34.8803 75.6008C33.9476 76.1026 33.1221 76.7821 32.4503 77.6008C32.2303 77.8208 32.4503 77.9508 32.6203 78.0508C34.0603 79.2108 35.5103 80.3508 36.9403 81.5108C39.0003 83.2108 41.0603 84.9908 43.0503 86.7308C44.2803 87.8308 45.4503 89.0008 46.6303 90.1508C46.7503 90.2708 46.9703 90.3808 46.9403 90.5508C46.9103 90.7208 46.6503 90.6508 46.5003 90.7208C46.3475 90.784 46.1776 90.7926 46.0191 90.7453C45.8607 90.6979 45.7234 90.5975 45.6303 90.4608C43.1665 87.9351 40.5553 85.5576 37.8103 83.3408C35.7169 81.6342 33.6236 79.9342 31.5303 78.2408C31.2503 78.0208 31.2303 77.8808 31.4803 77.5908C32.4632 76.5028 33.71 75.6866 35.1003 75.2208C36.7403 74.6108 38.3603 73.9208 39.9903 73.2208C40.2903 73.1008 40.5003 73.0108 40.1003 72.7408C40.0602 72.721 40.0265 72.6903 40.003 72.6523C39.9794 72.6143 39.9669 72.5705 39.9669 72.5258C39.9669 72.4811 39.9794 72.4373 40.003 72.3993C40.0265 72.3613 40.0602 72.3307 40.1003 72.3108C40.3767 72.213 40.6611 72.1394 40.9503 72.0908C41.0203 72.0908 41.1103 72.0908 41.0903 72.2008C41.0003 72.5608 41.2903 72.6708 41.5303 72.8908Z" fill="#FBE5D3"/>
<path d="M62.5801 67.731C62.6656 67.1049 62.8233 66.4908 63.0501 65.901C63.4433 64.5146 63.6847 63.0896 63.7701 61.651C63.757 61.4362 63.8044 61.2221 63.9069 61.033C64.0095 60.8438 64.163 60.6872 64.3501 60.581C64.5611 60.4766 64.7428 60.3215 64.879 60.1295C65.0151 59.9375 65.1014 59.7146 65.1301 59.481C65.2001 58.961 65.4601 58.901 65.9001 59.181C66.2093 59.4012 66.4434 59.7113 66.5704 60.0691C66.6974 60.4268 66.7113 60.8151 66.6101 61.181C66.4032 62.5908 65.85 63.9273 65.0001 65.071C64.451 65.8893 63.8284 66.6558 63.1401 67.361C63.0016 67.5452 62.8038 67.6759 62.5801 67.731Z" fill="#FBE5D3"/>
<path d="M53.4696 67.7112C52.9379 67.3228 52.4806 66.8418 52.1196 66.2912C51.0957 65.1216 50.3109 63.7626 49.8096 62.2912C49.5267 61.58 49.4538 60.8026 49.5996 60.0512C49.6548 59.8128 49.7643 59.5904 49.9196 59.4012C50.0117 59.2752 50.132 59.1724 50.2709 59.1012C50.4098 59.0301 50.5635 58.9924 50.7196 58.9912C51.0896 58.9912 50.9996 59.3912 51.0596 59.6212C51.2063 60.0563 51.519 60.4157 51.9296 60.6212C52.0652 60.6983 52.1776 60.8105 52.255 60.9459C52.3325 61.0814 52.372 61.2352 52.3696 61.3912C52.4578 63.0852 52.743 64.7632 53.2196 66.3912C53.4526 66.7892 53.5409 67.2555 53.4696 67.7112Z" fill="#FBE5D3"/>
<path d="M65 44.7708C64.9951 44.8039 64.9951 44.8376 65 44.8708C65 45.7008 64.68 45.8708 63.87 45.6808C63.66 45.6208 63.67 45.4708 63.67 45.3208C63.67 44.9208 63.67 44.5208 63.67 44.1308C63.67 43.7408 63.73 43.8008 63.98 43.7808C65 43.7008 65 43.6908 65 44.7708Z" fill="#FBE5D3"/>
<path d="M42.72 44.6915V44.5915C42.72 43.7915 42.98 43.5915 43.77 43.7815C43.98 43.8315 44 43.9615 44 44.1215C44 44.2815 44 44.6815 44 44.9515C44 45.7215 44 45.6915 43.23 45.7115C42.8 45.7115 42.67 45.5415 42.71 45.1615C42.71 45.0015 42.71 44.8515 42.71 44.6915H42.72Z" fill="#FBE5D3"/>
<path d="M74.8299 45.071H75.1999C75.4399 45.071 75.4799 45.221 75.4899 45.411C75.4999 45.601 75.4299 45.741 75.1999 45.741H74.6299C74.3899 45.741 74.1699 45.741 74.1699 45.401C74.1699 45.061 74.3799 45.041 74.6199 45.061H74.8299V45.071Z" fill="#FBE5D3"/>
<path d="M67.6297 45.7014C67.3397 45.7014 67.0697 45.8314 66.9297 45.5514C66.8697 45.4314 66.8597 45.1814 67.0097 45.1314C67.391 45.0148 67.7984 45.0148 68.1797 45.1314C68.3297 45.1314 68.3297 45.4314 68.2697 45.5514C68.1197 45.8814 67.7997 45.6014 67.6297 45.7014Z" fill="#FBE5D3"/>
<path d="M56.5096 43.7713C56.7096 43.8413 56.9796 43.6413 57.1096 43.9213C57.2396 44.2013 57.1796 44.3213 56.9996 44.3713C56.6359 44.4912 56.2433 44.4912 55.8796 44.3713C55.7096 44.3013 55.7496 44.0313 55.8796 43.9013C56.0096 43.7713 56.2796 43.8213 56.5096 43.7713Z" fill="#FBE5D3"/>
<path d="M45.9995 44.681C46.0095 44.5779 46.0095 44.4741 45.9995 44.371C45.8995 43.861 46.1295 43.731 46.6195 43.751C47.3495 43.751 47.3495 43.751 47.3495 44.501C47.3495 44.611 47.3495 44.711 47.3495 44.811C47.3495 45.811 47.3495 45.731 46.4495 45.701C46.0695 45.701 45.9595 45.551 45.9995 45.201C46.0096 45.0278 46.0096 44.8541 45.9995 44.681Z" fill="#FBE5D3"/>
</svg>
