<svg width="779" height="1081" viewBox="0 0 779 1081" fill="none" xmlns="http://www.w3.org/2000/svg">
<g clip-path="url(#clip0)">
<path opacity="0.1" d="M778.92 210.76V69.29C686.18 89.13 568 107.42 450.26 106.38C197.44 104.15 7.23 18 7.23 18L0 53.51C0 53.51 47.21 68.51 113.85 86.89C58.29 76.27 19.26 68.14 19.26 68.14V135.58C19.26 135.58 90.4 147.43 179.93 160.31V208.38C179.93 208.38 236.43 212.75 303.93 217.06V368H79.09V405.17H184.69C183.24 512.86 176 1295.74 176 1302.2L220.85 1309.37V405.13H778.95V368H710.58V214.89C736.76 213.35 760.54 211.89 778.92 210.76ZM424.1 368H339.22V219.24C368.04 220.95 397.39 222.53 424.1 223.65V368ZM675.26 368H586.26V221.78C614.69 220.35 645.6 218.65 675.26 216.95V368Z" fill="#FBE5D3"/>
</g>
<defs>
<clipPath id="clip0">
<rect width="779" height="1081" fill="white"/>
</clipPath>
</defs>
</svg>
