<svg width="31" height="341" viewBox="0 0 31 341" fill="none" xmlns="http://www.w3.org/2000/svg">
<g clip-path="url(#clip0)">
<path d="M19.7824 26.2361C21.9979 26.1915 24.2097 26.0319 26.4087 25.758C26.4087 26.4563 26.477 27.3367 26.5377 28.035C24.458 28.2552 21.3004 28.3766 20.0101 28.3766H12.0783C7.31916 28.3766 5.01172 26.2969 5.01172 21.7883V3.38945L8.10855 3.57921C8.04023 3.898 7.82012 4.08776 7.25085 4.14848V14.4333C12.6295 12.7813 17.864 10.692 22.902 8.1865L24.5111 10.3649C24.3947 10.4278 24.2639 10.4592 24.1316 10.456C23.9803 10.455 23.8307 10.424 23.6914 10.3649C18.3658 12.8248 12.8717 14.9022 7.25085 16.5813V21.849C7.25085 25.0369 8.7689 26.2361 12.0479 26.2361H19.7824ZM22.7122 2.48621C24.1955 3.86572 25.5056 5.42048 26.6136 7.11627L25.4143 8.0271C24.3105 6.34111 23.0195 4.78535 21.5661 3.38945L22.7122 2.48621ZM26.6136 0.581055C28.0917 1.96136 29.4059 3.50731 30.5302 5.18834L29.3082 6.10677C28.1943 4.43747 26.9041 2.89282 25.4599 1.49948L26.6136 0.581055Z" fill="#FBE5D3" stroke="#FBE5D3" stroke-width="0.75" stroke-miterlimit="10"/>
<path d="M2.90191 42.5699C5.81721 43.2342 8.65968 44.185 11.3878 45.4087L10.439 47.3974C7.71195 46.1559 4.86972 45.1847 1.95312 44.4979L2.90191 42.5699ZM4.79188 58.001C14.9173 54.5929 22.0597 49.0369 26.2496 39.6781C26.862 40.1875 27.5032 40.6614 28.1699 41.0974C23.9421 50.4031 16.4657 56.3311 6.91716 59.7088C6.93959 59.8556 6.91847 60.0057 6.85641 60.1406C6.79435 60.2756 6.69407 60.3893 6.568 60.4678L4.79188 58.001ZM6.37066 34.7444C9.27602 35.522 12.1059 36.5584 14.8262 37.8412L13.7863 39.7615C11.1036 38.4527 8.30944 37.3858 5.43706 36.5736L6.37066 34.7444ZM21.1337 33.7045C22.676 35.0454 24.043 36.5755 25.2021 38.2587L23.9725 39.1695C22.8145 37.4922 21.4728 35.9494 19.9724 34.5698L21.1337 33.7045ZM25.5209 31.7842C27.0482 33.1492 28.4225 34.6762 29.6196 36.3383L28.39 37.2568C27.2209 35.5997 25.8773 34.0729 24.3824 32.7026L25.5209 31.7842Z" fill="#FBE5D3" stroke="#FBE5D3" stroke-width="0.75" stroke-miterlimit="10"/>
<path d="M28.6482 79.5422V81.3715H7.16016V79.5422H20.0029C20.5038 76.324 21.3539 70.0772 21.6727 66.8285H9.6194V64.9993H22.3027L22.6519 64.9082L24.2307 65.6672C24.188 65.7427 24.1291 65.8077 24.0582 65.8576C23.9873 65.9075 23.9062 65.941 23.8208 65.9557C23.4109 69.2802 22.4318 76.1114 21.8929 79.5422H28.6482Z" fill="#FBE5D3" stroke="#FBE5D3" stroke-width="0.75" stroke-miterlimit="10"/>
<path d="M28.2995 89.8877C28.1957 90.0236 28.0526 90.1243 27.8896 90.1762C26.2224 94.0802 23.6615 97.5381 20.4132 100.271C19.807 99.7869 19.1622 99.3528 18.4853 98.9733C21.2408 96.9772 23.4088 94.277 24.7625 91.1553H2.17383V89.0149H25.9617L26.3109 88.8555L28.2995 89.8877ZM15.9881 95.6336C15.9881 95.8841 15.6693 96.1042 15.2291 96.1725C14.3183 103.611 11.7603 110.715 5.26307 114.465C4.68048 113.933 4.05607 113.448 3.39586 113.015C9.87036 109.509 12.193 102.89 12.952 95.2844L15.9881 95.6336Z" fill="#FBE5D3" stroke="#FBE5D3" stroke-width="0.75" stroke-miterlimit="10"/>
<path d="M8.86079 123.172C8.86079 123.46 8.54959 123.642 8.13971 123.711C7.94995 132.197 7.25165 139.924 2.39388 145.571C1.78849 145.15 1.15726 144.767 0.503906 144.425C5.20228 139.316 5.77155 131.43 5.87022 122.944L8.86079 123.172ZM17.0355 141.389C22.3031 138.838 25.7112 134.231 27.5404 128.705C28.153 129.176 28.8087 129.588 29.4987 129.935C28.4737 133.087 26.7944 135.987 24.5707 138.444C22.3471 140.902 19.6292 142.863 16.5953 144.197C16.487 144.459 16.2983 144.679 16.0564 144.827L14.47 142.732L14.8191 142.261V119.104L17.749 119.263C17.7147 119.424 17.6287 119.57 17.5041 119.678C17.3795 119.787 17.2229 119.851 17.0583 119.863L17.0355 141.389Z" fill="#FBE5D3" stroke="#FBE5D3" stroke-width="0.75" stroke-miterlimit="10"/>
<path d="M26.8494 164.341C26.8016 164.489 26.712 164.621 26.5913 164.72C26.1511 173.828 25.2706 179.483 24.041 181.722C23.6507 182.466 23.0505 183.078 22.315 183.483C21.5795 183.888 20.7411 184.067 19.9043 183.999C18.0129 183.917 16.1329 183.663 14.2875 183.24C14.3026 182.503 14.2722 181.765 14.1964 181.032C16.0133 181.428 17.8582 181.681 19.7145 181.791C20.2224 181.849 20.7352 181.735 21.1703 181.466C21.6054 181.198 21.9374 180.791 22.113 180.311C23.0922 178.421 23.8512 173.153 24.1624 166.048H14.0977C12.4886 173.593 9.36899 179.772 3.69147 184.098C3.13082 183.578 2.52925 183.103 1.89258 182.679C7.31962 178.61 10.1887 173.244 11.7599 165.98H3.02353V163.931H12.1318C12.5215 161.643 12.775 159.334 12.8909 157.016L16.0181 157.304C16.0181 157.616 15.6689 157.805 15.259 157.874C15.0693 160.151 14.8795 161.942 14.5 163.946H24.762L25.2402 163.756L26.8494 164.341ZM21.5362 156.75C23.073 158.185 24.4107 159.818 25.5135 161.608L24.2535 162.489C23.1293 160.722 21.816 159.083 20.3369 157.6L21.5362 156.75ZM26.4623 155.361C27.9716 156.818 29.3157 158.437 30.4699 160.189L29.172 161.069C28.0496 159.333 26.7498 157.717 25.2934 156.249L26.4623 155.361Z" fill="#FBE5D3" stroke="#FBE5D3" stroke-width="0.75" stroke-miterlimit="10"/>
<path d="M27.1307 190.398C27.0555 190.482 26.9627 190.548 26.859 190.591C26.7553 190.634 26.6433 190.654 26.5311 190.649C26.4252 190.662 26.3181 190.662 26.2123 190.649C23.4128 193.386 20.4085 195.906 17.2254 198.186C17.4759 198.284 17.8554 198.467 17.9844 198.535C17.9135 198.658 17.8118 198.76 17.6894 198.832C17.567 198.904 17.428 198.943 17.2861 198.945V215.886H15.009V199.636C11.1812 202.286 7.15395 204.636 2.96328 206.664C2.57934 206.046 2.13708 205.467 1.64258 204.934C10.2499 200.956 19.6846 194.209 24.7625 188.622L27.1307 190.398Z" fill="#FBE5D3" stroke="#FBE5D3" stroke-width="0.75" stroke-miterlimit="10"/>
<path d="M23.8818 236.426C20.2851 234.513 16.5884 232.796 12.8076 231.28V247.022H10.4395V219.606L13.6274 219.795C13.6274 220.145 13.3465 220.365 12.8076 220.456V229.731L13.2782 229.04C17.334 230.559 21.2956 232.318 25.1418 234.308L23.8818 236.426ZM20.5421 221.564C22.1666 222.936 23.6261 224.493 24.8913 226.202L23.7224 227.158C22.4776 225.476 21.0381 223.947 19.4339 222.604L20.5421 221.564ZM24.7623 218.847C26.3826 220.205 27.8351 221.752 29.0887 223.454L27.9502 224.433C26.6793 222.747 25.2314 221.203 23.6313 219.826L24.7623 218.847Z" fill="#FBE5D3" stroke="#FBE5D3" stroke-width="0.75" stroke-miterlimit="10"/>
<path d="M26.7814 261.405C26.6865 261.557 26.5414 261.669 26.3716 261.724C23.7833 271.25 18.5156 275.888 9.08854 278.506C8.7205 277.846 8.27455 277.231 7.76024 276.677C16.3372 274.529 21.6732 270.111 23.6998 262.794H2.77344V260.646H24.6106L24.9218 260.457L26.7814 261.405ZM23.8212 254.658H5.83231V252.57H23.8212V254.658Z" fill="#FBE5D3" stroke="#FBE5D3" stroke-width="0.75" stroke-miterlimit="10"/>
<path d="M27.1307 283.774C27.0555 283.857 26.9627 283.923 26.859 283.966C26.7553 284.01 26.6433 284.029 26.5311 284.024C26.4252 284.038 26.3181 284.038 26.2123 284.024C23.4128 286.762 20.4085 289.281 17.2254 291.561C17.4759 291.66 17.8554 291.842 17.9844 291.91C17.9135 292.033 17.8118 292.136 17.6894 292.208C17.567 292.279 17.428 292.318 17.2861 292.32V309.262H15.009V293.019C11.1787 295.658 7.15168 298 2.96328 300.024C2.57934 299.407 2.13708 298.827 1.64258 298.294C10.2499 294.317 19.6846 287.569 24.7625 281.982L27.1307 283.774Z" fill="#FBE5D3" stroke="#FBE5D3" stroke-width="0.75" stroke-miterlimit="10"/>
<path d="M4.10108 315.539C7.4092 316.547 10.569 317.989 13.4978 319.828L12.2986 321.816C9.42498 319.97 6.32873 318.496 3.08398 317.429L4.10108 315.539ZM3.97205 337.399C15.1753 333.93 22.6213 327.653 26.4013 318.917C27.0443 319.411 27.7331 319.843 28.4582 320.207C24.5113 328.868 16.8148 335.57 6.12009 339.137C6.10802 339.289 6.06221 339.435 5.98603 339.567C5.90986 339.698 5.80524 339.811 5.67985 339.896L3.97205 337.399Z" fill="#FBE5D3" stroke="#FBE5D3" stroke-width="0.75" stroke-miterlimit="10"/>
</g>
<defs>
<clipPath id="clip0">
<rect width="30.8392" height="340.029" fill="white" transform="translate(0.0488281 0.208984)"/>
</clipPath>
</defs>
</svg>
