<svg width="331" height="47" viewBox="0 0 331 47" fill="none" xmlns="http://www.w3.org/2000/svg">
<g clip-path="url(#clip0)">
<path d="M38.63 14.7507C38.5342 14.9894 38.3874 15.2044 38.2 15.3807C37.57 29.2407 36.2 37.9507 34.34 41.3807C33.7358 42.5128 32.8136 43.4436 31.6872 44.0583C30.5607 44.6731 29.2791 44.945 28 44.8407C25.1006 44.7138 22.217 44.3425 19.38 43.7307C19.4522 42.5889 19.4053 41.4427 19.24 40.3107C22.0074 40.9514 24.8242 41.3562 27.66 41.5207C28.4411 41.597 29.2258 41.4167 29.8952 41.0071C30.5647 40.5975 31.0824 39.9809 31.37 39.2507C32.81 36.3207 34.01 28.2507 34.5 17.4007H19.13C16.72 28.9007 12 38.4407 3.24 45.0007C2.40572 44.1915 1.48715 43.4741 0.5 42.8607C8.83 36.6107 13.21 28.3707 15.5 17.4007H2.23V14.1707H16.23C16.7845 10.697 17.1418 7.19474 17.3 3.68066L22.07 4.06066C22.02 4.59066 21.59 4.88066 20.86 4.93066C20.58 8.44066 20.33 11.0907 19.8 14.1707H35.4L36.17 13.8807L38.63 14.7507Z" fill="#FBE5D3" stroke="#FBE5D3" stroke-linecap="round" stroke-linejoin="round"/>
<path d="M48.2996 34.2506C58.8896 35.4506 71.2996 38.1906 78.8196 41.1806L77.3796 44.5506C70.5396 41.7106 57.7396 38.6806 47.1396 37.4206L48.2996 34.2506ZM52.1497 19.5206C60.0115 20.3281 67.7899 21.8068 75.3997 23.9406L74.2997 27.3106C68.6597 25.3906 58.9396 23.5606 51.1396 22.7906L52.1497 19.5206ZM52.3396 4.64062C60.5296 5.51063 70.9996 7.43063 77.6696 9.79063L76.2696 13.1606C69.6296 10.6606 59.4196 8.78062 51.2696 7.87063L52.3396 4.64062Z" fill="#FBE5D3" stroke="#FBE5D3" stroke-linecap="round" stroke-linejoin="round"/>
<path d="M89.2099 7.29004C94.2602 8.8292 99.0852 11.0282 103.56 13.83L101.73 16.83C97.3483 14.0086 92.6231 11.7603 87.6699 10.14L89.2099 7.29004ZM88.9999 40.65C106.09 35.35 117.45 25.77 123.23 12.44C124.204 13.2095 125.252 13.8795 126.36 14.44C120.36 27.63 108.6 37.89 92.2799 43.33C92.2518 43.5514 92.1766 43.7641 92.0593 43.9538C91.942 44.1436 91.7853 44.306 91.5999 44.43L88.9999 40.65Z" fill="#FBE5D3" stroke="#FBE5D3" stroke-linecap="round" stroke-linejoin="round"/>
<path d="M165.22 13.0003C165.032 13.2877 164.787 13.5329 164.5 13.7203C159.4 29.6603 151.5 39.2803 138.5 45.9303C137.816 44.9082 136.972 44.0032 136 43.2503C148.38 37.2503 156.13 27.9903 160.22 14.8903H143.22C140.351 19.3715 136.755 23.3427 132.58 26.6403C131.765 25.8209 130.863 25.0932 129.89 24.4703C136.44 19.5603 141.89 11.9603 145.15 3.39027L149.67 4.64027C149.53 5.12027 148.95 5.31027 148.33 5.27027C147.33 7.43027 146.26 9.74027 145.15 11.6703H161.9L162.48 11.3803L165.22 13.0003ZM159.22 1.93027C161.612 3.92236 163.733 6.21846 165.53 8.76027L163.75 10.3003C161.996 7.75495 159.907 5.4576 157.54 3.47027L159.22 1.93027ZM166.22 0.530273C168.618 2.51631 170.737 4.8171 172.52 7.37027L170.74 8.86027C168.998 6.30259 166.916 3.99461 164.55 2.00027L166.22 0.530273Z" fill="#FBE5D3" stroke="#FBE5D3" stroke-linecap="round" stroke-linejoin="round"/>
<path d="M188.28 24.3799C188.28 25.3688 187.987 26.3355 187.438 27.1577C186.888 27.98 186.107 28.6208 185.194 28.9993C184.28 29.3777 183.275 29.4767 182.305 29.2838C181.335 29.0909 180.444 28.6147 179.745 27.9154C179.045 27.2162 178.569 26.3252 178.376 25.3553C178.183 24.3854 178.282 23.3801 178.661 22.4665C179.039 21.5528 179.68 20.7719 180.502 20.2225C181.325 19.6731 182.291 19.3799 183.28 19.3799C184.606 19.3799 185.878 19.9067 186.816 20.8443C187.753 21.782 188.28 23.0538 188.28 24.3799Z" fill="#FBE5D3" stroke="#FBE5D3" stroke-linecap="round" stroke-linejoin="round"/>
<path d="M230.5 8.35074C230.439 8.47874 230.351 8.5922 230.242 8.68358C230.133 8.77497 230.007 8.84218 229.87 8.88074C227.386 14.7924 224.15 20.3584 220.24 25.4407C226.476 30.4753 232.363 35.9279 237.86 41.7607L234.92 44.3107C229.691 38.5036 224.035 33.0952 218 28.1307C213.76 33.2807 206.44 40.3107 199.46 44.3107C198.717 43.3618 197.879 42.4906 196.96 41.7107C210.29 34.3907 220.84 20.7107 225.17 10.2707H201.56V7.00074H227.08L227.7 6.76074L230.5 8.35074Z" fill="#FBE5D3" stroke="#FBE5D3" stroke-linecap="round" stroke-linejoin="round"/>
<path d="M243.82 21.8301H284V25.2401H245.65C245.473 25.493 245.244 25.7057 244.978 25.8642C244.713 26.0227 244.417 26.1235 244.11 26.1601L243.82 21.8301Z" fill="#FBE5D3" stroke="#FBE5D3" stroke-linecap="round" stroke-linejoin="round"/>
<path d="M292.83 7.29004C297.876 8.83154 302.697 11.0304 307.17 13.83L305.34 16.83C300.977 14.0124 296.273 11.7642 291.34 10.14L292.83 7.29004ZM292.63 40.65C309.72 35.35 321.08 25.77 326.86 12.44C327.834 13.2095 328.882 13.8795 329.99 14.44C323.99 27.63 312.23 37.89 295.91 43.33C295.882 43.5514 295.807 43.7641 295.689 43.9538C295.572 44.1436 295.415 44.306 295.23 44.43L292.63 40.65Z" fill="#FBE5D3" stroke="#FBE5D3" stroke-linecap="round" stroke-linejoin="round"/>
</g>
<defs>
<clipPath id="clip0">
<rect width="330.49" height="46.4" fill="white"/>
</clipPath>
</defs>
</svg>
