<svg width="125" height="141" viewBox="0 0 125 141" fill="none" xmlns="http://www.w3.org/2000/svg">
<g filter="url(#filter0_d)">
<path d="M52.19 118.061C52.13 117.861 51.96 117.941 51.84 117.951C49.0774 118.038 46.3342 117.462 43.84 116.271C41 114.991 38.4 113.391 35.66 111.991C34.1326 111.162 32.5242 110.492 30.86 109.991C29.8809 109.675 28.8233 109.699 27.86 110.061C27.3539 110.174 26.8636 110.349 26.4 110.581C26.23 110.701 26.1 110.641 26.11 110.411C26.12 110.181 26.11 110.131 26.11 109.991C26.2202 109.102 26.1466 108.199 25.8937 107.339C25.6408 106.479 25.2141 105.68 24.64 104.991C23.8864 104.058 23.0677 103.179 22.19 102.361C20.12 100.151 17.7 98.3013 15.65 96.0613C13.9085 94.2731 12.5477 92.1503 11.65 89.8213C10.8469 87.5919 10.8222 85.1564 11.58 82.9113C11.86 82.0713 11.86 82.0313 10.99 81.9113C9.00282 81.4679 7.0734 80.7968 5.24 79.9113C4.9 79.7713 5.09 79.5813 5.15 79.4113C5.65478 78.3123 6.32974 77.2999 7.15 76.4113C7.78 75.6613 8.4 74.8813 9.03 74.1213C9.11494 74.088 9.18745 74.0292 9.23751 73.9529C9.28756 73.8767 9.31267 73.7868 9.30938 73.6956C9.30608 73.6045 9.27454 73.5166 9.21911 73.4441C9.16369 73.3717 9.08712 73.3183 9 73.2913C8.49 72.9013 8 72.4813 7.52 72.0513C5.88229 70.494 4.75891 68.474 4.3 66.2613C4.22 65.9413 4.1 65.6313 4 65.2613V61.2613C4.12 61.2013 4.09 61.0813 4.1 60.9813C4.25 59.9813 4.39 59.0613 4.53 58.1013C4.85 55.9613 5.41 53.8713 5.76 51.7313C6.12689 49.8752 6.24125 47.978 6.1 46.0913C6.08149 45.3079 5.88235 44.5393 5.5181 43.8455C5.15385 43.1517 4.63432 42.5514 4 42.0913L4 41.9913C5.09018 41.9164 6.14488 41.5729 7.07 40.9913C7.94596 40.2671 8.69902 39.4059 9.3 38.4413C10.6346 36.3668 11.7761 34.1743 12.71 31.8913C13.8567 29.0872 15.3917 26.4582 17.27 24.0813C18.9296 21.9653 21.2674 20.4857 23.89 19.8913C24.8594 19.6878 25.8501 19.6038 26.84 19.6413C27.18 19.6413 27.3 19.5813 27.22 19.2013C26.9617 17.2358 26.888 15.2505 27 13.2713V13.2713C27.22 12.0613 27.21 12.0313 28.37 12.2113C29.896 12.4544 31.3847 12.8912 32.8 13.5113C33.2 13.6813 33.52 13.9913 33.93 14.1413C34.34 14.2913 34.54 14.2013 34.64 13.8013C35.2679 11.6245 36.5966 9.71579 38.42 8.37126C39.8824 7.25973 41.5515 6.45066 43.33 5.99126C45.065 5.50759 46.8381 5.17304 48.63 4.99126C50.01 4.84126 51.38 4.58126 52.75 4.44126C54.1819 4.29219 55.6019 4.04494 57 3.70126C58.5776 3.40346 60.0558 2.71595 61.3 1.70126C61.7067 1.30675 62.0447 0.847093 62.3 0.34126C62.56 -0.11874 62.8 -0.10874 63.09 0.34126C63.3472 0.814446 63.7142 1.21908 64.16 1.52126C64.2051 2.69187 63.9971 3.85844 63.55 4.94126C63.3486 4.69796 63.1648 4.44064 63 4.17126C62.84 3.87126 62.72 3.87126 62.54 4.17126C61.4381 5.57174 59.9001 6.56421 58.17 6.99126C55.51 7.84126 52.74 8.21126 50.03 8.79126C47.5237 9.22133 45.0921 10.0094 42.81 11.1313C41.7031 11.6746 40.7318 12.4585 39.967 13.4257C39.2022 14.393 38.6634 15.5189 38.39 16.7213C37.8761 19.239 38.0033 21.8455 38.76 24.3013C39.4344 26.2273 40.4061 28.0359 41.64 29.6613C43.09 31.8913 44.5 34.1413 45.89 36.4213C45.99 36.5913 46.19 36.7813 46.07 36.9813C45.95 37.1813 45.69 37.0913 45.5 37.0413C45.4468 37.0243 45.3908 37.0181 45.3352 37.0231C45.2796 37.028 45.2256 37.044 45.1763 37.0701C45.1269 37.0961 45.0833 37.1318 45.0478 37.1749C45.0124 37.218 44.986 37.2678 44.97 37.3213C44.69 37.9013 44.68 37.8913 44.24 37.4313C44.1781 37.3693 44.1212 37.3024 44.07 37.2313C42.07 34.8179 40.07 32.4013 38.07 29.9813C37.414 29.1104 36.6664 28.3125 35.84 27.6013C34.283 26.3907 32.5313 25.454 30.66 24.8313C27.66 23.8313 24.78 23.8813 22.14 25.8313C20.4604 27.178 19.055 28.8346 18 30.7113C17 32.3413 16 33.9913 15.14 35.7113C14.4577 37.0994 13.6756 38.4362 12.8 39.7113C11.7552 41.3673 10.1846 42.6244 8.34 43.2813C7.95 43.4013 8.07 43.5813 8.25 43.7813C9.14663 44.9209 9.62967 46.3312 9.62 47.7813C9.70656 49.4975 9.60259 51.218 9.31 52.9113C9.14 53.9113 9.03 54.9813 8.95 56.0213C8.68884 58.2177 8.58191 60.4298 8.63 62.6413C8.64722 63.8418 8.8496 65.0325 9.23 66.1713C9.67596 67.4041 10.3966 68.5193 11.3374 69.4323C12.2782 70.3454 13.4144 71.0324 14.66 71.4413C17.1065 72.3849 19.7536 72.6878 22.35 72.3213C24.7 71.9213 26.98 71.2013 29.29 70.6313C29.6 70.5613 29.61 70.3713 29.53 70.1213C29.327 69.3822 29.2327 68.6175 29.25 67.8513C29.3098 66.1334 29.4701 64.4204 29.73 62.7213C29.8966 61.6018 29.9134 60.4652 29.78 59.3413C29.6185 58.6981 29.3443 58.0887 28.97 57.5413C29.8607 57.2947 30.6425 56.7558 31.19 56.0113C32.1165 54.6715 32.9646 53.2792 33.73 51.8413C34.4355 50.392 35.3824 49.0732 36.53 47.9413C37.3616 47.1894 38.4139 46.7264 39.53 46.6213C39.0168 46.8381 38.5303 47.1133 38.08 47.4413C36.7476 48.6221 35.6545 50.048 34.86 51.6413C34.1307 53.0634 33.2985 54.4304 32.37 55.7313C31.911 56.4176 31.2508 56.9451 30.48 57.2413C30.09 57.3513 30.12 57.5013 30.31 57.7813C30.7271 58.386 30.963 59.0971 30.99 59.8313C30.9984 61.086 30.9114 62.3396 30.73 63.5813C30.4168 65.3631 30.3228 67.1766 30.45 68.9813C30.515 69.925 30.8465 70.831 31.4058 71.5939C31.9652 72.3568 32.7295 72.9454 33.61 73.2913C34.6544 73.7379 35.7667 74.005 36.9 74.0813C34.9062 74.3574 32.8816 73.8717 31.23 72.7213C31.07 72.6113 30.97 72.4913 30.73 72.5813C28.21 73.5813 25.64 74.4513 23.14 75.5813C22.5826 75.8099 22.0659 76.1274 21.61 76.5213C20.3998 77.5648 19.2699 78.698 18.23 79.9113C15.9 82.7313 15.23 85.8313 16.64 89.2913C17.6499 91.5537 19.0438 93.6243 20.76 95.4113C22.64 97.4113 24.59 99.4113 26.35 101.611C27.658 103.034 28.4381 104.862 28.56 106.791C28.56 107.471 28.56 107.491 29.27 107.311C30.9215 106.867 32.6711 106.954 34.27 107.561C36.11 108.241 37.89 109.071 39.67 109.901C42.0061 111.1 44.4461 112.084 46.96 112.841C48.7982 113.409 50.7533 113.485 52.63 113.061C52.5827 114.735 52.4358 116.405 52.19 118.061Z" fill="#FBE5D3"/>
<path d="M52.1897 118.061C52.4144 116.357 52.5346 114.64 52.5497 112.921C52.6697 112.841 52.6597 112.711 52.6697 112.591C52.8097 110.441 52.9797 108.301 53.0897 106.151C53.2697 102.691 53.3297 99.2312 53.3797 95.7612C53.3797 92.0912 53.3797 88.4112 53.1997 84.7612C53.1997 83.7612 53.1997 82.6712 53.0797 81.6312C52.8697 79.1712 52.7397 76.7012 52.5097 74.2412C52.3497 72.5312 52.2297 70.8112 52.0297 69.1112C51.6097 65.5912 51.1697 62.1112 50.6097 58.5712C50.0197 54.9012 49.3097 51.2612 48.6097 47.5712C48.5097 47.0712 48.2297 47.1812 47.9097 47.1912C47.5897 47.2012 47.4997 47.4612 47.5197 47.7212C47.5496 48.0839 47.5496 48.4485 47.5197 48.8112C47.5197 49.0712 47.3997 49.1812 47.1297 49.1712C46.6697 49.1712 46.2197 49.1712 45.7697 49.1712C45.3197 49.1712 45.1797 49.0512 45.1797 48.6112C45.1797 46.6712 45.1797 44.7412 45.1797 42.8112C45.1797 42.4012 45.3497 42.2612 45.7497 42.2712C46.5497 42.2712 47.3497 42.2712 48.1497 42.2712C48.3046 42.2659 48.4587 42.2967 48.5997 42.3612C49.1897 42.6612 49.4497 42.5012 49.4397 41.8512C49.4397 41.4712 49.4397 41.0812 49.4397 40.7012C49.4762 39.8993 49.736 39.1235 50.1897 38.4612C51.0859 37.2997 52.3714 36.5007 53.8097 36.2112C54.4597 36.0212 55.1697 36.0312 55.8097 35.8312C56.8097 35.5212 57.8097 35.4312 58.8097 35.1412C59.8739 34.965 60.8526 34.4494 61.5997 33.6712C61.7997 33.4212 61.9497 33.4712 62.1297 33.6712C62.3135 33.9232 62.5444 34.1372 62.8097 34.3012C64.0907 34.9222 65.4603 35.3406 66.8697 35.5412C68.2622 35.7743 69.6358 36.1085 70.9797 36.5412C71.9812 36.8236 72.8528 37.4466 73.4443 38.3028C74.0357 39.1589 74.31 40.1946 74.2197 41.2312C74.2299 41.3877 74.2299 41.5447 74.2197 41.7012C74.2197 42.0812 74.2997 42.2212 74.6997 42.2212C75.4955 42.1158 76.3048 42.1875 77.0697 42.4312C77.1666 42.4664 77.2728 42.4664 77.3697 42.4312C78.0819 42.1527 78.8581 42.0799 79.6097 42.2212C79.9598 42.2343 80.2909 42.3839 80.5321 42.6381C80.7732 42.8923 80.9052 43.2309 80.8997 43.5812C80.8997 44.3112 80.8997 45.0412 80.8997 45.7712C80.9188 45.9578 80.8925 46.1463 80.8228 46.3205C80.7531 46.4946 80.6422 46.6493 80.4997 46.7712C80.3132 46.9309 80.0935 47.047 79.8565 47.111C79.6195 47.175 79.3712 47.1854 79.1297 47.1412C77.9686 47.0512 76.8032 47.0311 75.6397 47.0812C74.1297 47.0812 74.4497 46.9412 74.3497 48.3412C74.1897 50.5112 74.1697 52.6812 74.0397 54.8612C73.8397 58.2212 73.5997 61.5812 73.2497 64.9312C73.0164 67.1112 72.7597 69.2846 72.4797 71.4512C72.0597 74.6212 71.4797 77.7712 70.9597 80.9212C70.4497 83.8312 69.8097 86.7112 69.1497 89.5912C68.5897 92.0012 67.9097 94.3812 67.2597 96.7612C66.8897 98.1012 66.4497 99.4212 66.0197 100.761C65.5397 102.241 65.0197 103.761 64.5297 105.181C64.36 105.577 64.2196 105.985 64.1097 106.401C63.6097 107.731 63.0397 109.041 62.5297 110.401C61.7497 112.401 60.9497 114.401 60.0097 116.331C59.8197 116.711 59.5097 117.051 59.5597 117.521C59.0097 117.811 58.8497 118.401 58.5597 118.891C57.6297 120.791 56.6797 122.681 55.6297 124.511C54.9197 125.741 54.1897 126.961 53.4597 128.171C52.6197 129.551 51.6697 130.851 50.7797 132.171C50.6897 132.311 50.6197 132.561 50.4197 132.471C50.2197 132.381 50.3597 132.161 50.4197 132.001C50.6897 130.331 50.8697 128.661 51.1197 127.001C51.3897 125.131 51.5597 123.251 51.7997 121.381C51.9997 120.311 52.0697 119.181 52.1897 118.061ZM62.2597 82.6512C63.5823 82.7447 64.9095 82.5502 66.1497 82.0812C66.3076 82.0249 66.4488 81.9298 66.5603 81.8047C66.6718 81.6795 66.7501 81.5284 66.7879 81.3651C66.8257 81.2018 66.8219 81.0316 66.7768 80.8702C66.7317 80.7087 66.6467 80.5612 66.5297 80.4412C66.4138 80.3155 66.2828 80.2047 66.1397 80.1112C65.17 79.52 64.3678 78.6903 63.8097 77.7012C63.1776 76.2171 62.9632 74.5884 63.1897 72.9912C63.2289 72.3987 63.4148 71.8253 63.7308 71.3225C64.0468 70.8198 64.4828 70.4035 64.9997 70.1112C65.2663 69.9544 65.5204 69.7772 65.7597 69.5812C67.1684 68.4798 68.3878 67.1557 69.3697 65.6612C70.3245 64.3751 70.9711 62.8868 71.2597 61.3112C71.3957 60.7609 71.3821 60.1843 71.2203 59.641C71.0586 59.0977 70.7545 58.6075 70.3397 58.2212C70.1161 58.049 69.8493 57.942 69.5687 57.912C69.2881 57.882 69.0046 57.9302 68.7497 58.0512C68.2697 58.2412 68.1997 58.7812 68.3197 59.2712C68.4397 59.7612 68.2297 59.7012 67.9197 59.6112C67.1835 59.4218 66.4293 59.3111 65.6697 59.2812C63.6755 59.0951 61.6717 59.0317 59.6697 59.0912C58.8214 59.1267 57.9763 59.2169 57.1397 59.3612C56.2997 59.5112 56.2297 59.5112 55.9397 58.7012C55.6497 57.8912 55.3597 57.7012 54.5797 58.1312C52.9597 58.9212 52.6897 59.8412 52.9597 61.4712C53.1972 62.5336 53.6131 63.5479 54.1897 64.4712C55.1518 66.1521 56.3889 67.6596 57.8497 68.9312C58.4897 69.5012 59.1697 70.0112 59.8497 70.5612C60.217 70.8394 60.5123 71.2016 60.7107 71.6174C60.909 72.0333 61.0047 72.4907 60.9897 72.9512C60.9217 73.629 60.9016 74.3107 60.9297 74.9912C61.0497 75.7157 60.9843 76.4588 60.7397 77.1512C60.2597 78.2345 59.4563 79.1427 58.4397 79.7512C57.8497 80.1212 57.2597 80.4912 57.4397 81.3512C57.4477 81.5044 57.5043 81.651 57.6015 81.7698C57.6986 81.8885 57.8311 81.9731 57.9797 82.0112C59.3503 82.5043 60.8048 82.7218 62.2597 82.6512V82.6512ZM69.6597 45.6512C69.6597 44.9612 69.6597 44.2612 69.6597 43.5612C69.6597 43.3712 69.6597 43.1212 69.3497 43.1312C68.8097 43.1312 68.2697 43.1312 67.7297 43.1312C67.6334 43.1227 67.5364 43.136 67.4461 43.1703C67.3557 43.2045 67.2742 43.2588 67.2079 43.3291C67.1415 43.3993 67.0918 43.4837 67.0627 43.5759C67.0336 43.668 67.0257 43.7656 67.0397 43.8612C67.0397 44.2612 67.0397 44.6612 67.0397 45.0612C67.0397 46.3712 67.0397 46.4012 68.3597 46.3912C68.8997 46.3912 69.0597 46.5412 68.9997 47.0612C68.9997 47.3812 69.0997 47.7512 68.5497 47.7212C68.3397 47.7212 68.3597 47.9312 68.3597 48.0812C68.3541 48.1196 68.3565 48.1587 68.3668 48.196C68.3771 48.2334 68.395 48.2682 68.4194 48.2983C68.4439 48.3284 68.4743 48.3531 68.5088 48.3708C68.5432 48.3885 68.581 48.3989 68.6197 48.4012C68.7434 48.4336 68.8732 48.4359 68.998 48.4078C69.1228 48.3798 69.239 48.3222 69.337 48.2399C69.4349 48.1576 69.5117 48.0531 69.5609 47.935C69.6101 47.8169 69.6303 47.6887 69.6197 47.5612C69.6697 46.9012 69.6597 46.2612 69.6597 45.6112V45.6512ZM45.9997 45.7212C45.9997 46.4912 45.9997 47.2512 45.9997 48.0212C45.9997 48.2912 46.0997 48.3812 46.3697 48.3812C46.6397 48.3812 46.6997 48.2612 46.6897 48.0312C46.6797 47.8012 46.6897 47.7112 46.6897 47.5612C46.6897 46.4412 46.6897 46.4212 47.7997 46.3812C47.9025 46.3924 48.0066 46.3819 48.1051 46.3504C48.2037 46.3189 48.2945 46.2671 48.3718 46.1983C48.449 46.1295 48.511 46.0453 48.5537 45.951C48.5964 45.8568 48.6189 45.7547 48.6197 45.6512C48.6797 45.0093 48.6797 44.3632 48.6197 43.7212C48.6185 43.6424 48.6013 43.5647 48.5691 43.4927C48.5369 43.4208 48.4903 43.3562 48.4323 43.3029C48.3743 43.2495 48.306 43.2086 48.2316 43.1825C48.1572 43.1564 48.0783 43.1458 47.9997 43.1512C47.5197 43.1512 46.9997 43.1512 46.5497 43.0812C46.0997 43.0112 45.9497 43.2012 45.9697 43.6412C46.0497 44.3312 45.9997 44.9912 45.9997 45.7212ZM73.5497 44.7212C73.5497 45.1912 73.5497 45.5912 73.5497 45.9912C73.5497 46.2312 73.5497 46.3812 73.8797 46.3912C74.2097 46.4012 74.1897 46.2112 74.1897 45.9812V44.1912C74.1897 43.9812 74.1897 43.7812 74.4997 43.7812C74.8097 43.7812 74.8397 43.9712 74.8397 44.2112C74.8397 44.8012 74.8397 45.3912 74.8397 45.9912C74.8397 46.2412 74.9097 46.3812 75.1897 46.3812C75.4697 46.3812 75.5297 46.2312 75.5297 45.9812C75.5297 45.3712 75.5297 44.7612 75.5297 44.1512C75.5297 43.9512 75.5297 43.7812 75.8197 43.7712C76.1097 43.7612 76.1697 43.9012 76.1697 44.1512C76.1697 44.7612 76.1697 45.3712 76.1697 45.9812C76.1697 46.2312 76.1697 46.3712 76.5097 46.3712C76.8497 46.3712 76.8697 46.2312 76.8597 45.9812C76.8597 45.2612 76.8597 44.5512 76.8597 43.8412C76.8653 43.7443 76.8506 43.6472 76.8167 43.5563C76.7828 43.4653 76.7303 43.3824 76.6626 43.3128C76.5948 43.2432 76.5134 43.1884 76.4234 43.152C76.3334 43.1156 76.2367 43.0983 76.1397 43.1012C75.8297 43.1012 75.5097 43.1012 75.1997 43.1012C74.6697 43.1012 73.9797 42.8412 73.6497 43.2012C73.3197 43.5612 73.6197 44.2312 73.5797 44.7012L73.5497 44.7212ZM80.1197 44.7212V43.7812C80.1197 43.4812 79.9897 43.1812 79.6997 43.1312C79.0713 42.9863 78.4181 42.9863 77.7897 43.1312C77.7042 43.1567 77.6308 43.2123 77.583 43.2876C77.5353 43.363 77.5163 43.453 77.5297 43.5412C77.5297 43.8012 77.7497 43.7212 77.8797 43.7212H79.0797C79.2897 43.7212 79.4197 43.7712 79.4297 44.0112C79.4363 44.0587 79.4319 44.1072 79.4166 44.1527C79.4014 44.1981 79.3758 44.2395 79.3419 44.2734C79.308 44.3073 79.2666 44.3329 79.2211 44.3482C79.1756 44.3634 79.1272 44.3679 79.0797 44.3612H78.1897C78.0673 44.3485 77.9437 44.3698 77.8326 44.4227C77.7214 44.4757 77.627 44.5582 77.5597 44.6612C77.4517 44.8244 77.3906 45.0141 77.3829 45.2097C77.3752 45.4052 77.4214 45.5991 77.5162 45.7703C77.6111 45.9414 77.7511 46.0833 77.9209 46.1804C78.0908 46.2776 78.2841 46.3263 78.4797 46.3212C80.1497 46.4012 80.1497 46.4012 80.1497 44.7512L80.1197 44.7212ZM57.2297 43.1212H56.6597C56.0197 43.1212 55.8697 43.2812 55.8397 43.9212C55.8297 44.0577 55.8297 44.1947 55.8397 44.3312C55.8397 44.7912 56.0697 45.0412 56.5497 45.0412H57.3797C57.6097 45.0412 57.7997 45.1012 57.7897 45.3812C57.7797 45.6612 57.5797 45.6512 57.3797 45.6512H56.1597C55.8797 45.6512 55.8597 45.8012 55.8597 46.0112C55.8597 46.2212 55.9397 46.3812 56.1497 46.3412C56.5625 46.3111 56.9769 46.3111 57.3897 46.3412C58.3897 46.3412 58.5197 46.1512 58.4997 45.0812C58.4997 44.5712 58.1997 44.3512 57.7097 44.3512H56.8297C56.5897 44.3512 56.5197 44.2212 56.5397 44.0112C56.5597 43.8012 56.6497 43.6312 56.8597 43.7212C57.2997 43.8912 57.6997 43.5912 58.1297 43.7212C58.3197 43.7212 58.4797 43.7212 58.4797 43.4512C58.49 43.4036 58.4886 43.3541 58.4755 43.3071C58.4625 43.2601 58.4381 43.217 58.4046 43.1816C58.3711 43.1461 58.3295 43.1193 58.2833 43.1036C58.2372 43.0879 58.1879 43.0836 58.1397 43.0912L57.2297 43.1212ZM72.9097 44.7112C72.9097 44.4112 72.9097 44.1212 72.9097 43.8212C72.9322 43.6907 72.9086 43.5565 72.8429 43.4415C72.7772 43.3266 72.6735 43.2381 72.5497 43.1912C71.8991 42.9843 71.2003 42.9843 70.5497 43.1912C70.4751 43.222 70.4134 43.2777 70.3751 43.3488C70.3369 43.4199 70.3243 43.502 70.3397 43.5812C70.3397 43.8012 70.5797 43.7412 70.7197 43.7412H71.8697C72.1097 43.7412 72.1997 43.8512 72.1997 44.0912C72.1997 44.3312 72.0697 44.3812 71.8697 44.3812C71.6697 44.3812 71.2397 44.3812 70.9297 44.3812C70.4097 44.4312 70.2597 44.6312 70.2497 45.2912C70.2397 45.9512 70.3397 46.2912 70.8897 46.2912C71.4397 46.2912 71.7597 46.2912 72.1897 46.2912C72.6197 46.2912 72.9097 46.0312 72.8997 45.5412C72.9297 45.3312 72.9397 44.9912 72.9397 44.7412L72.9097 44.7112ZM59.1397 44.7112C59.1397 46.3912 59.1997 46.4412 60.6897 46.3312H60.7897C60.8337 46.3355 60.8781 46.3292 60.9193 46.3129C60.9604 46.2967 60.9972 46.2709 61.0264 46.2378C61.0557 46.2046 61.0767 46.1649 61.0877 46.1221C61.0987 46.0792 61.0994 46.0344 61.0897 45.9912C61.0897 45.7912 60.9897 45.6712 60.7697 45.6812H60.1397C59.9397 45.6812 59.8097 45.6112 59.8097 45.3812C59.8097 45.1512 59.9397 45.0812 60.1497 45.0712H60.6197C61.8197 45.0712 61.8197 45.0712 61.7397 43.8512C61.7397 43.3212 61.4897 43.1112 60.9497 43.0912H59.9497C59.3897 43.0912 59.1997 43.2812 59.1797 43.8412C59.1597 44.1512 59.1697 44.4512 59.1697 44.7412L59.1397 44.7112ZM51.9097 44.7112V43.9912C51.9097 43.3812 51.7197 43.1512 51.1297 43.1112C50.7136 43.0812 50.2958 43.0812 49.8797 43.1112C49.8053 43.1097 49.7315 43.1236 49.6628 43.152C49.594 43.1804 49.5319 43.2226 49.4803 43.2762C49.4286 43.3297 49.3886 43.3933 49.3627 43.463C49.3368 43.5327 49.3255 43.607 49.3297 43.6812C49.3297 44.0812 49.3297 44.4812 49.3297 44.8812C49.3297 46.3012 49.3797 46.4212 50.7897 46.3612C51.9697 46.3612 51.9097 46.2212 51.9397 45.2312L51.9097 44.7112ZM72.8097 47.1312C72.6784 47.0888 72.5398 47.0741 72.4026 47.0879C72.2653 47.1016 72.1324 47.1437 72.0122 47.2113C71.892 47.2789 71.7871 47.3707 71.704 47.4808C71.621 47.5909 71.5616 47.717 71.5297 47.8512C71.4087 48.0828 71.2682 48.3036 71.1097 48.5112C70.8397 48.9512 70.5797 49.4012 70.3197 49.8512C70.0597 50.3012 70.4897 50.3912 70.6397 50.5712C70.7897 50.7512 70.9497 50.4712 71.0597 50.3512C71.7597 49.5412 72.4597 48.7212 73.1397 47.8912C73.3097 47.6912 73.6597 47.4912 73.5297 47.2312C73.3997 46.9712 73.0797 47.1812 72.8397 47.1512L72.8097 47.1312ZM51.0897 47.1312C50.8497 47.1312 50.6897 47.1312 50.5397 47.1312C50.3897 47.1312 50.1997 47.1312 50.1197 47.2712C50.0397 47.4112 50.2197 47.5112 50.2997 47.6212C50.3797 47.7312 50.6497 48.0512 50.8197 48.2612C51.3497 48.9012 51.8997 49.5312 52.3897 50.2012C52.8797 50.8712 53.0197 50.1312 53.2797 50.0612C53.5397 49.9912 53.2797 49.7212 53.1897 49.5812C52.8297 48.9612 52.4097 48.3612 52.0597 47.7212C51.8497 47.3112 51.5897 46.9912 51.1197 47.1612L51.0897 47.1312ZM65.0897 44.8612C65.0897 44.7012 65.0897 44.5512 65.0897 44.3912C65.0897 44.2312 65.0897 44.0412 65.0897 43.8712C65.0897 43.3512 64.8497 43.1212 64.3297 43.1112C63.8097 43.1012 63.4297 43.1112 62.9797 43.1112C62.6897 43.1112 62.5297 43.1912 62.5297 43.5212C62.5297 44.3312 62.5297 45.1512 62.5297 45.9712C62.5297 46.1912 62.5897 46.3312 62.8497 46.3212C63.1097 46.3112 63.1497 46.1512 63.1497 45.9412V44.6412C63.1497 43.7712 63.1497 43.7912 63.9897 43.7712C64.3597 43.7712 64.4797 43.9012 64.4697 44.2512C64.4697 44.8212 64.4697 45.4012 64.4697 45.9712C64.4697 46.2112 64.4697 46.3712 64.7997 46.3712C65.1297 46.3712 65.1597 46.2412 65.1497 45.9812C65.1397 45.7212 65.0697 45.2512 65.0697 44.8912L65.0897 44.8612ZM53.2897 45.0712C53.2897 44.7812 53.2897 44.4812 53.2897 44.1912C53.2897 43.9012 53.3797 43.7112 53.7397 43.7312C54.0997 43.7512 54.4597 43.7312 54.8297 43.7312C55.1997 43.7312 55.2297 43.7312 55.2197 43.3912C55.2097 43.0512 55.0397 43.1012 54.8397 43.1012H53.2797C53.1927 43.0911 53.1046 43.1011 53.0222 43.1304C52.9397 43.1598 52.8651 43.2078 52.8042 43.2707C52.7433 43.3335 52.6976 43.4096 52.6708 43.4929C52.644 43.5762 52.6368 43.6646 52.6497 43.7512C52.6497 44.5012 52.6497 45.2512 52.6497 45.9912C52.6497 46.1812 52.6497 46.3312 52.9197 46.3312C53.1897 46.3312 53.3197 46.2512 53.3097 45.9812L53.2897 45.0712ZM65.7597 44.7012V45.9912C65.7597 46.2112 65.8597 46.2912 66.0797 46.2912C66.2997 46.2912 66.3997 46.2112 66.3997 45.9912C66.3997 45.1412 66.3997 44.2912 66.3997 43.4312C66.3997 43.2512 66.3997 43.0912 66.1197 43.0912C65.8397 43.0912 65.7697 43.2012 65.7797 43.4412L65.7597 44.7012ZM66.3597 42.2112C66.3597 41.9112 66.2397 41.7912 66.0597 41.7812C65.8797 41.7712 65.7897 41.9512 65.7897 42.1312C65.7897 42.3112 65.8497 42.4512 66.0497 42.4512C66.1146 42.4537 66.1784 42.4344 66.231 42.3963C66.2835 42.3582 66.3218 42.3036 66.3397 42.2412L66.3597 42.2112Z" fill="#FBE5D3"/>
<path d="M59.5703 117.552C59.5703 117.082 59.8303 116.742 60.0203 116.362C60.9603 114.432 61.7603 112.442 62.5403 110.432C63.0503 109.102 63.6203 107.792 64.1203 106.432C64.2302 106.015 64.3706 105.607 64.5403 105.212C64.4803 105.352 64.5403 105.452 64.6203 105.552C65.3151 107.246 66.2442 108.835 67.3803 110.272C68.1398 111.23 69.1003 112.009 70.1941 112.555C71.2879 113.101 72.4882 113.4 73.7103 113.432C75.9782 113.427 78.221 112.957 80.3003 112.052C83.0303 111.052 85.6203 109.622 88.3003 108.482C90.6503 107.482 93.0203 106.622 95.6103 107.542C95.9103 107.642 95.9203 107.472 95.9203 107.252C95.9237 106.68 95.9874 106.11 96.1103 105.552C96.5925 103.831 97.5045 102.262 98.7603 100.992C100.63 98.7816 102.76 96.8016 104.61 94.5616C105.883 93.1059 106.946 91.4803 107.77 89.7316C108.373 88.5272 108.674 87.1945 108.648 85.8481C108.622 84.5017 108.269 83.1817 107.62 82.0016C106.666 80.3991 105.473 78.9523 104.08 77.7116C103.047 76.6694 101.793 75.8731 100.41 75.3816C99.1803 74.9916 98.0003 74.4816 96.7803 73.9916C95.5603 73.5016 94.2703 72.9916 93.0003 72.4316C92.8998 72.3798 92.7884 72.3528 92.6753 72.3528C92.5623 72.3528 92.4508 72.3798 92.3503 72.4316C91.1646 72.9756 89.8749 73.2554 88.5703 73.2516C88.7236 73.1645 88.8945 73.1133 89.0703 73.1016C90.3529 72.9101 91.5537 72.3548 92.5303 71.5016C93.0578 70.9554 93.4718 70.3101 93.7481 69.6029C94.0245 68.8957 94.1578 68.1407 94.1403 67.3816C94.142 65.4698 94.0284 63.5597 93.8003 61.6616C93.6903 60.0216 93.4203 58.3416 94.5703 56.8916C94.6703 56.7616 94.7203 56.6316 94.4703 56.5516C93.4075 56.1355 92.5329 55.3462 92.0103 54.3316C91.1203 52.9616 90.4603 51.4516 89.6303 50.0416C88.4703 48.0416 87.3403 46.0416 84.7803 45.4416C85.6333 45.3773 86.4884 45.533 87.264 45.8937C88.0397 46.2543 88.7098 46.8079 89.2103 47.5016C90.1831 48.7639 91.021 50.1247 91.7103 51.5616C92.3526 52.9522 93.1583 54.2615 94.1103 55.4616C94.2803 55.6416 94.4003 55.9416 94.7503 55.8516C94.6003 56.0316 94.7503 56.0916 94.8903 56.1616C95.1365 56.3528 95.4188 56.4923 95.7203 56.5716C95.9403 56.5716 95.9803 56.6916 95.8403 56.8816C95.1396 57.8713 94.8395 59.0896 95.0003 60.2916C95.1203 62.0416 95.3103 63.7816 95.4303 65.5416C95.6471 67.1524 95.3936 68.7915 94.7003 70.2616C94.5103 70.6316 94.7003 70.7016 94.9703 70.7816L101.38 72.4216C103.086 72.8705 104.864 72.9725 106.61 72.7216C108.479 72.483 110.287 71.8962 111.94 70.9916C113.16 70.2913 114.188 69.3005 114.933 68.1073C115.678 66.914 116.117 65.5552 116.21 64.1516C116.41 61.9137 116.37 59.6608 116.09 57.4316C115.86 55.0616 115.44 52.7116 115.32 50.3316C115.22 48.4516 115.18 46.5716 116.21 44.8716C116.43 44.5016 116.66 44.1316 116.89 43.7316C115.175 43.2797 113.687 42.2116 112.71 40.7316C111.294 38.7074 110.011 36.5929 108.87 34.4016C107.596 31.9206 106.006 29.6148 104.14 27.5416C103.078 26.3525 101.709 25.4796 100.183 25.0191C98.6564 24.5586 97.0327 24.5283 95.4903 24.9316C93.8125 25.375 92.204 26.048 90.7103 26.9316C89.7364 27.4231 88.8697 28.1029 88.1603 28.9316L82.7603 35.4316C82.0703 36.2716 81.3703 37.1216 80.6503 37.9416C80.2203 38.4316 80.2003 38.4016 80.0103 37.8016C79.9603 37.6316 80.0103 37.4016 79.7203 37.3516C79.1103 37.2416 79.2803 36.9216 79.5003 36.5516C80.8903 34.2016 82.3703 31.9116 83.8603 29.6216C84.7069 28.4321 85.4592 27.1783 86.1103 25.8716C87.1599 23.3862 87.5492 20.6717 87.2403 17.9916C87.1673 16.7693 86.8146 15.5801 86.2095 14.5156C85.6045 13.4511 84.7631 12.5397 83.7503 11.8516C82.6118 11.0797 81.3694 10.4736 80.0603 10.0516C77.667 9.26611 75.2163 8.66765 72.7303 8.26156C72.2095 8.06729 71.656 7.9756 71.1003 7.99156C70.2203 7.09156 69.5303 6.04156 68.7003 5.10156C68.1535 4.57921 67.6732 3.99145 67.2703 3.35156C68.9029 3.8372 70.5766 4.17194 72.2703 4.35156C73.5303 4.47156 74.7703 4.75156 76.0203 4.89156C77.2703 5.03156 78.3603 5.14156 79.5203 5.37156C81.8205 5.73824 84.0319 6.53189 86.0403 7.71156C88.0773 8.95232 89.6404 10.8392 90.4803 13.0716C90.6172 13.3325 90.7149 13.6122 90.7703 13.9016C90.7703 14.4116 91.0203 14.3816 91.3803 14.2016C92.7195 13.4659 94.1259 12.8598 95.5803 12.3916C96.2586 12.1694 96.9666 12.0514 97.6803 12.0416C98.1003 12.0416 98.3503 12.1816 98.4303 12.5916C98.5745 13.1449 98.6649 13.7109 98.7003 14.2816C98.7003 15.0016 98.7003 15.7116 98.7003 16.4316C98.6722 17.4394 98.5585 18.443 98.3603 19.4316C98.2603 20.1116 98.3003 20.2116 98.9803 20.1916C100.63 20.1787 102.26 20.5508 103.741 21.2781C105.221 22.0055 106.512 23.0681 107.51 24.3816C109.161 26.4622 110.53 28.752 111.58 31.1916C112.704 33.7881 113.994 36.3099 115.44 38.7416C116.343 40.3532 117.8 41.5826 119.54 42.2016C119.767 42.2914 120.007 42.3422 120.25 42.3516C120.38 42.3516 120.56 42.3516 120.61 42.4816C120.62 42.552 120.61 42.6236 120.582 42.6888C120.554 42.754 120.508 42.8103 120.45 42.8516C119.409 43.8467 118.766 45.1868 118.64 46.6216C118.486 47.6156 118.486 48.6275 118.64 49.6216C118.79 50.6816 118.99 51.7416 119.11 52.8016C119.21 53.6416 119.48 54.4216 119.62 55.2416C119.88 56.8716 120.25 58.4716 120.46 60.1116C120.643 61.8051 120.687 63.5109 120.59 65.2116C120.503 66.5311 120.192 67.8262 119.67 69.0416C118.962 70.676 117.851 72.104 116.44 73.1916C116.06 73.5116 116.08 73.7316 116.44 74.0616C117.759 75.2986 118.879 76.7322 119.76 78.3116C120.39 79.4616 120.44 79.6816 119.12 80.3116C117.425 81.0927 115.637 81.6572 113.8 81.9916C113.541 82.0217 113.279 82.0217 113.02 81.9916C112.58 81.9916 112.46 82.1616 112.58 82.5616C112.7 82.9616 112.79 83.2616 112.9 83.6116C113.335 85.2659 113.399 86.9958 113.088 88.6777C112.777 90.3597 112.098 91.9522 111.1 93.3416C109.416 95.7092 107.448 97.8618 105.24 99.7516C103.491 101.264 101.841 102.887 100.3 104.612C99.4586 105.522 98.836 106.613 98.4803 107.802C98.327 108.588 98.2732 109.391 98.3203 110.192C98.3203 110.462 98.3203 110.732 98.3203 111.062C97.8303 110.872 97.4003 110.692 96.9603 110.532C95.2902 109.984 93.4743 110.091 91.8803 110.832C89.5351 111.845 87.2571 113.007 85.0603 114.312C82.5717 115.854 79.8787 117.039 77.0603 117.832C73.6703 118.632 70.3903 118.452 67.4403 116.322C67.0403 116.032 66.8703 116.132 66.6503 116.532C65.8251 118.123 64.7668 119.583 63.5103 120.862C62.9403 121.422 62.6803 121.412 62.1103 120.862C61.163 119.839 60.3126 118.731 59.5703 117.552V117.552Z" fill="#FBE5D3"/>
<path d="M67.2695 3.37082C67.6725 4.01071 68.1528 4.59847 68.6995 5.12082C69.5295 6.06082 70.2195 7.12082 71.0995 8.01082C72.3202 9.65684 73.4325 11.3805 74.4295 13.1708C76.9617 17.6695 77.8691 22.9023 76.9995 27.9908C76.595 30.229 76.0641 32.4426 75.4095 34.6208C75.2795 35.1225 75.2795 35.6491 75.4095 36.1508C75.8046 37.865 75.8046 39.6466 75.4095 41.3608C75.35 41.0739 75.3099 40.7832 75.2895 40.4908C75.2423 39.758 75.0395 39.0436 74.6947 38.3953C74.3498 37.747 73.8708 37.1796 73.2895 36.7308C72.3034 36.0193 71.1847 35.5127 69.9995 35.2408C68.4295 34.7808 66.7995 34.5808 65.2195 34.1808C63.9795 33.8808 62.7695 33.5208 62.4495 32.0208C62.4495 31.8308 62.2895 31.7608 62.1095 31.9108C61.6544 32.2198 61.2381 32.5824 60.8695 32.9908C60.6512 33.2806 60.3666 33.5137 60.0395 33.6708C59.1068 34.088 58.1208 34.3741 57.1095 34.5208C55.4461 34.7842 53.8096 35.1958 52.2195 35.7508C51.3402 36.0466 50.5472 36.5544 49.9106 37.2294C49.274 37.9043 48.8134 38.7257 48.5695 39.6208C48.428 40.4733 48.3644 41.3368 48.3795 42.2008C48.0973 41.1527 47.9066 40.082 47.8095 39.0008C47.3297 36.2741 47.0987 33.5094 47.1195 30.7408C47.1195 30.2608 47.0395 29.7408 47.1195 29.3008C47.2395 28.3008 47.2795 27.3008 47.4595 26.3508C47.7716 24.2016 48.5057 22.1353 49.6195 20.2708C50.1562 19.3839 50.7974 18.5647 51.5295 17.8308C53.0816 16.3933 54.7545 15.0918 56.5295 13.9408C58.3832 12.7709 60.0235 11.293 61.3795 9.57082C62.4041 8.18217 63.1542 6.61072 63.5895 4.94082C64.0366 3.858 64.2447 2.69143 64.1995 1.52082C64.4695 1.24082 64.0195 0.87082 64.3295 0.59082C64.5195 0.74082 64.7195 0.87082 64.8995 1.03082C65.4695 1.51082 65.8995 2.14082 66.4995 2.60082L66.6795 2.77082L66.8495 2.91082L67.0595 3.17082L67.1995 3.30082L67.2695 3.37082Z" fill="#FBE5D3"/>
<path d="M66.46 2.59086C65.86 2.13086 65.46 1.50086 64.86 1.02086C64.68 0.860861 64.48 0.730861 64.29 0.580861C64.44 0.420861 64.5 0.580861 64.57 0.670861C65.21 1.30086 65.83 1.99086 66.46 2.59086Z" fill="#FBE5D3"/>
<path d="M66.82 2.92113L66.79 2.94113L66.81 2.91113L66.82 2.92113Z" fill="#FBE5D3"/>
<path d="M67.02 3.1709L67 3.1809H67.03L67.02 3.1709Z" fill="#FBE5D3"/>
<path d="M94.7904 55.8017C94.1904 55.1017 94.4704 54.3817 94.7904 53.6817C95.5304 52.0217 96.2804 50.3517 97.0504 48.6817C97.1896 48.3803 97.3879 48.11 97.6336 47.8867C97.8792 47.6633 98.1672 47.4916 98.4804 47.3817C98.5804 47.3817 98.6804 47.3217 98.7404 47.2217C98.9867 46.8157 99.1024 46.3438 99.072 45.8699C99.0416 45.3961 98.8665 44.9429 98.5704 44.5717C98.0805 43.8834 97.7056 43.1202 97.4604 42.3117C97.2046 41.6131 96.81 40.9736 96.3004 40.4317C96.0904 40.2117 95.7704 40.2817 95.5004 40.3117C94.7994 40.448 94.1244 40.6944 93.5004 41.0417C93.0116 41.2352 92.4832 41.3073 91.9604 41.2517C91.5604 41.2517 91.4704 40.9917 91.6004 40.6417C91.6779 40.4088 91.8087 40.1971 91.9823 40.0235C92.1559 39.85 92.3675 39.7192 92.6004 39.6417C93.4541 39.3732 94.263 38.9788 95.0004 38.4717C95.3946 38.2432 95.8236 38.081 96.2704 37.9917C96.4651 37.9445 96.6449 37.8493 96.7933 37.7148C96.9418 37.5803 97.0543 37.4108 97.1204 37.2217C97.1204 37.1117 97.1804 36.8917 97.3804 37.0117C97.5804 37.1317 97.7404 37.1117 97.8504 36.8917C97.9604 36.6717 98.1704 36.4217 97.9304 36.1717C97.6391 35.8053 97.4433 35.3723 97.3604 34.9117C97.3297 34.7384 97.2538 34.5763 97.1404 34.4417C96.8845 34.2069 96.7148 33.893 96.6586 33.5503C96.6023 33.2076 96.6629 32.8559 96.8304 32.5517C97.0562 32.1162 97.4105 31.7608 97.8452 31.5336C98.2799 31.3064 98.774 31.2184 99.2604 31.2817C99.6619 31.3353 100.039 31.5034 100.348 31.7659C100.657 32.0283 100.883 32.374 101 32.7617C101.055 32.9255 101.076 33.099 101.06 33.2711C101.045 33.4432 100.994 33.6103 100.91 33.7617C100.658 34.1969 100.501 34.681 100.45 35.1817C100.392 35.5568 100.221 35.9055 99.9604 36.1817C99.5904 36.5717 99.6904 36.8617 100.24 36.9617C100.57 37.0241 100.905 37.0543 101.24 37.0517C101.609 37.0293 101.976 37.1222 102.289 37.3175C102.603 37.5128 102.848 37.8009 102.99 38.1417C103.604 39.2727 104.346 40.3296 105.2 41.2917C105.499 41.6325 105.867 41.9053 106.28 42.0917C107.28 42.6117 108.37 43.0917 109.39 43.6517C109.99 43.8767 110.511 44.2719 110.89 44.7888C111.268 45.3058 111.487 45.9219 111.52 46.5617C111.52 46.7417 111.62 47.0017 111.4 47.0717C111.18 47.1417 111.08 46.9017 111.01 46.7317C110.608 46.002 110.111 45.3294 109.53 44.7317C109.193 44.3971 108.759 44.1768 108.29 44.1017C106.638 43.6043 105.095 42.8003 103.74 41.7317C103.35 41.4117 103.01 41.0417 102.64 40.7317C102.57 40.6617 102.49 40.5617 102.38 40.6117C102.27 40.6617 102.29 40.7817 102.28 40.8817C102.24 41.2513 102.338 41.6227 102.557 41.9239C102.775 42.2251 103.097 42.4345 103.46 42.5117C103.76 42.5717 103.88 42.6717 103.85 42.9717C103.84 43.0675 103.865 43.1637 103.92 43.2427C103.975 43.3217 104.057 43.3781 104.15 43.4017C104.38 43.4817 104.6 43.5817 104.83 43.6817C105.297 43.8824 105.698 44.2118 105.984 44.6315C106.271 45.0511 106.433 45.5437 106.45 46.0517C106.445 46.5225 106.526 46.9904 106.69 47.4317C106.85 47.8775 106.881 48.3591 106.78 48.8217C106.652 49.4387 106.679 50.078 106.86 50.6817C107.014 51.1763 107.067 51.6968 107.015 52.2122C106.964 52.7276 106.809 53.2273 106.56 53.6817C106.33 54.1312 106.129 54.5956 105.96 55.0717C105.604 56.136 105.055 57.1258 104.34 57.9917C103.92 58.4517 103.98 58.5917 104.44 58.6917C105.27 58.8517 105.33 58.9117 105.1 59.7517C104.934 60.3534 104.887 60.9818 104.96 61.6017C105.04 62.3017 104.84 62.4917 104.14 62.4317L103.62 62.3617C103.62 62.3617 103.62 62.2717 103.62 62.2617C104.26 61.7317 104.2 61.7517 103.92 60.9717C103.627 60.2851 103.089 59.7325 102.41 59.4217C102.31 59.3617 102.18 59.2917 102.08 59.4217C101.98 59.5517 102.08 59.6117 102.14 59.7017C102.214 59.7742 102.268 59.8647 102.297 59.9642C102.325 60.0637 102.327 60.1689 102.303 60.2695C102.279 60.3702 102.229 60.4629 102.159 60.5386C102.088 60.6143 101.999 60.6705 101.9 60.7017C101.37 61.0217 101.34 61.4317 101.79 61.8917C101.97 62.0917 102.37 62.2217 102.26 62.5117C102.15 62.8017 101.74 62.6517 101.47 62.6717C101.297 62.6827 101.124 62.6538 100.964 62.5873C100.804 62.5207 100.662 62.4181 100.548 62.2876C100.433 62.1571 100.351 62.0021 100.306 61.8346C100.262 61.6671 100.256 61.4916 100.29 61.3217C100.318 60.9889 100.318 60.6544 100.29 60.3217C100.224 59.8011 100.36 59.275 100.67 58.8517C100.97 58.4817 100.83 58.1117 100.4 57.8517C99.9704 57.5917 99.3404 57.2717 98.8204 56.9517C98.3831 56.6937 98.0183 56.329 97.7604 55.8917C97.4804 55.4217 97.3704 55.4417 97.0204 55.8917C96.9383 56.0017 96.8481 56.1053 96.7504 56.2017C96.3204 56.5917 96.1704 56.5917 95.8604 56.1217C95.8175 56.0362 95.746 55.9684 95.6583 55.93C95.5707 55.8917 95.4723 55.8852 95.3804 55.9117C95.163 55.9748 94.9294 55.9497 94.7304 55.8417L94.7904 55.8017Z" fill="#FBE5D3"/>
<path d="M84.8601 80.4214L82.1701 82.5414C79.3805 84.7303 76.71 87.067 74.1701 89.5414C73.7701 89.9314 73.3402 89.6914 72.8302 89.7214C73.2092 89.228 73.6456 88.7816 74.1301 88.3914C76.7747 85.9209 79.5415 83.5846 82.4201 81.3914C84.1201 80.0614 85.8401 78.7614 87.5601 77.4614C87.8401 77.2514 87.8801 77.0914 87.6401 76.8014C86.6783 75.6348 85.4213 74.7474 84.0001 74.2314C82.2501 73.5614 80.5601 72.7514 78.8101 71.9814C78.9401 71.7214 79.3401 71.6614 79.2001 71.2914C79.2001 71.2014 79.3102 71.1914 79.4002 71.2014C79.5523 71.2286 79.7026 71.2653 79.8501 71.3114C80.0401 71.3714 80.3302 71.3114 80.4002 71.5314C80.4702 71.7514 80.1101 71.7414 80.0601 71.9914L82.8601 73.2214L85.6902 74.4314C85.8902 74.5214 86.0802 74.6714 86.3302 74.5214C86.4202 74.5214 86.5401 74.5214 86.6101 74.6214C87.3601 75.3614 88.2301 75.9714 88.9201 76.7814C89.1601 77.0714 89.1101 77.2114 88.8401 77.4014C88.3601 77.7414 87.9101 78.1214 87.4201 78.4014C87.3629 78.4308 87.3122 78.4714 87.271 78.5208C87.2298 78.5702 87.199 78.6274 87.1803 78.689C87.1617 78.7506 87.1556 78.8153 87.1624 78.8792C87.1693 78.9432 87.1889 79.0051 87.2201 79.0614C87.7812 80.4854 88.4847 81.849 89.3201 83.1314C90.3485 84.6617 91.21 86.2977 91.8901 88.0114C92.5258 89.8599 92.4145 91.8836 91.5802 93.6514C90.7958 95.5133 89.6659 97.2099 88.2501 98.6514C88.1916 98.7132 88.1281 98.7701 88.0601 98.8214C87.9901 98.8814 87.9301 98.9614 87.8401 98.8814C87.7501 98.8014 87.8401 98.7114 87.8401 98.6414C87.9901 98.4214 88.1301 98.2014 88.2901 98.0014C89.3086 96.7523 89.9261 95.2248 90.0617 93.6189C90.1974 92.0129 89.8448 90.4035 89.0502 89.0014C88.749 88.3983 88.3042 87.8786 87.7549 87.488C87.2056 87.0973 86.5686 86.8478 85.9002 86.7614C85.3902 86.7614 85.1701 86.8814 85.0601 87.4014C84.7101 89.1814 84.6101 90.9914 84.3501 92.7814C83.8901 95.8514 83.6501 98.9614 82.9301 102.001C82.6258 103.385 81.8561 104.622 80.7496 105.507C79.6431 106.391 78.2667 106.869 76.8501 106.861C76.1763 106.911 75.499 106.84 74.8501 106.651C74.3794 106.52 73.9441 106.285 73.5764 105.963C73.2087 105.641 72.9182 105.241 72.7261 104.792C72.5341 104.342 72.4455 103.856 72.467 103.367C72.4885 102.879 72.6194 102.402 72.8501 101.971C73.6344 100.526 74.9566 99.4484 76.5301 98.9714C77.9447 98.4489 79.4933 98.4137 80.9301 98.8714C82.3801 99.2614 82.1402 99.4614 82.4102 97.9714C83.1802 93.7714 83.7702 89.5314 84.3302 85.2914C84.5202 83.8614 84.7301 82.4414 84.9201 81.0114C84.9201 80.8414 84.9201 80.6714 84.9201 80.5014L84.8601 80.4214Z" fill="#FBE5D3"/>
<path d="M26.0496 31.8311C26.1281 31.9226 26.1953 32.0234 26.2496 32.1311C26.7696 33.3511 26.8896 33.1311 27.9696 32.8411C28.7212 32.5736 29.4939 32.3696 30.2796 32.2311C30.652 32.2075 31.0243 32.2786 31.3617 32.4377C31.6992 32.5968 31.9909 32.8388 32.2096 33.1411C32.4745 33.4898 32.7024 33.8651 32.8896 34.2611C33.0958 34.6243 33.3744 34.9413 33.7081 35.1924C34.0418 35.4436 34.4235 35.6235 34.8296 35.7211C34.9572 35.7773 35.1003 35.7882 35.235 35.7518C35.3696 35.7154 35.4877 35.634 35.5696 35.5211C35.8296 35.1911 36.0996 34.8711 36.3696 34.5211C36.5013 34.345 36.691 34.2214 36.9052 34.1719C37.1194 34.1225 37.3442 34.1505 37.5396 34.2511C37.9975 34.4253 38.4133 34.6945 38.7596 35.0411C38.9226 35.2574 39.0243 35.5136 39.0542 35.7828C39.0842 36.0519 39.0411 36.3242 38.9296 36.5711C38.8169 37.0745 38.6016 37.5492 38.297 37.9656C37.9924 38.382 37.6052 38.7311 37.1596 38.9911C36.7685 39.2549 36.4721 39.637 36.3137 40.0814C36.1554 40.5259 36.1434 41.0093 36.2796 41.4611C36.3696 41.7211 36.5696 41.6711 36.7496 41.6711C37.5486 41.6404 38.3441 41.5502 39.1296 41.4011C39.5241 41.3417 39.9252 41.3417 40.3196 41.4011C40.5196 41.4011 40.5996 41.5311 40.5896 41.7011C40.5548 42.0228 40.4013 42.3199 40.159 42.5344C39.9167 42.749 39.6032 42.8654 39.2796 42.8611C38.219 42.8456 37.1589 42.9159 36.1096 43.0711C34.5896 43.2611 34.4696 43.1311 34.4996 41.6511C34.4996 41.2511 34.4996 40.8511 34.4996 40.4511C34.4996 40.0511 34.3596 40.0311 34.0596 40.0911C33.0596 40.2911 31.9796 40.5011 30.9396 40.6911C30.8648 40.7044 30.7948 40.7373 30.7368 40.7865C30.6789 40.8357 30.635 40.8994 30.6096 40.9711C30.3 41.4742 30.1197 42.0462 30.0848 42.6359C30.0499 43.2257 30.1615 43.8149 30.4096 44.3511C30.8588 45.4278 31.155 46.5622 31.2896 47.7211C31.4296 48.5411 31.3696 48.6211 30.6096 48.9111C29.7925 49.2113 28.9301 49.3702 28.0596 49.3811C27.4496 49.3811 26.8396 49.3811 26.2396 49.4811C25.7019 49.5035 25.1877 49.7076 24.7809 50.0599C24.374 50.4122 24.0987 50.8921 23.9996 51.4211C23.8896 51.8011 23.8196 52.2011 23.7196 52.5911C23.6196 52.9811 23.4596 53.0911 23.0896 52.8111C22.8869 52.6693 22.7304 52.4711 22.6396 52.2411C22.5596 52.0111 22.5096 51.7811 22.4196 51.5511C22.3296 51.3211 22.3096 50.8511 21.9996 50.8511C21.6896 50.8511 21.6996 51.2711 21.5996 51.5211C21.48 51.8711 21.48 52.251 21.5996 52.6011C21.8396 53.5111 21.6596 53.7811 20.6996 53.9611C19.9713 54.031 19.238 54.031 18.5096 53.9611C17.2796 53.9611 16.0396 53.9011 14.8096 53.8911C14.6311 53.9152 14.4496 53.8792 14.2938 53.7886C14.1381 53.6981 14.017 53.5582 13.9496 53.3911C13.5747 52.7071 13.2794 51.9823 13.0696 51.2311C13.0196 50.9511 13.0696 50.8211 13.3696 50.8411H13.4196C14.4196 50.6911 15.1796 50.8411 15.4196 52.0011C15.5596 52.6011 15.9696 52.8211 16.6096 52.7811C17.357 52.7594 18.105 52.7828 18.8496 52.8511C19.1796 52.8511 19.2696 52.7611 19.1196 52.4611C19.0496 52.3411 18.9996 52.2111 18.9296 52.0911C18.6496 51.6311 18.4896 51.2011 19.1796 50.9511C19.3796 50.8711 19.3396 50.6611 19.3596 50.5011C19.3556 50.3566 19.3801 50.2127 19.4318 50.0778C19.4834 49.9428 19.5611 49.8193 19.6605 49.7143C19.7598 49.6094 19.8789 49.5251 20.0109 49.4662C20.1429 49.4073 20.2852 49.3749 20.4296 49.3711C21.1477 49.2573 21.8312 48.984 22.4296 48.5711C23.0956 48.0991 23.8222 47.719 24.5896 47.4411C25.5896 47.0711 25.5896 47.0611 25.5896 46.0211C25.6946 44.8067 25.6946 43.5855 25.5896 42.3711C25.5718 42.182 25.5383 41.9946 25.4896 41.8111C25.3489 41.3744 25.3494 40.9045 25.4913 40.4682C25.6331 40.0319 25.909 39.6514 26.2796 39.3811C27.7388 38.0872 29.3548 36.9819 31.0896 36.0911C31.3796 35.9411 31.4196 35.8011 31.2496 35.5411C31.1436 35.3689 31.0597 35.1841 30.9996 34.9911C30.7296 34.0611 29.9996 33.9311 29.2096 33.9911C28.3213 34.1507 27.4219 34.241 26.5196 34.2611C25.5896 34.2111 25.1696 33.6011 25.5196 32.7411C25.6796 32.4811 25.8496 32.2011 26.0496 31.8311Z" fill="#FBE5D3"/>
<path d="M37.9997 98.6009C38.6004 98.9567 39.256 99.2102 39.9397 99.3509C40.0797 99.3509 40.2897 99.3509 40.2697 99.5809C40.2497 99.8109 40.0397 99.8109 39.8797 99.8009C38.8297 99.8009 37.7897 99.8009 36.7397 99.7409C36.3897 99.7409 36.2997 99.5709 36.3097 99.2009C36.2849 98.0774 35.9899 96.9764 35.4497 95.9909C35.4089 95.9227 35.3538 95.8642 35.2882 95.8193C35.2226 95.7744 35.1481 95.7442 35.0697 95.7309C33.9104 95.307 32.7202 94.9727 31.5097 94.7309C31.1497 94.6609 30.9097 94.7309 30.8997 95.1709C30.8997 95.4009 30.8197 95.6209 30.7997 95.8409C30.7797 96.0609 30.6897 96.3709 30.2497 96.3009C29.8097 96.2309 29.9997 95.9909 29.9997 95.7009C30.0096 95.6146 30.0096 95.5273 29.9997 95.4409C29.9997 95.2209 30.2197 94.9309 29.9997 94.8109C29.7797 94.6909 29.5097 94.9109 29.3097 95.0609C28.3097 95.8009 27.4297 96.6109 26.4097 97.2709C26.1797 97.4209 26.0397 97.4709 25.8497 97.2709C25.3297 96.6809 24.8497 96.1009 24.2797 95.5309C24.1297 95.3709 24.1697 95.2709 24.2797 95.1309C24.9697 94.2409 25.5397 93.2609 26.1697 92.3309C26.3508 91.9364 26.5012 91.5285 26.6197 91.1109C26.7144 90.8527 26.8897 90.6318 27.1197 90.4809C27.3797 90.3309 27.6297 90.0709 27.2497 89.7509C27.172 89.6677 27.1152 89.5671 27.0839 89.4576C27.0526 89.3481 27.0477 89.2327 27.0697 89.1209C27.0697 88.6609 26.8997 88.3909 26.3897 88.4309C26.1697 88.4309 25.9397 88.4309 25.7197 88.4309C25.5279 88.4957 25.3209 88.5006 25.1262 88.4452C24.9315 88.3897 24.7582 88.2765 24.6292 88.1204C24.5002 87.9644 24.4217 87.7728 24.4039 87.5712C24.3861 87.3695 24.43 87.1672 24.5297 86.9909C24.7175 86.2811 25.1232 85.6481 25.6897 85.1809C26.1097 84.9209 26.0897 84.4009 26.3897 84.0609C26.6101 83.7952 26.8738 83.5687 27.1697 83.3909C27.6197 83.1309 27.6597 82.6609 27.9197 82.3109C28.0197 82.1809 27.9197 82.0409 27.9197 81.9209C27.7788 81.4684 27.7412 80.99 27.8097 80.5209C27.8375 80.2393 27.9607 79.9757 28.159 79.7737C28.3573 79.5718 28.6186 79.4438 28.8997 79.4109C29.2283 79.3662 29.5628 79.4192 29.8616 79.5632C30.1603 79.7072 30.41 79.936 30.5797 80.2209C30.9448 81.1151 30.9448 82.1168 30.5797 83.0109C30.565 83.0715 30.5339 83.1269 30.4898 83.171C30.4457 83.2151 30.3903 83.2462 30.3297 83.2609C30.1897 83.2609 30.0597 83.3609 30.0897 83.5409C30.1197 83.7209 30.2797 83.6409 30.3797 83.6909C31.3692 84.1048 32.4625 84.2027 33.5097 83.9709C35.2997 83.5909 37.0697 84.0709 38.8397 83.8909C39.1354 83.8561 39.4341 83.8561 39.7297 83.8909C40.4397 83.9809 40.5697 84.1609 40.4997 84.8909C40.5015 84.9763 40.4784 85.0603 40.4333 85.1327C40.3882 85.2052 40.3229 85.2629 40.2456 85.299C40.1682 85.335 40.082 85.3478 39.9975 85.3357C39.913 85.3236 39.8339 85.2872 39.7697 85.2309C39.4871 84.9587 39.1204 84.7907 38.7297 84.7543C38.3391 84.718 37.9476 84.8155 37.6197 85.0309C36.9981 85.4269 36.2644 85.6094 35.5297 85.5509C35.2597 85.5509 35.0897 85.5509 35.0197 85.9109C34.9497 86.2709 34.4997 86.3309 34.2097 86.2409C33.2697 85.9509 32.5497 86.6609 31.6997 86.7409C31.5397 86.7409 31.5097 86.9409 31.5197 87.1209C31.5197 88.1209 31.6097 89.1209 31.5897 90.0509C31.5897 90.4709 31.7097 90.5809 32.1097 90.6809C33.5097 91.0009 34.9197 91.2709 36.2897 91.6809C36.5181 91.7425 36.7283 91.8583 36.9024 92.0185C37.0765 92.1786 37.2094 92.3784 37.2897 92.6009C37.8597 94.2209 38.4197 95.8509 38.9897 97.4709C39.0997 97.7609 38.9897 97.9209 38.7297 98.0609C38.4442 98.1756 38.1929 98.3615 37.9997 98.6009Z" fill="#FBE5D3"/>
<path d="M45.5303 72.8908C44.4403 73.3508 43.4303 73.7708 42.4103 74.1808C41.3903 74.5908 40.0503 75.1108 38.8803 75.6008C37.9476 76.1026 37.1221 76.7821 36.4503 77.6008C36.2303 77.8208 36.4503 77.9508 36.6203 78.0508C38.0603 79.2108 39.5103 80.3508 40.9403 81.5108C43.0003 83.2108 45.0603 84.9908 47.0503 86.7308C48.2803 87.8308 49.4503 89.0008 50.6303 90.1508C50.7503 90.2708 50.9703 90.3808 50.9403 90.5508C50.9103 90.7208 50.6503 90.6508 50.5003 90.7208C50.3475 90.784 50.1776 90.7926 50.0191 90.7453C49.8607 90.6979 49.7234 90.5975 49.6303 90.4608C47.1665 87.9351 44.5553 85.5576 41.8103 83.3408C39.7169 81.6342 37.6236 79.9342 35.5303 78.2408C35.2503 78.0208 35.2303 77.8808 35.4803 77.5908C36.4632 76.5028 37.71 75.6866 39.1003 75.2208C40.7403 74.6108 42.3603 73.9208 43.9903 73.2208C44.2903 73.1008 44.5003 73.0108 44.1003 72.7408C44.0602 72.721 44.0265 72.6903 44.003 72.6523C43.9794 72.6143 43.9669 72.5705 43.9669 72.5258C43.9669 72.4811 43.9794 72.4373 44.003 72.3993C44.0265 72.3613 44.0602 72.3307 44.1003 72.3108C44.3767 72.213 44.6611 72.1394 44.9503 72.0908C45.0203 72.0908 45.1103 72.0908 45.0903 72.2008C45.0003 72.5608 45.2903 72.6708 45.5303 72.8908Z" fill="#FBE5D3"/>
<path d="M66.5801 67.731C66.6656 67.1049 66.8233 66.4908 67.0501 65.901C67.4433 64.5146 67.6847 63.0896 67.7701 61.651C67.757 61.4362 67.8044 61.2221 67.9069 61.033C68.0095 60.8438 68.163 60.6872 68.3501 60.581C68.5611 60.4766 68.7428 60.3215 68.879 60.1295C69.0151 59.9375 69.1014 59.7146 69.1301 59.481C69.2001 58.961 69.4601 58.901 69.9001 59.181C70.2093 59.4012 70.4434 59.7113 70.5704 60.0691C70.6974 60.4268 70.7113 60.8151 70.6101 61.181C70.4032 62.5908 69.85 63.9273 69.0001 65.071C68.451 65.8893 67.8284 66.6558 67.1401 67.361C67.0016 67.5452 66.8038 67.6759 66.5801 67.731V67.731Z" fill="#FBE5D3"/>
<path d="M57.4696 67.7112C56.9379 67.3228 56.4806 66.8418 56.1196 66.2912C55.0957 65.1216 54.3109 63.7626 53.8096 62.2912C53.5267 61.58 53.4538 60.8026 53.5996 60.0512C53.6548 59.8128 53.7643 59.5904 53.9196 59.4012C54.0117 59.2752 54.132 59.1724 54.2709 59.1012C54.4098 59.0301 54.5635 58.9924 54.7196 58.9912C55.0896 58.9912 54.9996 59.3912 55.0596 59.6212C55.2063 60.0563 55.519 60.4157 55.9296 60.6212C56.0652 60.6983 56.1776 60.8105 56.255 60.9459C56.3325 61.0814 56.372 61.2352 56.3696 61.3912C56.4578 63.0852 56.743 64.7632 57.2196 66.3912C57.4526 66.7892 57.5409 67.2555 57.4696 67.7112V67.7112Z" fill="#FBE5D3"/>
<path d="M69 44.7708C68.9951 44.8039 68.9951 44.8376 69 44.8708C69 45.7008 68.68 45.8708 67.87 45.6808C67.66 45.6208 67.67 45.4708 67.67 45.3208C67.67 44.9208 67.67 44.5208 67.67 44.1308C67.67 43.7408 67.73 43.8008 67.98 43.7808C69 43.7008 69 43.6908 69 44.7708Z" fill="#FBE5D3"/>
<path d="M46.72 44.6915V44.5915C46.72 43.7915 46.98 43.5915 47.77 43.7815C47.98 43.8315 48 43.9615 48 44.1215C48 44.2815 48 44.6815 48 44.9515C48 45.7215 48 45.6915 47.23 45.7115C46.8 45.7115 46.67 45.5415 46.71 45.1615C46.71 45.0015 46.71 44.8515 46.71 44.6915H46.72Z" fill="#FBE5D3"/>
<path d="M78.8299 45.071H79.1999C79.4399 45.071 79.4799 45.221 79.4899 45.411C79.4999 45.601 79.4299 45.741 79.1999 45.741H78.6299C78.3899 45.741 78.1699 45.741 78.1699 45.401C78.1699 45.061 78.3799 45.041 78.6199 45.061H78.8299V45.071Z" fill="#FBE5D3"/>
<path d="M71.6297 45.7014C71.3397 45.7014 71.0697 45.8314 70.9297 45.5514C70.8697 45.4314 70.8597 45.1814 71.0097 45.1314C71.391 45.0148 71.7984 45.0148 72.1797 45.1314C72.3297 45.1314 72.3297 45.4314 72.2697 45.5514C72.1197 45.8814 71.7997 45.6014 71.6297 45.7014Z" fill="#FBE5D3"/>
<path d="M60.5096 43.7713C60.7096 43.8413 60.9796 43.6413 61.1096 43.9213C61.2396 44.2013 61.1796 44.3213 60.9996 44.3713C60.6359 44.4912 60.2433 44.4912 59.8796 44.3713C59.7096 44.3013 59.7496 44.0313 59.8796 43.9013C60.0096 43.7713 60.2796 43.8213 60.5096 43.7713Z" fill="#FBE5D3"/>
<path d="M49.9995 44.681C50.0095 44.5779 50.0095 44.4741 49.9995 44.371C49.8995 43.861 50.1295 43.731 50.6195 43.751C51.3495 43.751 51.3495 43.751 51.3495 44.501C51.3495 44.611 51.3495 44.711 51.3495 44.811C51.3495 45.811 51.3495 45.731 50.4495 45.701C50.0695 45.701 49.9595 45.551 49.9995 45.201C50.0096 45.0278 50.0096 44.8541 49.9995 44.681V44.681Z" fill="#FBE5D3"/>
</g>
<defs>
<filter id="filter0_d" x="0" y="0" width="124.64" height="140.49" filterUnits="userSpaceOnUse" color-interpolation-filters="sRGB">
<feFlood flood-opacity="0" result="BackgroundImageFix"/>
<feColorMatrix in="SourceAlpha" type="matrix" values="0 0 0 0 0 0 0 0 0 0 0 0 0 0 0 0 0 0 127 0" result="hardAlpha"/>
<feOffset dy="4"/>
<feGaussianBlur stdDeviation="2"/>
<feComposite in2="hardAlpha" operator="out"/>
<feColorMatrix type="matrix" values="0 0 0 0 0 0 0 0 0 0 0 0 0 0 0 0 0 0 0.25 0"/>
<feBlend mode="normal" in2="BackgroundImageFix" result="effect1_dropShadow"/>
<feBlend mode="normal" in="SourceGraphic" in2="effect1_dropShadow" result="shape"/>
</filter>
</defs>
</svg>
