<svg width="781" height="84" viewBox="0 0 781 84" fill="none" xmlns="http://www.w3.org/2000/svg">
<path d="M31.3203 61.8828L31.3594 22.9375H43.1953V11.2188H31.3594V7.35156H19.6406V11.2188H7.96094V22.9375H19.6406V66.1797L31.3203 61.8828ZM66.5156 50.2031V22.8984L74.2891 22.9375V11.2188L66.5156 11.1797V7.3125H54.7969V11.1797L47.2578 11.2188V22.9375L54.7969 22.8984V50.1641L47.2969 50.3203V62.0781L74.2109 61.9609L74.25 50.2422L66.5156 50.2031ZM105.695 54.4219C105.409 57.7552 104.042 60.2943 101.594 62.0391L105.539 73.7969C113.586 70.3333 117.609 63.4583 117.609 53.1719H117.57V11.1797L105.773 11.2578V15.8672L97.8438 23.7578L89.9531 15.8672V11.1406H78.1562V62L89.9531 61.9609L89.9141 32.3516L97.8828 40.2812L105.812 32.3516L105.695 54.4219ZM125.344 46.4141C125.344 56.7526 130.552 61.9219 140.969 61.9219H156.594V50.2031H140.969C138.365 50.2031 137.062 48.9271 137.062 46.375V42.5078H156.594V30.7891H137.062V22.9375H156.594V11.2188H137.062V7.35156H125.344V11.2188H121.516V22.9375H125.344V46.4141ZM160.461 11.1406L160.5 62H191.867V50.2812H172.18L172.297 11.0234L160.461 11.1406ZM215.188 50.2031V22.8984L222.961 22.9375V11.2188L215.188 11.1797V7.3125H203.469V11.1797L195.93 11.2188V22.9375L203.469 22.8984V50.1641L195.969 50.3203V62.0781L222.883 61.9609L222.922 50.2422L215.188 50.2031ZM238.625 16.4531V10.9844H226.828V62L238.547 61.9609L238.586 32.3516L246.281 39.4609C249.094 41.987 250.409 45.0469 250.227 48.6406L250.266 66.2188L261.984 62V11.1797L250.188 11.2188L250.227 27.1562L238.625 16.4531ZM269.797 46.4141C269.797 56.7526 275.005 61.9219 285.422 61.9219H301.047V50.2031H285.422C282.818 50.2031 281.516 48.9271 281.516 46.375V42.5078H301.047V30.7891H281.516V22.9375H301.047V11.2188H281.516V7.35156H269.797V11.2188H265.969V22.9375H269.797V46.4141ZM342.844 22.9375L354.602 22.9766C354.602 30.737 351.945 34.6172 346.633 34.6172H342.883L342.844 22.9375ZM342.844 11.2188V7.35156H331.125V11.2188H327.062V22.9375H331.125V41.2969C331.125 45.3073 329.758 48.2891 327.023 50.2422L330.93 62C337.492 59.1354 341.346 53.9401 342.492 46.4141L342.766 46.1406H346.789C359.862 46.1146 366.359 38.3672 366.281 22.8984V11.2188H342.844ZM373.938 46.4141C373.938 56.7526 379.146 61.9219 389.562 61.9219H405.188V50.2031H389.562C386.958 50.2031 385.656 48.9271 385.656 46.375V42.5078H405.188V30.7891H385.656V22.9375H405.188V11.2188H385.656V7.35156H373.938V11.2188H370.109V22.9375H373.938V46.4141ZM420.891 16.4531V10.9844H409.094V62L420.812 61.9609L420.852 32.3516L428.547 39.4609C431.359 41.987 432.674 45.0469 432.492 48.6406L432.531 66.2188L444.25 62V11.1797L432.453 11.2188L432.492 27.1562L420.891 16.4531ZM463.781 46.375V22.9375H475.5V38.6016C475.526 46.3359 472.883 50.2031 467.57 50.2031H451.984V62.0781H467.609C480.682 62.0521 487.219 54.1875 487.219 38.4844V11.2188H463.781V7.35156H452.062V11.2188H448.234V22.9375H452.062V46.4141L463.781 46.375ZM506.633 22.8984H516.945V30.75H506.633V22.8984ZM494.992 61.9219C502.57 58.5365 506.477 52 506.711 42.3125H516.945L517.062 65.75L528.664 61.8438V11.2188H506.711V7.35156H494.992V11.2188H490.93V22.9375H494.953V42.4297C494.719 45.8672 493.352 48.4714 490.852 50.2422L494.797 62C494.849 61.974 494.901 61.9479 494.953 61.9219V62L494.992 61.9219ZM547.531 42.625C551.073 38.5365 554.953 37.7292 559.172 40.2031L564.094 30.2812C558.156 26.3229 552.635 25.9583 547.531 29.1875V22.9375H570.969V11.2188H531.984V22.9375H535.812V62.0781L547.531 62V42.625ZM598.195 61.8828L598.234 22.9375H610.07V11.2188H598.234V7.35156H586.516V11.2188H574.836V22.9375H586.516V66.1797L598.195 61.8828ZM629.445 22.8984H639.758V30.75H629.445V22.8984ZM617.805 61.9219C625.383 58.5365 629.289 52 629.523 42.3125H639.758L639.875 65.75L651.477 61.8438V11.2188H629.523V7.35156H617.805V11.2188H613.742V22.9375H617.766V42.4297C617.531 45.8672 616.164 48.4714 613.664 50.2422L617.609 62C617.661 61.974 617.714 61.9479 617.766 61.9219V62L617.805 61.9219ZM670.305 22.9375L682.062 22.9766C682.062 30.737 679.406 34.6172 674.094 34.6172H670.344L670.305 22.9375ZM683.234 62.0781H696.438L686.398 42.7031C691.346 39.0312 693.794 32.4297 693.742 22.8984V11.2188H670.305V7.35156H658.586V11.2188H654.523V22.9375H658.586V62.0391L670.148 62L670.227 46.1406H674.992L683.234 62.0781ZM713.117 22.8984H723.43V30.75H713.117V22.8984ZM701.477 61.9219C709.055 58.5365 712.961 52 713.195 42.3125H723.43L723.547 65.75L735.148 61.8438V11.2188H713.195V7.35156H701.477V11.2188H697.414V22.9375H701.438V42.4297C701.203 45.8672 699.836 48.4714 697.336 50.2422L701.281 62C701.333 61.974 701.385 61.9479 701.438 61.9219V62L701.477 61.9219ZM750.188 16.4531V10.9844H738.391V62L750.109 61.9609L750.148 32.3516L757.844 39.4609C760.656 41.987 761.971 45.0469 761.789 48.6406L761.828 66.2188L773.547 62V11.1797L761.75 11.2188L761.789 27.1562L750.188 16.4531Z" fill="#E62736"/>
<path d="M31.3203 61.8828L33.7372 68.4523L38.3154 66.768L38.3203 61.8898L31.3203 61.8828ZM31.3594 22.9375V15.9375H24.3664L24.3594 22.9305L31.3594 22.9375ZM43.1953 22.9375V29.9375H50.1953V22.9375H43.1953ZM43.1953 11.2188H50.1953V4.21875H43.1953V11.2188ZM31.3594 11.2188H24.3594V18.2188H31.3594V11.2188ZM31.3594 7.35156H38.3594V0.351562H31.3594V7.35156ZM19.6406 7.35156V0.351562H12.6406V7.35156H19.6406ZM19.6406 11.2188V18.2188H26.6406V11.2188H19.6406ZM7.96094 11.2188V4.21875H0.960938V11.2188H7.96094ZM7.96094 22.9375H0.960938V29.9375H7.96094V22.9375ZM19.6406 22.9375H26.6406V15.9375H19.6406V22.9375ZM19.6406 66.1797H12.6406V76.2136L22.0575 72.7492L19.6406 66.1797ZM38.3203 61.8898L38.3594 22.9445L24.3594 22.9305L24.3203 61.8758L38.3203 61.8898ZM31.3594 29.9375H43.1953V15.9375H31.3594V29.9375ZM50.1953 22.9375V11.2188H36.1953V22.9375H50.1953ZM43.1953 4.21875H31.3594V18.2188H43.1953V4.21875ZM38.3594 11.2188V7.35156H24.3594V11.2188H38.3594ZM31.3594 0.351562H19.6406V14.3516H31.3594V0.351562ZM12.6406 7.35156V11.2188H26.6406V7.35156H12.6406ZM19.6406 4.21875H7.96094V18.2188H19.6406V4.21875ZM0.960938 11.2188V22.9375H14.9609V11.2188H0.960938ZM7.96094 29.9375H19.6406V15.9375H7.96094V29.9375ZM12.6406 22.9375V66.1797H26.6406V22.9375H12.6406ZM22.0575 72.7492L33.7372 68.4523L28.9034 55.3133L17.2237 59.6102L22.0575 72.7492ZM66.5156 50.2031H59.5156V57.1679L66.4803 57.203L66.5156 50.2031ZM66.5156 22.8984L66.5508 15.8985L59.5156 15.8632V22.8984H66.5156ZM74.2891 22.9375L74.2539 29.9374L81.2891 29.9728V22.9375H74.2891ZM74.2891 11.2188H81.2891V4.25384L74.3242 4.21884L74.2891 11.2188ZM66.5156 11.1797H59.5156V18.1446L66.4804 18.1796L66.5156 11.1797ZM66.5156 7.3125H73.5156V0.3125H66.5156V7.3125ZM54.7969 7.3125V0.3125H47.7969V7.3125H54.7969ZM54.7969 11.1797L54.8331 18.1796L61.7969 18.1435V11.1797H54.7969ZM47.2578 11.2188L47.2215 4.21884L40.2578 4.25492V11.2188H47.2578ZM47.2578 22.9375H40.2578V29.9739L47.2941 29.9374L47.2578 22.9375ZM54.7969 22.8984H61.7969V15.8621L54.7606 15.8985L54.7969 22.8984ZM54.7969 50.1641L54.9427 57.1625L61.7969 57.0197V50.1641H54.7969ZM47.2969 50.3203L47.1511 43.3218L40.2969 43.4646V50.3203H47.2969ZM47.2969 62.0781H40.2969V69.1087L47.3274 69.0781L47.2969 62.0781ZM74.2109 61.9609L74.2414 68.9609L81.1877 68.9306L81.2109 61.9843L74.2109 61.9609ZM74.25 50.2422L81.25 50.2655L81.2733 43.2776L74.2854 43.2423L74.25 50.2422ZM73.5156 50.2031V22.8984H59.5156V50.2031H73.5156ZM66.4804 29.8983L74.2539 29.9374L74.3242 15.9376L66.5508 15.8985L66.4804 29.8983ZM81.2891 22.9375V11.2188H67.2891V22.9375H81.2891ZM74.3242 4.21884L66.5508 4.17978L66.4804 18.1796L74.2539 18.2187L74.3242 4.21884ZM73.5156 11.1797V7.3125H59.5156V11.1797H73.5156ZM66.5156 0.3125H54.7969V14.3125H66.5156V0.3125ZM47.7969 7.3125V11.1797H61.7969V7.3125H47.7969ZM54.7606 4.17978L47.2215 4.21884L47.2941 18.2187L54.8331 18.1796L54.7606 4.17978ZM40.2578 11.2188V22.9375H54.2578V11.2188H40.2578ZM47.2941 29.9374L54.8331 29.8983L54.7606 15.8985L47.2215 15.9376L47.2941 29.9374ZM47.7969 22.8984V50.1641H61.7969V22.8984H47.7969ZM54.6511 43.1656L47.1511 43.3218L47.4427 57.3188L54.9427 57.1625L54.6511 43.1656ZM40.2969 50.3203V62.0781H54.2969V50.3203H40.2969ZM47.3274 69.0781L74.2414 68.9609L74.1805 54.961L47.2664 55.0782L47.3274 69.0781ZM81.2109 61.9843L81.25 50.2655L67.25 50.2189L67.211 61.9376L81.2109 61.9843ZM74.2854 43.2423L66.551 43.2032L66.4803 57.203L74.2146 57.2421L74.2854 43.2423ZM105.695 54.4219L112.67 55.0212L112.694 54.7407L112.695 54.459L105.695 54.4219ZM101.594 62.0391L97.5308 56.3388L93.3075 59.349L94.9574 64.2659L101.594 62.0391ZM105.539 73.7969L98.9027 76.0237L101.322 83.233L108.307 80.2266L105.539 73.7969ZM117.609 53.1719H124.609V46.1719H117.609V53.1719ZM117.57 53.1719H110.57V60.1719H117.57V53.1719ZM117.57 11.1797H124.57V4.13318L117.524 4.17984L117.57 11.1797ZM105.773 11.2578L105.727 4.25797L98.7734 4.30402V11.2578H105.773ZM105.773 15.8672L110.711 20.8291L112.773 18.7768V15.8672H105.773ZM97.8438 23.7578L92.894 28.7076L97.8315 33.6451L102.781 28.7198L97.8438 23.7578ZM89.9531 15.8672H82.9531V18.7667L85.0034 20.8169L89.9531 15.8672ZM89.9531 11.1406H96.9531V4.14062H89.9531V11.1406ZM78.1562 11.1406V4.14062H71.1562V11.1406H78.1562ZM78.1562 62H71.1562V69.0232L78.1794 69L78.1562 62ZM89.9531 61.9609L89.9763 68.9609L96.9623 68.9378L96.9531 61.9517L89.9531 61.9609ZM89.9141 32.3516L94.8516 27.3897L82.8918 15.4885L82.9141 32.3608L89.9141 32.3516ZM97.8828 40.2812L92.9452 45.2431L97.895 50.1686L102.833 45.231L97.8828 40.2812ZM105.812 32.3516L112.812 32.3887L112.903 15.3618L100.863 27.4018L105.812 32.3516ZM98.721 53.8225C98.588 55.3707 98.1062 55.9287 97.5308 56.3388L105.657 67.7393C109.977 64.6598 112.23 60.1397 112.67 55.0212L98.721 53.8225ZM94.9574 64.2659L98.9027 76.0237L112.175 71.5701L108.23 59.8122L94.9574 64.2659ZM108.307 80.2266C113.558 77.9663 117.791 74.4346 120.633 69.5786C123.43 64.7993 124.609 59.2035 124.609 53.1719H110.609C110.609 57.4267 109.777 60.4116 108.55 62.5073C107.369 64.5263 105.567 66.1639 102.772 67.3672L108.307 80.2266ZM117.609 46.1719H117.57V60.1719H117.609V46.1719ZM124.57 53.1719V11.1797H110.57V53.1719H124.57ZM117.524 4.17984L105.727 4.25797L105.82 18.2577L117.617 18.1795L117.524 4.17984ZM98.7734 11.2578V15.8672H112.773V11.2578H98.7734ZM100.836 10.9052L92.9062 18.7959L102.781 28.7198L110.711 20.8291L100.836 10.9052ZM102.793 18.8081L94.9029 10.9174L85.0034 20.8169L92.894 28.7076L102.793 18.8081ZM96.9531 15.8672V11.1406H82.9531V15.8672H96.9531ZM89.9531 4.14062H78.1562V18.1406H89.9531V4.14062ZM71.1562 11.1406V62H85.1562V11.1406H71.1562ZM78.1794 69L89.9763 68.9609L89.9299 54.961L78.1331 55L78.1794 69ZM96.9531 61.9517L96.9141 32.3423L82.9141 32.3608L82.9531 61.9702L96.9531 61.9517ZM84.9765 37.3135L92.9452 45.2431L102.82 35.3194L94.8516 27.3897L84.9765 37.3135ZM102.833 45.231L110.762 37.3013L100.863 27.4018L92.9331 35.3315L102.833 45.231ZM98.8126 32.3144L98.6954 54.3847L112.695 54.459L112.812 32.3887L98.8126 32.3144ZM156.594 61.9219V68.9219H163.594V61.9219H156.594ZM156.594 50.2031H163.594V43.2031H156.594V50.2031ZM137.062 42.5078V35.5078H130.062V42.5078H137.062ZM156.594 42.5078V49.5078H163.594V42.5078H156.594ZM156.594 30.7891H163.594V23.7891H156.594V30.7891ZM137.062 30.7891H130.062V37.7891H137.062V30.7891ZM137.062 22.9375V15.9375H130.062V22.9375H137.062ZM156.594 22.9375V29.9375H163.594V22.9375H156.594ZM156.594 11.2188H163.594V4.21875H156.594V11.2188ZM137.062 11.2188H130.062V18.2188H137.062V11.2188ZM137.062 7.35156H144.062V0.351562H137.062V7.35156ZM125.344 7.35156V0.351562H118.344V7.35156H125.344ZM125.344 11.2188V18.2188H132.344V11.2188H125.344ZM121.516 11.2188V4.21875H114.516V11.2188H121.516ZM121.516 22.9375H114.516V29.9375H121.516V22.9375ZM125.344 22.9375H132.344V15.9375H125.344V22.9375ZM118.344 46.4141C118.344 52.6757 119.928 58.6548 124.319 63.0133C128.701 67.3621 134.695 68.9219 140.969 68.9219V54.9219C136.826 54.9219 135.008 53.897 134.181 53.0766C133.364 52.2658 132.344 50.4909 132.344 46.4141H118.344ZM140.969 68.9219H156.594V54.9219H140.969V68.9219ZM163.594 61.9219V50.2031H149.594V61.9219H163.594ZM156.594 43.2031H140.969V57.2031H156.594V43.2031ZM140.969 43.2031C140.711 43.2031 141.809 43.14 142.939 44.2466C144.094 45.3788 144.062 46.5358 144.062 46.375H130.062C130.062 48.7663 130.682 51.8373 133.14 54.2456C135.571 56.6282 138.623 57.2031 140.969 57.2031V43.2031ZM144.062 46.375V42.5078H130.062V46.375H144.062ZM137.062 49.5078H156.594V35.5078H137.062V49.5078ZM163.594 42.5078V30.7891H149.594V42.5078H163.594ZM156.594 23.7891H137.062V37.7891H156.594V23.7891ZM144.062 30.7891V22.9375H130.062V30.7891H144.062ZM137.062 29.9375H156.594V15.9375H137.062V29.9375ZM163.594 22.9375V11.2188H149.594V22.9375H163.594ZM156.594 4.21875H137.062V18.2188H156.594V4.21875ZM144.062 11.2188V7.35156H130.062V11.2188H144.062ZM137.062 0.351562H125.344V14.3516H137.062V0.351562ZM118.344 7.35156V11.2188H132.344V7.35156H118.344ZM125.344 4.21875H121.516V18.2188H125.344V4.21875ZM114.516 11.2188V22.9375H128.516V11.2188H114.516ZM121.516 29.9375H125.344V15.9375H121.516V29.9375ZM118.344 22.9375V46.4141H132.344V22.9375H118.344ZM160.461 11.1406L160.392 4.14097L153.456 4.20964L153.461 11.146L160.461 11.1406ZM160.5 62L153.5 62.0054L153.505 69H160.5V62ZM191.867 62V69H198.867V62H191.867ZM191.867 50.2812H198.867V43.2812H191.867V50.2812ZM172.18 50.2812L165.18 50.2604L165.159 57.2812H172.18V50.2812ZM172.297 11.0234L179.297 11.0443L179.318 3.95358L172.228 4.02378L172.297 11.0234ZM153.461 11.146L153.5 62.0054L167.5 61.9946L167.461 11.1352L153.461 11.146ZM160.5 69H191.867V55H160.5V69ZM198.867 62V50.2812H184.867V62H198.867ZM191.867 43.2812H172.18V57.2812H191.867V43.2812ZM179.18 50.3021L179.297 11.0443L165.297 11.0025L165.18 50.2604L179.18 50.3021ZM172.228 4.02378L160.392 4.14097L160.53 18.1403L172.366 18.0231L172.228 4.02378ZM215.188 50.2031H208.188V57.1679L215.152 57.203L215.188 50.2031ZM215.188 22.8984L215.223 15.8985L208.188 15.8632V22.8984H215.188ZM222.961 22.9375L222.926 29.9374L229.961 29.9728V22.9375H222.961ZM222.961 11.2188H229.961V4.25384L222.996 4.21884L222.961 11.2188ZM215.188 11.1797H208.188V18.1446L215.152 18.1796L215.188 11.1797ZM215.188 7.3125H222.188V0.3125H215.188V7.3125ZM203.469 7.3125V0.3125H196.469V7.3125H203.469ZM203.469 11.1797L203.505 18.1796L210.469 18.1435V11.1797H203.469ZM195.93 11.2188L195.893 4.21884L188.93 4.25492V11.2188H195.93ZM195.93 22.9375H188.93V29.9739L195.966 29.9374L195.93 22.9375ZM203.469 22.8984H210.469V15.8621L203.432 15.8985L203.469 22.8984ZM203.469 50.1641L203.615 57.1625L210.469 57.0197V50.1641H203.469ZM195.969 50.3203L195.823 43.3218L188.969 43.4646V50.3203H195.969ZM195.969 62.0781H188.969V69.1087L195.999 69.0781L195.969 62.0781ZM222.883 61.9609L222.913 68.9609L229.86 68.9306L229.883 61.9843L222.883 61.9609ZM222.922 50.2422L229.922 50.2655L229.945 43.2776L222.957 43.2423L222.922 50.2422ZM222.188 50.2031V22.8984H208.188V50.2031H222.188ZM215.152 29.8983L222.926 29.9374L222.996 15.9376L215.223 15.8985L215.152 29.8983ZM229.961 22.9375V11.2188H215.961V22.9375H229.961ZM222.996 4.21884L215.223 4.17978L215.152 18.1796L222.926 18.2187L222.996 4.21884ZM222.188 11.1797V7.3125H208.188V11.1797H222.188ZM215.188 0.3125H203.469V14.3125H215.188V0.3125ZM196.469 7.3125V11.1797H210.469V7.3125H196.469ZM203.432 4.17978L195.893 4.21884L195.966 18.2187L203.505 18.1796L203.432 4.17978ZM188.93 11.2188V22.9375H202.93V11.2188H188.93ZM195.966 29.9374L203.505 29.8983L203.432 15.8985L195.893 15.9376L195.966 29.9374ZM196.469 22.8984V50.1641H210.469V22.8984H196.469ZM203.323 43.1656L195.823 43.3218L196.115 57.3188L203.615 57.1625L203.323 43.1656ZM188.969 50.3203V62.0781H202.969V50.3203H188.969ZM195.999 69.0781L222.913 68.9609L222.852 54.961L195.938 55.0782L195.999 69.0781ZM229.883 61.9843L229.922 50.2655L215.922 50.2189L215.883 61.9376L229.883 61.9843ZM222.957 43.2423L215.223 43.2032L215.152 57.203L222.887 57.2421L222.957 43.2423ZM238.625 16.4531H231.625V19.5191L233.878 21.5981L238.625 16.4531ZM238.625 10.9844H245.625V3.98438H238.625V10.9844ZM226.828 10.9844V3.98438H219.828V10.9844H226.828ZM226.828 62H219.828V69.0234L226.851 69L226.828 62ZM238.547 61.9609L238.57 68.9609L245.538 68.9377L245.547 61.9702L238.547 61.9609ZM238.586 32.3516L243.336 27.2099L231.607 16.374L231.586 32.3423L238.586 32.3516ZM246.281 39.4609L241.531 44.6026L241.567 44.6359L241.604 44.6688L246.281 39.4609ZM250.227 48.6406L243.236 48.286L243.226 48.471L243.227 48.6562L250.227 48.6406ZM250.266 66.2188L243.266 66.2343L243.288 76.1706L252.637 72.805L250.266 66.2188ZM261.984 62L264.355 68.5862L268.984 66.9198V62H261.984ZM261.984 11.1797H268.984V4.15647L261.961 4.17973L261.984 11.1797ZM250.188 11.2188L250.164 4.21879L243.17 4.24195L243.188 11.2359L250.188 11.2188ZM250.227 27.1562L245.48 32.3012L257.266 43.1743L257.227 27.1391L250.227 27.1562ZM245.625 16.4531V10.9844H231.625V16.4531H245.625ZM238.625 3.98438H226.828V17.9844H238.625V3.98438ZM219.828 10.9844V62H233.828V10.9844H219.828ZM226.851 69L238.57 68.9609L238.524 54.961L226.805 55L226.851 69ZM245.547 61.9702L245.586 32.3608L231.586 32.3423L231.547 61.9517L245.547 61.9702ZM233.836 37.4932L241.531 44.6026L251.031 34.3193L243.336 27.2099L233.836 37.4932ZM241.604 44.6688C242.937 45.8666 243.305 46.9203 243.236 48.286L257.218 48.9952C257.513 43.1734 255.25 38.1074 250.959 34.2531L241.604 44.6688ZM243.227 48.6562L243.266 66.2343L257.266 66.2032L257.227 48.6251L243.227 48.6562ZM252.637 72.805L264.355 68.5862L259.613 55.4138L247.895 59.6325L252.637 72.805ZM268.984 62V11.1797H254.984V62H268.984ZM261.961 4.17973L250.164 4.21879L250.211 18.2187L262.008 18.1796L261.961 4.17973ZM243.188 11.2359L243.227 27.1734L257.227 27.1391L257.187 11.2016L243.188 11.2359ZM254.973 22.0113L243.372 11.3082L233.878 21.5981L245.48 32.3012L254.973 22.0113ZM301.047 61.9219V68.9219H308.047V61.9219H301.047ZM301.047 50.2031H308.047V43.2031H301.047V50.2031ZM281.516 42.5078V35.5078H274.516V42.5078H281.516ZM301.047 42.5078V49.5078H308.047V42.5078H301.047ZM301.047 30.7891H308.047V23.7891H301.047V30.7891ZM281.516 30.7891H274.516V37.7891H281.516V30.7891ZM281.516 22.9375V15.9375H274.516V22.9375H281.516ZM301.047 22.9375V29.9375H308.047V22.9375H301.047ZM301.047 11.2188H308.047V4.21875H301.047V11.2188ZM281.516 11.2188H274.516V18.2188H281.516V11.2188ZM281.516 7.35156H288.516V0.351562H281.516V7.35156ZM269.797 7.35156V0.351562H262.797V7.35156H269.797ZM269.797 11.2188V18.2188H276.797V11.2188H269.797ZM265.969 11.2188V4.21875H258.969V11.2188H265.969ZM265.969 22.9375H258.969V29.9375H265.969V22.9375ZM269.797 22.9375H276.797V15.9375H269.797V22.9375ZM262.797 46.4141C262.797 52.6757 264.381 58.6548 268.772 63.0133C273.154 67.3621 279.148 68.9219 285.422 68.9219V54.9219C281.279 54.9219 279.461 53.897 278.634 53.0766C277.817 52.2658 276.797 50.4909 276.797 46.4141H262.797ZM285.422 68.9219H301.047V54.9219H285.422V68.9219ZM308.047 61.9219V50.2031H294.047V61.9219H308.047ZM301.047 43.2031H285.422V57.2031H301.047V43.2031ZM285.422 43.2031C285.164 43.2031 286.263 43.14 287.392 44.2466C288.547 45.3788 288.516 46.5358 288.516 46.375H274.516C274.516 48.7663 275.135 51.8373 277.593 54.2456C280.024 56.6282 283.076 57.2031 285.422 57.2031V43.2031ZM288.516 46.375V42.5078H274.516V46.375H288.516ZM281.516 49.5078H301.047V35.5078H281.516V49.5078ZM308.047 42.5078V30.7891H294.047V42.5078H308.047ZM301.047 23.7891H281.516V37.7891H301.047V23.7891ZM288.516 30.7891V22.9375H274.516V30.7891H288.516ZM281.516 29.9375H301.047V15.9375H281.516V29.9375ZM308.047 22.9375V11.2188H294.047V22.9375H308.047ZM301.047 4.21875H281.516V18.2188H301.047V4.21875ZM288.516 11.2188V7.35156H274.516V11.2188H288.516ZM281.516 0.351562H269.797V14.3516H281.516V0.351562ZM262.797 7.35156V11.2188H276.797V7.35156H262.797ZM269.797 4.21875H265.969V18.2188H269.797V4.21875ZM258.969 11.2188V22.9375H272.969V11.2188H258.969ZM265.969 29.9375H269.797V15.9375H265.969V29.9375ZM262.797 22.9375V46.4141H276.797V22.9375H262.797ZM342.844 22.9375L342.867 15.9375L335.82 15.9141L335.844 22.9609L342.844 22.9375ZM354.602 22.9766H361.602V15.9998L354.625 15.9766L354.602 22.9766ZM342.883 34.6172L335.883 34.6406L335.906 41.6172H342.883V34.6172ZM342.844 11.2188H335.844V18.2188H342.844V11.2188ZM342.844 7.35156H349.844V0.351562H342.844V7.35156ZM331.125 7.35156V0.351562H324.125V7.35156H331.125ZM331.125 11.2188V18.2188H338.125V11.2188H331.125ZM327.062 11.2188V4.21875H320.062V11.2188H327.062ZM327.062 22.9375H320.062V29.9375H327.062V22.9375ZM331.125 22.9375H338.125V15.9375H331.125V22.9375ZM327.023 50.2422L322.955 44.5461L318.752 47.5479L320.38 52.4492L327.023 50.2422ZM330.93 62L324.287 64.207L326.704 71.4825L333.73 68.4154L330.93 62ZM342.492 46.4141L337.542 41.4643L335.918 43.089L335.572 45.3605L342.492 46.4141ZM342.766 46.1406V39.1406H339.866L337.816 41.1909L342.766 46.1406ZM346.789 46.1406V53.1406L346.803 53.1406L346.789 46.1406ZM366.281 22.8984H359.281V22.9161L359.281 22.9338L366.281 22.8984ZM366.281 11.2188H373.281V4.21875H366.281V11.2188ZM342.82 29.9375L354.578 29.9765L354.625 15.9766L342.867 15.9375L342.82 29.9375ZM347.602 22.9766C347.602 26.276 346.997 27.513 346.833 27.7529C346.811 27.7846 346.892 27.6752 347.055 27.5961C347.185 27.5328 347.108 27.6172 346.633 27.6172V41.6172C351.25 41.6172 355.567 39.7785 358.386 35.6612C360.878 32.0208 361.602 27.4376 361.602 22.9766H347.602ZM346.633 27.6172H342.883V41.6172H346.633V27.6172ZM349.883 34.5938L349.844 22.9141L335.844 22.9609L335.883 34.6406L349.883 34.5938ZM349.844 11.2188V7.35156H335.844V11.2188H349.844ZM342.844 0.351562H331.125V14.3516H342.844V0.351562ZM324.125 7.35156V11.2188H338.125V7.35156H324.125ZM331.125 4.21875H327.062V18.2188H331.125V4.21875ZM320.062 11.2188V22.9375H334.062V11.2188H320.062ZM327.062 29.9375H331.125V15.9375H327.062V29.9375ZM324.125 22.9375V41.2969H338.125V22.9375H324.125ZM324.125 41.2969C324.125 43.5436 323.479 44.1714 322.955 44.5461L331.092 55.9383C336.036 52.4068 338.125 47.071 338.125 41.2969H324.125ZM320.38 52.4492L324.287 64.207L337.573 59.793L333.666 48.0352L320.38 52.4492ZM333.73 68.4154C342.658 64.5185 347.932 57.1891 349.412 47.4677L335.572 45.3605C334.76 50.6911 332.327 53.7524 328.129 55.5846L333.73 68.4154ZM347.442 51.3638L347.715 51.0904L337.816 41.1909L337.542 41.4643L347.442 51.3638ZM342.766 53.1406H346.789V39.1406H342.766V53.1406ZM346.803 53.1406C354.755 53.1248 361.887 50.7026 366.83 44.8087C371.582 39.1429 373.324 31.4139 373.281 22.8631L359.281 22.9338C359.316 29.8518 357.849 33.7308 356.103 35.8124C354.549 37.6659 351.896 39.1304 346.775 39.1406L346.803 53.1406ZM373.281 22.8984V11.2188H359.281V22.8984H373.281ZM366.281 4.21875H342.844V18.2188H366.281V4.21875ZM405.188 61.9219V68.9219H412.188V61.9219H405.188ZM405.188 50.2031H412.188V43.2031H405.188V50.2031ZM385.656 42.5078V35.5078H378.656V42.5078H385.656ZM405.188 42.5078V49.5078H412.188V42.5078H405.188ZM405.188 30.7891H412.188V23.7891H405.188V30.7891ZM385.656 30.7891H378.656V37.7891H385.656V30.7891ZM385.656 22.9375V15.9375H378.656V22.9375H385.656ZM405.188 22.9375V29.9375H412.188V22.9375H405.188ZM405.188 11.2188H412.188V4.21875H405.188V11.2188ZM385.656 11.2188H378.656V18.2188H385.656V11.2188ZM385.656 7.35156H392.656V0.351562H385.656V7.35156ZM373.938 7.35156V0.351562H366.938V7.35156H373.938ZM373.938 11.2188V18.2188H380.938V11.2188H373.938ZM370.109 11.2188V4.21875H363.109V11.2188H370.109ZM370.109 22.9375H363.109V29.9375H370.109V22.9375ZM373.938 22.9375H380.938V15.9375H373.938V22.9375ZM366.938 46.4141C366.938 52.6757 368.521 58.6548 372.913 63.0133C377.294 67.3621 383.288 68.9219 389.562 68.9219V54.9219C385.42 54.9219 383.601 53.897 382.775 53.0766C381.958 52.2658 380.938 50.4909 380.938 46.4141H366.938ZM389.562 68.9219H405.188V54.9219H389.562V68.9219ZM412.188 61.9219V50.2031H398.188V61.9219H412.188ZM405.188 43.2031H389.562V57.2031H405.188V43.2031ZM389.562 43.2031C389.304 43.2031 390.403 43.14 391.532 44.2466C392.688 45.3788 392.656 46.5358 392.656 46.375H378.656C378.656 48.7663 379.276 51.8373 381.733 54.2456C384.165 56.6282 387.217 57.2031 389.562 57.2031V43.2031ZM392.656 46.375V42.5078H378.656V46.375H392.656ZM385.656 49.5078H405.188V35.5078H385.656V49.5078ZM412.188 42.5078V30.7891H398.188V42.5078H412.188ZM405.188 23.7891H385.656V37.7891H405.188V23.7891ZM392.656 30.7891V22.9375H378.656V30.7891H392.656ZM385.656 29.9375H405.188V15.9375H385.656V29.9375ZM412.188 22.9375V11.2188H398.188V22.9375H412.188ZM405.188 4.21875H385.656V18.2188H405.188V4.21875ZM392.656 11.2188V7.35156H378.656V11.2188H392.656ZM385.656 0.351562H373.938V14.3516H385.656V0.351562ZM366.938 7.35156V11.2188H380.938V7.35156H366.938ZM373.938 4.21875H370.109V18.2188H373.938V4.21875ZM363.109 11.2188V22.9375H377.109V11.2188H363.109ZM370.109 29.9375H373.938V15.9375H370.109V29.9375ZM366.938 22.9375V46.4141H380.938V22.9375H366.938ZM420.891 16.4531H413.891V19.5191L416.144 21.5981L420.891 16.4531ZM420.891 10.9844H427.891V3.98438H420.891V10.9844ZM409.094 10.9844V3.98438H402.094V10.9844H409.094ZM409.094 62H402.094V69.0234L409.117 69L409.094 62ZM420.812 61.9609L420.836 68.9609L427.803 68.9377L427.812 61.9702L420.812 61.9609ZM420.852 32.3516L425.602 27.2099L413.873 16.374L413.852 32.3423L420.852 32.3516ZM428.547 39.4609L423.797 44.6026L423.833 44.6359L423.869 44.6688L428.547 39.4609ZM432.492 48.6406L425.501 48.286L425.492 48.471L425.492 48.6562L432.492 48.6406ZM432.531 66.2188L425.531 66.2343L425.553 76.1706L434.902 72.805L432.531 66.2188ZM444.25 62L446.621 68.5862L451.25 66.9198V62H444.25ZM444.25 11.1797H451.25V4.15647L444.227 4.17973L444.25 11.1797ZM432.453 11.2188L432.43 4.21879L425.436 4.24195L425.453 11.2359L432.453 11.2188ZM432.492 27.1562L427.746 32.3012L439.531 43.1743L439.492 27.1391L432.492 27.1562ZM427.891 16.4531V10.9844H413.891V16.4531H427.891ZM420.891 3.98438H409.094V17.9844H420.891V3.98438ZM402.094 10.9844V62H416.094V10.9844H402.094ZM409.117 69L420.836 68.9609L420.789 54.961L409.07 55L409.117 69ZM427.812 61.9702L427.852 32.3608L413.852 32.3423L413.812 61.9517L427.812 61.9702ZM416.101 37.4932L423.797 44.6026L433.297 34.3193L425.602 27.2099L416.101 37.4932ZM423.869 44.6688C425.203 45.8666 425.57 46.9203 425.501 48.286L439.483 48.9952C439.779 43.1734 437.516 38.1074 433.224 34.2531L423.869 44.6688ZM425.492 48.6562L425.531 66.2343L439.531 66.2032L439.492 48.6251L425.492 48.6562ZM434.902 72.805L446.621 68.5862L441.879 55.4138L430.16 59.6325L434.902 72.805ZM451.25 62V11.1797H437.25V62H451.25ZM444.227 4.17973L432.43 4.21879L432.476 18.2187L444.273 18.1796L444.227 4.17973ZM425.453 11.2359L425.492 27.1734L439.492 27.1391L439.453 11.2016L425.453 11.2359ZM437.239 22.0113L425.637 11.3082L416.144 21.5981L427.746 32.3012L437.239 22.0113ZM463.781 46.375L463.805 53.375L470.781 53.3517V46.375H463.781ZM463.781 22.9375V15.9375H456.781V22.9375H463.781ZM475.5 22.9375H482.5V15.9375H475.5V22.9375ZM475.5 38.6016H468.5V38.6133L468.5 38.6251L475.5 38.6016ZM451.984 50.2031V43.2031H444.984V50.2031H451.984ZM451.984 62.0781H444.984V69.0781H451.984V62.0781ZM467.609 62.0781V69.0781L467.623 69.0781L467.609 62.0781ZM487.219 11.2188H494.219V4.21875H487.219V11.2188ZM463.781 11.2188H456.781V18.2188H463.781V11.2188ZM463.781 7.35156H470.781V0.351562H463.781V7.35156ZM452.062 7.35156V0.351562H445.062V7.35156H452.062ZM452.062 11.2188V18.2188H459.062V11.2188H452.062ZM448.234 11.2188V4.21875H441.234V11.2188H448.234ZM448.234 22.9375H441.234V29.9375H448.234V22.9375ZM452.062 22.9375H459.062V15.9375H452.062V22.9375ZM452.062 46.4141H445.062V53.4374L452.086 53.414L452.062 46.4141ZM470.781 46.375V22.9375H456.781V46.375H470.781ZM463.781 29.9375H475.5V15.9375H463.781V29.9375ZM468.5 22.9375V38.6016H482.5V22.9375H468.5ZM468.5 38.6251C468.505 40.1805 468.373 41.3264 468.191 42.1368C468.008 42.9476 467.806 43.2831 467.758 43.3527C467.742 43.3761 467.828 43.2629 467.994 43.1824C468.126 43.1183 468.049 43.2031 467.57 43.2031V57.2031C472.178 57.2031 476.499 55.3747 479.316 51.2527C481.806 47.6097 482.515 43.0272 482.5 38.578L468.5 38.6251ZM467.57 43.2031H451.984V57.2031H467.57V43.2031ZM444.984 50.2031V62.0781H458.984V50.2031H444.984ZM451.984 69.0781H467.609V55.0781H451.984V69.0781ZM467.623 69.0781C475.611 69.0622 482.752 66.5879 487.7 60.6344C492.444 54.9257 494.219 47.1356 494.219 38.4844H480.219C480.219 45.5363 478.725 49.5301 476.933 51.6859C475.345 53.597 472.68 55.068 467.595 55.0781L467.623 69.0781ZM494.219 38.4844V11.2188H480.219V38.4844H494.219ZM487.219 4.21875H463.781V18.2188H487.219V4.21875ZM470.781 11.2188V7.35156H456.781V11.2188H470.781ZM463.781 0.351562H452.062V14.3516H463.781V0.351562ZM445.062 7.35156V11.2188H459.062V7.35156H445.062ZM452.062 4.21875H448.234V18.2188H452.062V4.21875ZM441.234 11.2188V22.9375H455.234V11.2188H441.234ZM448.234 29.9375H452.062V15.9375H448.234V29.9375ZM445.062 22.9375V46.4141H459.062V22.9375H445.062ZM452.086 53.414L463.805 53.375L463.758 39.375L452.039 39.4141L452.086 53.414ZM506.633 22.8984V15.8984H499.633V22.8984H506.633ZM516.945 22.8984H523.945V15.8984H516.945V22.8984ZM516.945 30.75V37.75H523.945V30.75H516.945ZM506.633 30.75H499.633V37.75H506.633V30.75ZM494.992 61.9219L492.137 55.5306L489.851 56.5519L488.731 58.7914L494.992 61.9219ZM506.711 42.3125V35.3125H499.878L499.713 42.1432L506.711 42.3125ZM516.945 42.3125L523.945 42.2775L523.91 35.3125H516.945V42.3125ZM517.062 65.75L510.063 65.785L510.111 75.4767L519.296 72.384L517.062 65.75ZM528.664 61.8438L530.898 68.4778L535.664 66.873V61.8438H528.664ZM528.664 11.2188H535.664V4.21875H528.664V11.2188ZM506.711 11.2188H499.711V18.2188H506.711V11.2188ZM506.711 7.35156H513.711V0.351562H506.711V7.35156ZM494.992 7.35156V0.351562H487.992V7.35156H494.992ZM494.992 11.2188V18.2188H501.992V11.2188H494.992ZM490.93 11.2188V4.21875H483.93V11.2188H490.93ZM490.93 22.9375H483.93V29.9375H490.93V22.9375ZM494.953 22.9375H501.953V15.9375H494.953V22.9375ZM494.953 42.4297L501.937 42.9059L501.953 42.668V42.4297H494.953ZM490.852 50.2422L486.805 44.53L482.56 47.537L484.215 52.469L490.852 50.2422ZM494.797 62L488.161 64.2268L490.723 71.8632L497.927 68.261L494.797 62ZM494.953 61.9219H501.953V50.5956L491.823 55.6609L494.953 61.9219ZM494.953 62H487.953L501.214 65.1305L494.953 62ZM506.633 29.8984H516.945V15.8984H506.633V29.8984ZM509.945 22.8984V30.75H523.945V22.8984H509.945ZM516.945 23.75H506.633V37.75H516.945V23.75ZM513.633 30.75V22.8984H499.633V30.75H513.633ZM497.847 68.3131C502.826 66.0888 506.856 62.6869 509.614 58.0714C512.333 53.5214 513.57 48.2098 513.709 42.4818L499.713 42.1432C499.617 46.1027 498.784 48.9031 497.597 50.8896C496.449 52.8105 494.736 54.3695 492.137 55.5306L497.847 68.3131ZM506.711 49.3125H516.945V35.3125H506.711V49.3125ZM509.945 42.3475L510.063 65.785L524.062 65.715L523.945 42.2775L509.945 42.3475ZM519.296 72.384L530.898 68.4778L526.43 55.2097L514.829 59.116L519.296 72.384ZM535.664 61.8438V11.2188H521.664V61.8438H535.664ZM528.664 4.21875H506.711V18.2188H528.664V4.21875ZM513.711 11.2188V7.35156H499.711V11.2188H513.711ZM506.711 0.351562H494.992V14.3516H506.711V0.351562ZM487.992 7.35156V11.2188H501.992V7.35156H487.992ZM494.992 4.21875H490.93V18.2188H494.992V4.21875ZM483.93 11.2188V22.9375H497.93V11.2188H483.93ZM490.93 29.9375H494.953V15.9375H490.93V29.9375ZM487.953 22.9375V42.4297H501.953V22.9375H487.953ZM487.969 41.9535C487.858 43.5884 487.362 44.136 486.805 44.53L494.898 55.9544C499.341 52.8067 501.58 48.146 501.937 42.9059L487.969 41.9535ZM484.215 52.469L488.161 64.2268L501.433 59.7732L497.488 48.0154L484.215 52.469ZM497.927 68.261C497.996 68.2266 497.937 68.2564 498.005 68.2219C498.107 68.1714 497.924 68.2627 498.025 68.2122C498.025 68.2121 498.025 68.2121 498.025 68.212C498.025 68.212 498.026 68.2119 498.026 68.2119C498.026 68.2118 498.026 68.2118 498.026 68.2117C498.026 68.2117 498.026 68.2116 498.026 68.2116C498.026 68.2115 498.026 68.2114 498.027 68.2114C498.027 68.2113 498.027 68.2113 498.027 68.2113C498.027 68.2112 498.027 68.2111 498.027 68.2111C498.027 68.211 498.027 68.211 498.027 68.2109C498.028 68.2109 498.028 68.2108 498.028 68.2108C498.028 68.2107 498.028 68.2107 498.028 68.2106C498.028 68.2106 498.028 68.2105 498.028 68.2105C498.028 68.2104 498.029 68.2104 498.029 68.2103C498.029 68.2103 498.029 68.2102 498.029 68.2102C498.029 68.2101 498.029 68.2101 498.029 68.21C498.029 68.21 498.03 68.2099 498.03 68.2099C498.03 68.2098 498.03 68.2098 498.03 68.2097C498.03 68.2097 498.03 68.2096 498.03 68.2096C498.03 68.2095 498.03 68.2095 498.031 68.2094C498.031 68.2094 498.031 68.2093 498.031 68.2093C498.031 68.2092 498.031 68.2092 498.031 68.2091C498.031 68.2091 498.031 68.209 498.031 68.209C498.032 68.2089 498.032 68.2089 498.032 68.2088C498.032 68.2088 498.032 68.2087 498.032 68.2087C498.032 68.2086 498.032 68.2085 498.032 68.2085C498.039 68.2052 498.028 68.2105 498.035 68.2073C498.041 68.204 498.031 68.2093 498.037 68.2061C498.044 68.2028 498.033 68.2081 498.04 68.2048C498.046 68.2016 498.036 68.2069 498.042 68.2036C498.049 68.2004 498.038 68.2057 498.045 68.2024C498.146 68.1518 497.982 68.2335 498.084 68.1829L491.823 55.6609C491.802 55.6711 491.833 55.6556 491.813 55.6658C491.792 55.676 491.824 55.6604 491.803 55.6706C491.783 55.6809 491.814 55.6653 491.793 55.6755C491.791 55.6766 491.791 55.6769 491.788 55.678C491.773 55.6856 491.799 55.6728 491.784 55.6804C491.749 55.6979 491.779 55.6825 491.745 55.6999C491.727 55.7085 491.723 55.7109 491.705 55.7195C491.645 55.7497 491.746 55.6991 491.686 55.7292C491.643 55.7509 491.71 55.7174 491.666 55.739L497.927 68.261ZM487.953 61.9219V62H501.953V61.9219H487.953ZM501.214 65.1305L501.253 65.0524L488.731 58.7914L488.692 58.8695L501.214 65.1305ZM547.531 42.625L542.24 38.0418L540.531 40.0147V42.625H547.531ZM559.172 40.2031L555.631 46.2415L562.107 50.039L565.443 43.3139L559.172 40.2031ZM564.094 30.2812L570.365 33.392L573.102 27.8738L567.977 24.4569L564.094 30.2812ZM547.531 29.1875H540.531V41.8993L551.274 35.1031L547.531 29.1875ZM547.531 22.9375V15.9375H540.531V22.9375H547.531ZM570.969 22.9375V29.9375H577.969V22.9375H570.969ZM570.969 11.2188H577.969V4.21875H570.969V11.2188ZM531.984 11.2188V4.21875H524.984V11.2188H531.984ZM531.984 22.9375H524.984V29.9375H531.984V22.9375ZM535.812 22.9375H542.812V15.9375H535.812V22.9375ZM535.812 62.0781H528.812V69.1249L535.859 69.078L535.812 62.0781ZM547.531 62L547.578 68.9998L554.531 68.9535V62H547.531ZM552.822 47.2082C553.376 46.5692 553.813 46.2102 554.105 46.017C554.384 45.8331 554.519 45.8074 554.523 45.8064C554.532 45.8046 554.537 45.8041 554.546 45.8042C554.555 45.8042 554.591 45.805 554.66 45.8192C554.8 45.8479 555.119 45.9413 555.631 46.2415L562.713 34.1648C559.472 32.2645 555.685 31.2648 551.672 32.0999C547.766 32.9125 544.654 35.2552 542.24 38.0418L552.822 47.2082ZM565.443 43.3139L570.365 33.392L557.823 27.1705L552.901 37.0924L565.443 43.3139ZM567.977 24.4569C564.277 21.9907 560.249 20.3374 555.961 20.0543C551.585 19.7653 547.473 20.9414 543.789 23.2719L551.274 35.1031C552.694 34.2044 553.894 33.9483 555.039 34.0238C556.272 34.1053 557.973 34.6135 560.211 36.1056L567.977 24.4569ZM554.531 29.1875V22.9375H540.531V29.1875H554.531ZM547.531 29.9375H570.969V15.9375H547.531V29.9375ZM577.969 22.9375V11.2188H563.969V22.9375H577.969ZM570.969 4.21875H531.984V18.2188H570.969V4.21875ZM524.984 11.2188V22.9375H538.984V11.2188H524.984ZM531.984 29.9375H535.812V15.9375H531.984V29.9375ZM528.812 22.9375V62.0781H542.812V22.9375H528.812ZM535.859 69.078L547.578 68.9998L547.485 55.0002L535.766 55.0783L535.859 69.078ZM554.531 62V42.625H540.531V62H554.531ZM598.195 61.8828L600.612 68.4523L605.19 66.768L605.195 61.8898L598.195 61.8828ZM598.234 22.9375V15.9375H591.241L591.234 22.9305L598.234 22.9375ZM610.07 22.9375V29.9375H617.07V22.9375H610.07ZM610.07 11.2188H617.07V4.21875H610.07V11.2188ZM598.234 11.2188H591.234V18.2188H598.234V11.2188ZM598.234 7.35156H605.234V0.351562H598.234V7.35156ZM586.516 7.35156V0.351562H579.516V7.35156H586.516ZM586.516 11.2188V18.2188H593.516V11.2188H586.516ZM574.836 11.2188V4.21875H567.836V11.2188H574.836ZM574.836 22.9375H567.836V29.9375H574.836V22.9375ZM586.516 22.9375H593.516V15.9375H586.516V22.9375ZM586.516 66.1797H579.516V76.2136L588.932 72.7492L586.516 66.1797ZM605.195 61.8898L605.234 22.9445L591.234 22.9305L591.195 61.8758L605.195 61.8898ZM598.234 29.9375H610.07V15.9375H598.234V29.9375ZM617.07 22.9375V11.2188H603.07V22.9375H617.07ZM610.07 4.21875H598.234V18.2188H610.07V4.21875ZM605.234 11.2188V7.35156H591.234V11.2188H605.234ZM598.234 0.351562H586.516V14.3516H598.234V0.351562ZM579.516 7.35156V11.2188H593.516V7.35156H579.516ZM586.516 4.21875H574.836V18.2188H586.516V4.21875ZM567.836 11.2188V22.9375H581.836V11.2188H567.836ZM574.836 29.9375H586.516V15.9375H574.836V29.9375ZM579.516 22.9375V66.1797H593.516V22.9375H579.516ZM588.932 72.7492L600.612 68.4523L595.778 55.3133L584.099 59.6102L588.932 72.7492ZM629.445 22.8984V15.8984H622.445V22.8984H629.445ZM639.758 22.8984H646.758V15.8984H639.758V22.8984ZM639.758 30.75V37.75H646.758V30.75H639.758ZM629.445 30.75H622.445V37.75H629.445V30.75ZM617.805 61.9219L614.95 55.5306L612.663 56.5519L611.544 58.7914L617.805 61.9219ZM629.523 42.3125V35.3125H622.691L622.526 42.1432L629.523 42.3125ZM639.758 42.3125L646.758 42.2775L646.723 35.3125H639.758V42.3125ZM639.875 65.75L632.875 65.785L632.924 75.4767L642.109 72.384L639.875 65.75ZM651.477 61.8438L653.71 68.4778L658.477 66.873V61.8438H651.477ZM651.477 11.2188H658.477V4.21875H651.477V11.2188ZM629.523 11.2188H622.523V18.2188H629.523V11.2188ZM629.523 7.35156H636.523V0.351562H629.523V7.35156ZM617.805 7.35156V0.351562H610.805V7.35156H617.805ZM617.805 11.2188V18.2188H624.805V11.2188H617.805ZM613.742 11.2188V4.21875H606.742V11.2188H613.742ZM613.742 22.9375H606.742V29.9375H613.742V22.9375ZM617.766 22.9375H624.766V15.9375H617.766V22.9375ZM617.766 42.4297L624.749 42.9059L624.766 42.668V42.4297H617.766ZM613.664 50.2422L609.618 44.53L605.373 47.537L607.028 52.469L613.664 50.2422ZM617.609 62L610.973 64.2268L613.535 71.8632L620.74 68.261L617.609 62ZM617.766 61.9219H624.766V50.5956L614.635 55.6609L617.766 61.9219ZM617.766 62H610.766L624.027 65.1305L617.766 62ZM629.445 29.8984H639.758V15.8984H629.445V29.8984ZM632.758 22.8984V30.75H646.758V22.8984H632.758ZM639.758 23.75H629.445V37.75H639.758V23.75ZM636.445 30.75V22.8984H622.445V30.75H636.445ZM620.66 68.3131C625.639 66.0888 629.668 62.6869 632.427 58.0714C635.146 53.5214 636.383 48.2098 636.521 42.4818L622.526 42.1432C622.43 46.1027 621.596 48.9031 620.409 50.8896C619.261 52.8105 617.549 54.3695 614.95 55.5306L620.66 68.3131ZM629.523 49.3125H639.758V35.3125H629.523V49.3125ZM632.758 42.3475L632.875 65.785L646.875 65.715L646.758 42.2775L632.758 42.3475ZM642.109 72.384L653.71 68.4778L649.243 55.2097L637.641 59.116L642.109 72.384ZM658.477 61.8438V11.2188H644.477V61.8438H658.477ZM651.477 4.21875H629.523V18.2188H651.477V4.21875ZM636.523 11.2188V7.35156H622.523V11.2188H636.523ZM629.523 0.351562H617.805V14.3516H629.523V0.351562ZM610.805 7.35156V11.2188H624.805V7.35156H610.805ZM617.805 4.21875H613.742V18.2188H617.805V4.21875ZM606.742 11.2188V22.9375H620.742V11.2188H606.742ZM613.742 29.9375H617.766V15.9375H613.742V29.9375ZM610.766 22.9375V42.4297H624.766V22.9375H610.766ZM610.782 41.9535C610.67 43.5884 610.174 44.136 609.618 44.53L617.71 55.9544C622.154 52.8067 624.392 48.146 624.749 42.9059L610.782 41.9535ZM607.028 52.469L610.973 64.2268L624.246 59.7732L620.3 48.0154L607.028 52.469ZM620.74 68.261C620.809 68.2266 620.749 68.2564 620.818 68.2219C620.919 68.1714 620.737 68.2627 620.838 68.2122C620.838 68.2121 620.838 68.2121 620.838 68.212C620.838 68.212 620.838 68.2119 620.838 68.2119C620.838 68.2118 620.838 68.2118 620.838 68.2117C620.839 68.2117 620.839 68.2116 620.839 68.2116C620.839 68.2115 620.839 68.2114 620.839 68.2114C620.839 68.2113 620.839 68.2113 620.839 68.2113C620.839 68.2112 620.84 68.2111 620.84 68.2111C620.84 68.211 620.84 68.211 620.84 68.2109C620.84 68.2109 620.84 68.2108 620.84 68.2108C620.84 68.2107 620.84 68.2107 620.841 68.2106C620.841 68.2106 620.841 68.2105 620.841 68.2105C620.841 68.2104 620.841 68.2104 620.841 68.2103C620.841 68.2103 620.841 68.2102 620.841 68.2102C620.842 68.2101 620.842 68.2101 620.842 68.21C620.842 68.21 620.842 68.2099 620.842 68.2099C620.842 68.2098 620.842 68.2098 620.842 68.2097C620.843 68.2097 620.843 68.2096 620.843 68.2096C620.843 68.2095 620.843 68.2095 620.843 68.2094C620.843 68.2094 620.843 68.2093 620.843 68.2093C620.843 68.2092 620.844 68.2092 620.844 68.2091C620.844 68.2091 620.844 68.209 620.844 68.209C620.844 68.2089 620.844 68.2089 620.844 68.2088C620.844 68.2088 620.844 68.2087 620.845 68.2087C620.845 68.2086 620.845 68.2085 620.845 68.2085C620.851 68.2052 620.841 68.2105 620.847 68.2073C620.854 68.204 620.843 68.2093 620.85 68.2061C620.856 68.2028 620.846 68.2081 620.852 68.2048C620.859 68.2016 620.848 68.2069 620.855 68.2036C620.861 68.2004 620.851 68.2057 620.857 68.2024C620.958 68.1518 620.795 68.2335 620.896 68.1829L614.635 55.6609C614.615 55.6711 614.646 55.6556 614.625 55.6658C614.605 55.676 614.636 55.6604 614.616 55.6706C614.595 55.6809 614.626 55.6653 614.606 55.6755C614.604 55.6766 614.603 55.6769 614.601 55.678C614.586 55.6856 614.611 55.6728 614.596 55.6804C614.561 55.6979 614.592 55.6825 614.557 55.6999C614.54 55.7085 614.535 55.7109 614.518 55.7195C614.458 55.7497 614.559 55.6991 614.498 55.7292C614.455 55.7509 614.522 55.7174 614.479 55.739L620.74 68.261ZM610.766 61.9219V62H624.766V61.9219H610.766ZM624.027 65.1305L624.066 65.0524L611.544 58.7914L611.505 58.8695L624.027 65.1305ZM670.305 22.9375L670.328 15.9375L663.281 15.9141L663.305 22.9609L670.305 22.9375ZM682.062 22.9766H689.062V15.9998L682.086 15.9766L682.062 22.9766ZM670.344 34.6172L663.344 34.6406L663.367 41.6172H670.344V34.6172ZM683.234 62.0781L677.017 65.2937L678.974 69.0781H683.234V62.0781ZM696.438 62.0781V69.0781H707.948L702.653 58.8577L696.438 62.0781ZM686.398 42.7031L682.227 37.0819L677.442 40.6329L680.183 45.9235L686.398 42.7031ZM693.742 22.8984H686.742V22.9176L686.742 22.9367L693.742 22.8984ZM693.742 11.2188H700.742V4.21875H693.742V11.2188ZM670.305 11.2188H663.305V18.2188H670.305V11.2188ZM670.305 7.35156H677.305V0.351562H670.305V7.35156ZM658.586 7.35156V0.351562H651.586V7.35156H658.586ZM658.586 11.2188V18.2188H665.586V11.2188H658.586ZM654.523 11.2188V4.21875H647.523V11.2188H654.523ZM654.523 22.9375H647.523V29.9375H654.523V22.9375ZM658.586 22.9375H665.586V15.9375H658.586V22.9375ZM658.586 62.0391H651.586V69.0628L658.61 69.039L658.586 62.0391ZM670.148 62L670.172 69L677.114 68.9765L677.148 62.0345L670.148 62ZM670.227 46.1406V39.1406H663.261L663.227 46.1061L670.227 46.1406ZM674.992 46.1406L681.21 42.9251L679.253 39.1406H674.992V46.1406ZM670.281 29.9375L682.039 29.9765L682.086 15.9766L670.328 15.9375L670.281 29.9375ZM675.062 22.9766C675.062 26.276 674.458 27.513 674.294 27.7529C674.272 27.7846 674.353 27.6752 674.516 27.5961C674.646 27.5328 674.569 27.6172 674.094 27.6172V41.6172C678.711 41.6172 683.028 39.7785 685.846 35.6612C688.339 32.0208 689.062 27.4376 689.062 22.9766H675.062ZM674.094 27.6172H670.344V41.6172H674.094V27.6172ZM677.344 34.5938L677.305 22.9141L663.305 22.9609L663.344 34.6406L677.344 34.5938ZM683.234 69.0781H696.438V55.0781H683.234V69.0781ZM702.653 58.8577L692.614 39.4827L680.183 45.9235L690.222 65.2985L702.653 58.8577ZM690.57 48.3244C698.119 42.7219 700.799 33.368 700.742 22.8602L686.742 22.9367C686.789 31.4913 684.573 35.3406 682.227 37.0819L690.57 48.3244ZM700.742 22.8984V11.2188H686.742V22.8984H700.742ZM693.742 4.21875H670.305V18.2188H693.742V4.21875ZM677.305 11.2188V7.35156H663.305V11.2188H677.305ZM670.305 0.351562H658.586V14.3516H670.305V0.351562ZM651.586 7.35156V11.2188H665.586V7.35156H651.586ZM658.586 4.21875H654.523V18.2188H658.586V4.21875ZM647.523 11.2188V22.9375H661.523V11.2188H647.523ZM654.523 29.9375H658.586V15.9375H654.523V29.9375ZM651.586 22.9375V62.0391H665.586V22.9375H651.586ZM658.61 69.039L670.172 69L670.125 55L658.562 55.0391L658.61 69.039ZM677.148 62.0345L677.227 46.1751L663.227 46.1061L663.148 61.9655L677.148 62.0345ZM670.227 53.1406H674.992V39.1406H670.227V53.1406ZM668.774 49.3562L677.017 65.2937L689.452 58.8626L681.21 42.9251L668.774 49.3562ZM713.117 22.8984V15.8984H706.117V22.8984H713.117ZM723.43 22.8984H730.43V15.8984H723.43V22.8984ZM723.43 30.75V37.75H730.43V30.75H723.43ZM713.117 30.75H706.117V37.75H713.117V30.75ZM701.477 61.9219L698.621 55.5306L696.335 56.5519L695.216 58.7914L701.477 61.9219ZM713.195 42.3125V35.3125H706.363L706.197 42.1432L713.195 42.3125ZM723.43 42.3125L730.43 42.2775L730.395 35.3125H723.43V42.3125ZM723.547 65.75L716.547 65.785L716.595 75.4767L725.781 72.384L723.547 65.75ZM735.148 61.8438L737.382 68.4778L742.148 66.873V61.8438H735.148ZM735.148 11.2188H742.148V4.21875H735.148V11.2188ZM713.195 11.2188H706.195V18.2188H713.195V11.2188ZM713.195 7.35156H720.195V0.351562H713.195V7.35156ZM701.477 7.35156V0.351562H694.477V7.35156H701.477ZM701.477 11.2188V18.2188H708.477V11.2188H701.477ZM697.414 11.2188V4.21875H690.414V11.2188H697.414ZM697.414 22.9375H690.414V29.9375H697.414V22.9375ZM701.438 22.9375H708.438V15.9375H701.438V22.9375ZM701.438 42.4297L708.421 42.9059L708.438 42.668V42.4297H701.438ZM697.336 50.2422L693.29 44.53L689.045 47.537L690.7 52.469L697.336 50.2422ZM701.281 62L694.645 64.2268L697.207 71.8632L704.412 68.261L701.281 62ZM701.438 61.9219H708.438V50.5956L698.307 55.6609L701.438 61.9219ZM701.438 62H694.438L707.698 65.1305L701.438 62ZM713.117 29.8984H723.43V15.8984H713.117V29.8984ZM716.43 22.8984V30.75H730.43V22.8984H716.43ZM723.43 23.75H713.117V37.75H723.43V23.75ZM720.117 30.75V22.8984H706.117V30.75H720.117ZM704.332 68.3131C709.311 66.0888 713.34 62.6869 716.099 58.0714C718.818 53.5214 720.055 48.2098 720.193 42.4818L706.197 42.1432C706.102 46.1027 705.268 48.9031 704.081 50.8896C702.933 52.8105 701.221 54.3695 698.621 55.5306L704.332 68.3131ZM713.195 49.3125H723.43V35.3125H713.195V49.3125ZM716.43 42.3475L716.547 65.785L730.547 65.715L730.43 42.2775L716.43 42.3475ZM725.781 72.384L737.382 68.4778L732.915 55.2097L721.313 59.116L725.781 72.384ZM742.148 61.8438V11.2188H728.148V61.8438H742.148ZM735.148 4.21875H713.195V18.2188H735.148V4.21875ZM720.195 11.2188V7.35156H706.195V11.2188H720.195ZM713.195 0.351562H701.477V14.3516H713.195V0.351562ZM694.477 7.35156V11.2188H708.477V7.35156H694.477ZM701.477 4.21875H697.414V18.2188H701.477V4.21875ZM690.414 11.2188V22.9375H704.414V11.2188H690.414ZM697.414 29.9375H701.438V15.9375H697.414V29.9375ZM694.438 22.9375V42.4297H708.438V22.9375H694.438ZM694.454 41.9535C694.342 43.5884 693.846 44.136 693.29 44.53L701.382 55.9544C705.826 52.8067 708.064 48.146 708.421 42.9059L694.454 41.9535ZM690.7 52.469L694.645 64.2268L707.918 59.7732L703.972 48.0154L690.7 52.469ZM704.412 68.261C704.481 68.2266 704.421 68.2564 704.49 68.2219C704.591 68.1714 704.408 68.2627 704.509 68.2122C704.51 68.2121 704.51 68.2121 704.51 68.212C704.51 68.212 704.51 68.2119 704.51 68.2119C704.51 68.2118 704.51 68.2118 704.51 68.2117C704.51 68.2117 704.51 68.2116 704.511 68.2116C704.511 68.2115 704.511 68.2114 704.511 68.2114C704.511 68.2113 704.511 68.2113 704.511 68.2113C704.511 68.2112 704.511 68.2111 704.512 68.2111C704.512 68.211 704.512 68.211 704.512 68.2109C704.512 68.2109 704.512 68.2108 704.512 68.2108C704.512 68.2107 704.512 68.2107 704.512 68.2106C704.513 68.2106 704.513 68.2105 704.513 68.2105C704.513 68.2104 704.513 68.2104 704.513 68.2103C704.513 68.2103 704.513 68.2102 704.513 68.2102C704.513 68.2101 704.514 68.2101 704.514 68.21C704.514 68.21 704.514 68.2099 704.514 68.2099C704.514 68.2098 704.514 68.2098 704.514 68.2097C704.514 68.2097 704.514 68.2096 704.515 68.2096C704.515 68.2095 704.515 68.2095 704.515 68.2094C704.515 68.2094 704.515 68.2093 704.515 68.2093C704.515 68.2092 704.515 68.2092 704.516 68.2091C704.516 68.2091 704.516 68.209 704.516 68.209C704.516 68.2089 704.516 68.2089 704.516 68.2088C704.516 68.2088 704.516 68.2087 704.516 68.2087C704.517 68.2086 704.517 68.2085 704.517 68.2085C704.523 68.2052 704.513 68.2105 704.519 68.2073C704.526 68.204 704.515 68.2093 704.522 68.2061C704.528 68.2028 704.518 68.2081 704.524 68.2048C704.531 68.2016 704.52 68.2069 704.526 68.2036C704.533 68.2004 704.522 68.2057 704.529 68.2024C704.63 68.1518 704.467 68.2335 704.568 68.1829L698.307 55.6609C698.287 55.6711 698.318 55.6556 698.297 55.6658C698.277 55.676 698.308 55.6604 698.287 55.6706C698.267 55.6809 698.298 55.6653 698.278 55.6755C698.276 55.6766 698.275 55.6769 698.273 55.678C698.258 55.6856 698.283 55.6728 698.268 55.6804C698.233 55.6979 698.264 55.6825 698.229 55.6999C698.212 55.7085 698.207 55.7109 698.19 55.7195C698.129 55.7497 698.231 55.6991 698.17 55.7292C698.127 55.7509 698.194 55.7174 698.151 55.739L704.412 68.261ZM694.438 61.9219V62H708.438V61.9219H694.438ZM707.698 65.1305L707.738 65.0524L695.216 58.7914L695.177 58.8695L707.698 65.1305ZM750.188 16.4531H743.188V19.5191L745.441 21.5981L750.188 16.4531ZM750.188 10.9844H757.188V3.98438H750.188V10.9844ZM738.391 10.9844V3.98438H731.391V10.9844H738.391ZM738.391 62H731.391V69.0234L738.414 69L738.391 62ZM750.109 61.9609L750.133 68.9609L757.1 68.9377L757.109 61.9702L750.109 61.9609ZM750.148 32.3516L754.899 27.2099L743.169 16.374L743.148 32.3423L750.148 32.3516ZM757.844 39.4609L753.094 44.6026L753.13 44.6359L753.166 44.6688L757.844 39.4609ZM761.789 48.6406L754.798 48.286L754.789 48.471L754.789 48.6562L761.789 48.6406ZM761.828 66.2188L754.828 66.2343L754.85 76.1706L764.199 72.805L761.828 66.2188ZM773.547 62L775.918 68.5862L780.547 66.9198V62H773.547ZM773.547 11.1797H780.547V4.15647L773.524 4.17973L773.547 11.1797ZM761.75 11.2188L761.727 4.21879L754.733 4.24195L754.75 11.2359L761.75 11.2188ZM761.789 27.1562L757.043 32.3012L768.828 43.1743L768.789 27.1391L761.789 27.1562ZM757.188 16.4531V10.9844H743.188V16.4531H757.188ZM750.188 3.98438H738.391V17.9844H750.188V3.98438ZM731.391 10.9844V62H745.391V10.9844H731.391ZM738.414 69L750.133 68.9609L750.086 54.961L738.367 55L738.414 69ZM757.109 61.9702L757.148 32.3608L743.148 32.3423L743.109 61.9517L757.109 61.9702ZM745.398 37.4932L753.094 44.6026L762.594 34.3193L754.899 27.2099L745.398 37.4932ZM753.166 44.6688C754.5 45.8666 754.867 46.9203 754.798 48.286L768.78 48.9952C769.075 43.1734 766.813 38.1074 762.521 34.2531L753.166 44.6688ZM754.789 48.6562L754.828 66.2343L768.828 66.2032L768.789 48.6251L754.789 48.6562ZM764.199 72.805L775.918 68.5862L771.176 55.4138L759.457 59.6325L764.199 72.805ZM780.547 62V11.1797H766.547V62H780.547ZM773.524 4.17973L761.727 4.21879L761.773 18.2187L773.57 18.1796L773.524 4.17973ZM754.75 11.2359L754.789 27.1734L768.789 27.1391L768.75 11.2016L754.75 11.2359ZM766.536 22.0113L754.934 11.3082L745.441 21.5981L757.043 32.3012L766.536 22.0113Z" fill="#FBE5D2"/>
</svg>
