<svg width="504" height="114" viewBox="0 0 504 114" fill="none" xmlns="http://www.w3.org/2000/svg">
<path d="M3.25692 66.5634C3.25692 81.491 12.9372 90.0856 25.4221 90.0856C30.3075 90.0856 36.0071 88.2762 40.3496 84.4765L35.0119 76.0628C32.8406 77.7817 30.217 79.3197 26.9601 79.3197C21.17 79.3197 16.9179 74.3439 16.9179 66.5634C16.9179 58.783 20.989 53.8072 27.4124 53.8072C29.4932 53.8072 31.4836 54.6214 33.6548 56.4308L39.7163 48.198C36.7308 45.122 32.1169 43.0412 26.5982 43.0412C14.2038 43.0412 3.25692 51.6359 3.25692 66.5634ZM42.9259 66.5634C42.9259 81.491 53.4204 90.0856 64.8196 90.0856C76.1284 90.0856 86.6229 81.491 86.6229 66.5634C86.6229 51.6359 76.1284 43.0412 64.8196 43.0412C53.4204 43.0412 42.9259 51.6359 42.9259 66.5634ZM56.5869 66.5634C56.5869 58.783 59.301 53.8072 64.8196 53.8072C70.2478 53.8072 73.0524 58.783 73.0524 66.5634C73.0524 74.3439 70.2478 79.3197 64.8196 79.3197C59.301 79.3197 56.5869 74.3439 56.5869 66.5634ZM95.7321 89H109.031V58.6925C111.836 55.7975 114.459 54.35 116.631 54.35C120.43 54.35 122.149 56.3403 122.149 62.8542V89H135.448V58.6925C138.343 55.7975 140.877 54.35 143.138 54.35C146.938 54.35 148.657 56.3403 148.657 62.8542V89H161.956V61.1352C161.956 49.917 157.614 43.0412 147.933 43.0412C141.962 43.0412 137.801 46.4791 133.82 50.5502C131.558 45.7553 127.758 43.0412 121.426 43.0412C115.545 43.0412 111.564 46.2077 107.855 49.917H107.493L106.589 44.1269H95.7321V89ZM179.907 37.5226C184.431 37.5226 187.597 34.6275 187.597 30.5564C187.597 26.4852 184.431 23.6807 179.907 23.6807C175.474 23.6807 172.217 26.4852 172.217 30.5564C172.217 34.6275 175.474 37.5226 179.907 37.5226ZM173.303 89H186.602V44.1269H173.303V89ZM198.306 89H211.605V58.6925C214.5 55.888 216.581 54.35 219.928 54.35C223.728 54.35 225.447 56.3403 225.447 62.8542V89H238.746V61.1352C238.746 49.917 234.584 43.0412 224.814 43.0412C218.752 43.0412 214.229 46.2077 210.429 49.8265H210.067L209.162 44.1269H198.306V89ZM258.221 94.6091C258.221 92.9807 259.035 91.6236 260.664 90.1761C262.111 90.538 263.921 90.7189 266.997 90.7189H271.611C276.044 90.7189 278.486 91.4427 278.486 94.2473C278.486 97.3232 274.144 99.7659 268.173 99.7659C262.202 99.7659 258.221 97.9565 258.221 94.6091ZM247.274 96.69C247.274 104.651 255.598 108.089 266.092 108.089C281.472 108.089 291.152 101.304 291.152 91.9855C291.152 83.9337 285.091 80.5863 274.053 80.5863H266.816C261.84 80.5863 260.031 79.5006 260.031 77.2389C260.031 75.7009 260.483 74.8867 261.659 73.8915C263.649 74.5248 265.459 74.7962 267.087 74.7962C276.948 74.7962 284.729 70.0013 284.729 59.6877C284.729 57.3355 284.096 55.1642 283.281 53.8072H290.429V44.1269H274.053C272.063 43.4031 269.62 43.0412 267.087 43.0412C257.407 43.0412 248.541 48.4694 248.541 59.2354C248.541 64.4826 251.436 68.7347 254.602 70.906V71.2679C251.707 73.2582 249.536 76.4247 249.536 79.6816C249.536 83.3909 251.345 85.7431 253.698 87.2811V87.6429C249.536 89.9952 247.274 92.9807 247.274 96.69ZM267.087 66.7444C263.559 66.7444 260.935 64.2112 260.935 59.2354C260.935 54.4405 263.559 51.9978 267.087 51.9978C270.616 51.9978 273.239 54.5309 273.239 59.2354C273.239 64.2112 270.616 66.7444 267.087 66.7444ZM313.244 83.8432C317.767 87.5525 324.553 90.0856 330.433 90.0856C342.466 90.0856 348.889 83.7527 348.889 75.6104C348.889 67.3777 342.466 64.2112 336.766 62.1304C332.152 60.4115 327.991 59.3258 327.991 56.4308C327.991 54.169 329.619 52.9025 333.057 52.9025C336.223 52.9025 339.299 54.35 342.556 56.7022L348.527 48.7408C344.637 45.8458 339.571 43.0412 332.695 43.0412C322.291 43.0412 315.506 48.7408 315.506 57.0641C315.506 64.4826 321.929 68.1919 327.357 70.2727C331.971 72.0821 336.495 73.4392 336.495 76.4247C336.495 78.7769 334.776 80.2244 330.795 80.2244C326.995 80.2244 323.286 78.5959 319.215 75.52L313.244 83.8432ZM354.712 66.5634C354.712 81.491 365.206 90.0856 376.605 90.0856C387.914 90.0856 398.409 81.491 398.409 66.5634C398.409 51.6359 387.914 43.0412 376.605 43.0412C365.206 43.0412 354.712 51.6359 354.712 66.5634ZM368.373 66.5634C368.373 58.783 371.087 53.8072 376.605 53.8072C382.034 53.8072 384.838 58.783 384.838 66.5634C384.838 74.3439 382.034 79.3197 376.605 79.3197C371.087 79.3197 368.373 74.3439 368.373 66.5634ZM404.894 66.5634C404.894 81.491 415.389 90.0856 426.788 90.0856C438.097 90.0856 448.591 81.491 448.591 66.5634C448.591 51.6359 438.097 43.0412 426.788 43.0412C415.389 43.0412 404.894 51.6359 404.894 66.5634ZM418.555 66.5634C418.555 58.783 421.269 53.8072 426.788 53.8072C432.216 53.8072 435.021 58.783 435.021 66.5634C435.021 74.3439 432.216 79.3197 426.788 79.3197C421.269 79.3197 418.555 74.3439 418.555 66.5634ZM457.7 89H471V58.6925C473.895 55.888 475.975 54.35 479.323 54.35C483.123 54.35 484.841 56.3403 484.841 62.8542V89H498.141V61.1352C498.141 49.917 493.979 43.0412 484.208 43.0412C478.147 43.0412 473.623 46.2077 469.823 49.8265H469.462L468.557 44.1269H457.7V89Z" fill="#FBE5D3"/>
</svg>
